<?xml version="1.0" encoding="UTF-8" standalone="no"?>
<!-- Created with Inkscape (http://www.inkscape.org/) -->

<svg
   width="91.214355mm"
   height="73.913895mm"
   viewBox="0 0 91.214355 73.913895"
   version="1.1"
   id="svg5"
   xml:space="preserve"
   xmlns="http://www.w3.org/2000/svg"
   xmlns:svg="http://www.w3.org/2000/svg"><defs
     id="defs2" /><g
     id="layer1"
     transform="translate(-33.495448,-7.9934499)"><g
       id="g7320"
       transform="matrix(1.1538599,0,0,1.2080331,-11.681158,-9.52202)"
       style="fill:#4f1781;fill-opacity:1"><path
         style="fill:#4f1781;fill-opacity:1;stroke-width:0.534533"
         d="m 290.76072,145.03976 c -14.2283,-8.80763 -28.61973,-13.79992 -44.57329,-15.46218 -7.43088,-0.77425 -22.54495,-0.33271 -28.63242,0.83647 -2.35195,0.45173 -5.26316,0.96775 -6.46936,1.14672 l -2.19308,0.3254 -0.30661,-2.28595 c -0.39024,-2.90942 0.84059,-11.19513 2.5458,-17.1379 6.11409,-21.307955 20.56458,-37.805559 42.03598,-47.990966 14.11852,-6.697414 27.59398,-9.650015 44.13896,-9.671267 45.05826,-0.05788 80.23736,25.836214 87.0648,64.085323 0.78098,4.37521 1.08594,12.19438 0.49853,12.78179 -0.15203,0.15203 -2.38046,-0.12397 -4.95208,-0.61334 -8.3691,-1.59261 -15.56637,-2.11651 -24.72065,-1.79944 -19.53186,0.67649 -36.97319,5.9325 -51.58245,15.54455 -2.93993,1.93431 -5.83781,3.52076 -6.43973,3.52546 -0.60192,0.005 -3.4884,-1.47341 -6.4144,-3.28467 z"
         id="path2561"
         transform="scale(0.26458333)" /><path
         style="fill:#4f1781;fill-opacity:1;stroke-width:0.534533"
         d="m 220.07459,285.43679 c -18.47592,-2.81349 -35.07257,-11.1498 -47.94657,-24.08302 -20.13807,-20.23069 -28.57312,-48.51499 -21.90219,-73.4421 6.08426,-22.73488 23.84229,-40.64403 49.78164,-50.20526 5.49667,-2.02607 5.26166,-2.25059 7.10552,6.78816 2.50097,12.25995 7.07687,22.17823 14.70078,31.86401 8.85978,11.25588 19.82413,19.43497 35.29669,26.33032 4.11591,1.83425 7.98509,3.77131 8.59818,4.30457 0.93859,0.81638 1.16731,1.81179 1.44759,6.30009 0.75696,12.12154 6.15986,26.57445 14.21217,38.01801 1.47943,2.10249 4.74078,6.0195 7.24745,8.70447 6.145,6.5821 6.10283,6.47595 3.35146,8.43578 -5.49541,3.91444 -19.13961,10.28902 -28.70972,13.41323 -9.08086,2.96448 -15.63052,3.95181 -27.52846,4.14976 -7.35538,0.12239 -12.2393,-0.058 -15.65454,-0.57802 z"
         id="path2563"
         transform="scale(0.26458333)" /><path
         style="fill:#4f1781;fill-opacity:1;stroke-width:0.534533"
         d="m 348.51564,285.07962 c -18.50135,-1.86276 -36.26218,-8.36512 -46.9466,-17.18745 l -2.58035,-2.13064 1.68078,-0.70671 c 4.11528,-1.73035 11.02991,-10.92021 16.54165,-21.98462 5.54296,-11.12709 8.56177,-20.70959 9.61264,-30.51315 0.29467,-2.74887 0.80333,-5.32036 1.13037,-5.71442 0.32704,-0.39406 2.32096,-1.3663 4.43093,-2.16055 6.04105,-2.274 15.1131,-6.94763 20.94137,-10.78835 6.42847,-4.23622 17.34134,-14.91142 21.53413,-21.06515 5.72353,-8.40036 9.70043,-18.01059 12.37873,-29.91335 0.63741,-2.83276 1.47335,-5.58047 1.85765,-6.10603 0.66657,-0.91159 0.84909,-0.89933 3.96643,0.26648 7.48972,2.80097 22.82926,12.41304 29.41036,18.42914 7.74639,7.08135 12.6908,13.46105 17.01962,21.9602 5.06583,9.94619 7.25158,18.95551 7.26223,29.93386 0.0142,14.59426 -4.08284,27.60193 -12.87957,40.89178 -4.27221,6.45433 -14.96182,17.02937 -21.75731,21.52411 -18.50863,12.24215 -40.70783,17.57 -63.60306,15.26485 z"
         id="path2565"
         transform="scale(0.26458333)" /><path
         style="fill:#4f1781;fill-opacity:1;stroke-width:0.534533"
         d="m 327.16081,202.79079 c -0.14313,-0.40549 -0.76329,-3.26292 -1.37813,-6.34984 -3.08164,-15.47189 -9.93091,-28.44461 -21.17789,-40.11157 -2.83507,-2.94094 -4.48753,-5.07138 -4.37613,-5.64193 0.0984,-0.50419 2.17582,-2.28092 4.61639,-3.94829 14.42738,-9.85661 34.19357,-15.51126 54.22057,-15.51126 9.61405,0 23.53865,2.02093 25.63808,3.72095 l 1.15193,0.93277 -0.92127,5.5575 c -4.16505,25.1255 -20.79596,45.93997 -46.54959,58.25933 -7.14599,3.41831 -10.75767,4.41337 -11.22396,3.09234 z"
         id="path2567"
         transform="scale(0.26458333)" /><path
         style="fill:#4f1781;fill-opacity:1;stroke-width:0.534533"
         d="m 279.02632,207.3404 c -5.54138,-0.99047 -7.41133,-1.62045 -8.55236,-2.88127 -0.84272,-0.93119 -0.86992,-1.44566 -0.28717,-5.43111 2.70299,-18.48586 20.43422,-47.43485 27.86379,-45.49197 1.68721,0.44121 9.8514,9.44896 13.33775,14.71586 6.08014,9.18536 10.36536,19.59614 12.0253,29.21501 1.00464,5.82157 0.79806,7.17629 -1.21695,7.98093 -6.33821,2.53097 -33.04761,3.70189 -43.17036,1.89255 z"
         id="path2569"
         transform="scale(0.26458333)" /><path
         style="fill:#4f1781;fill-opacity:1;stroke-width:0.534533"
         d="m 290.63131,258.63769 c -10.24183,-10.65702 -17.07236,-23.5675 -19.84406,-37.50751 -1.40359,-7.05923 -1.90252,-12.71022 -1.16256,-13.16754 0.32088,-0.19832 2.92833,0.12487 5.79433,0.7182 11.32307,2.34412 26.34031,2.76219 37.28289,1.03792 2.35195,-0.3706 5.59924,-0.68338 7.2162,-0.69506 2.82663,-0.0204 2.97738,0.0509 3.91161,1.84964 2.93299,5.6472 -2.93246,23.35615 -12.45023,37.58968 -4.72576,7.06724 -12.51259,15.33521 -14.44631,15.33894 -0.99242,0.002 -2.61422,-1.32712 -6.30187,-5.16427 z"
         id="path2571"
         transform="scale(0.26458333)" /><path
         style="fill:#4f1781;fill-opacity:1;stroke-width:0.534533"
         d="m 262.86783,202.85814 c -5.36454,-1.88919 -13.34504,-6.01071 -19.38736,-10.01257 -11.73493,-7.77213 -23.82038,-21.40129 -29.07306,-32.78663 -3.40802,-7.387 -5.6722,-15.68015 -5.6722,-20.7759 0,-6.14211 6.0256,-8.82101 19.77773,-8.79293 20.63789,0.0421 46.90742,7.36999 62.40675,17.40829 1.83745,1.19005 3.34083,2.40368 3.34083,2.69695 0,0.29327 -1.93125,2.57345 -4.29167,5.06707 -12.69524,13.41164 -19.40147,26.60799 -22.46658,44.20911 -0.32956,1.8925 -0.89479,3.55433 -1.25606,3.69297 -0.36127,0.13863 -1.88155,-0.17923 -3.37838,-0.70636 z"
         id="path2573"
         transform="scale(0.26458333)" /></g></g></svg>
