<?xml version="1.0" encoding="UTF-8" standalone="no"?>
<!-- Created with Inkscape (http://www.inkscape.org/) -->

<svg
   width="22.994595mm"
   height="41.125732mm"
   viewBox="0 0 22.994595 41.125732"
   version="1.1"
   id="svg2865"
   xml:space="preserve"
   xmlns="http://www.w3.org/2000/svg"
   xmlns:svg="http://www.w3.org/2000/svg"><defs
     id="defs2862"><clipPath
       clipPathUnits="userSpaceOnUse"
       id="clipPath4376"><path
         d="m 825.342,621.8 h 96.932 V 485.507 h -96.932 z"
         id="path4374" /></clipPath><clipPath
       clipPathUnits="userSpaceOnUse"
       id="clipPath4570"><path
         d="M 0,1080 H 1920 V 0 H 0 Z"
         id="path4568" /></clipPath><clipPath
       clipPathUnits="userSpaceOnUse"
       id="clipPath9055"><g
         id="g9059"
         transform="matrix(2.8346458,0,0,-2.8346457,-734.80961,223.60684)"><path
           d="m -16.70349,-100.93902 h 677.3333 v 381 h -677.3333 z"
           id="path9057"
           style="stroke-width:0.352778" /></g></clipPath><clipPath
       clipPathUnits="userSpaceOnUse"
       id="clipPath9061"><g
         id="g9065"
         transform="matrix(2.8346458,0,0,-2.8346457,-715.30731,252.45784)"><path
           d="m -16.70349,-100.93902 h 677.3333 v 381 h -677.3333 z"
           id="path9063"
           style="stroke-width:0.352778" /></g></clipPath><clipPath
       clipPathUnits="userSpaceOnUse"
       id="clipPath9067"><g
         id="g9071"
         transform="matrix(2.8346458,0,0,-2.8346457,-761.36013,136.71334)"><path
           d="m -16.70349,-100.93902 h 677.3333 v 381 h -677.3333 z"
           id="path9069"
           style="stroke-width:0.352778" /></g></clipPath><clipPath
       clipPathUnits="userSpaceOnUse"
       id="clipPath9073"><g
         id="g9077"
         transform="matrix(2.8346458,0,0,-2.8346457,-764.73472,138.83694)"><path
           d="m -16.70349,-100.93902 h 677.3333 v 381 h -677.3333 z"
           id="path9075"
           style="stroke-width:0.352778" /></g></clipPath><clipPath
       clipPathUnits="userSpaceOnUse"
       id="clipPath9079"><g
         id="g9083"
         transform="matrix(2.8346458,0,0,-2.8346457,-763.90553,138.96224)"><path
           d="m -16.70349,-100.93902 h 677.3333 v 381 h -677.3333 z"
           id="path9081"
           style="stroke-width:0.352778" /></g></clipPath><clipPath
       clipPathUnits="userSpaceOnUse"
       id="clipPath9085"><g
         id="g9089"
         transform="matrix(2.8346458,0,0,-2.8346457,-759.91582,122.57514)"><path
           d="m -16.70349,-100.93902 h 677.3333 v 381 h -677.3333 z"
           id="path9087"
           style="stroke-width:0.352778" /></g></clipPath><clipPath
       clipPathUnits="userSpaceOnUse"
       id="clipPath9091"><g
         id="g9095"
         transform="matrix(2.8346458,0,0,-2.8346457,-770.87623,127.78824)"><path
           d="m -16.70349,-100.93902 h 677.3333 v 381 h -677.3333 z"
           id="path9093"
           style="stroke-width:0.352778" /></g></clipPath><clipPath
       clipPathUnits="userSpaceOnUse"
       id="clipPath9097"><g
         id="g9101"
         transform="matrix(2.8346458,0,0,-2.8346457,-757.22582,126.33514)"><path
           d="m -16.70349,-100.93902 h 677.3333 v 381 h -677.3333 z"
           id="path9099"
           style="stroke-width:0.352778" /></g></clipPath><clipPath
       clipPathUnits="userSpaceOnUse"
       id="clipPath9103"><g
         id="g9107"
         transform="matrix(2.8346458,0,0,-2.8346457,-810.57882,128.57514)"><path
           d="m -16.70349,-100.93902 h 677.3333 v 381 h -677.3333 z"
           id="path9105"
           style="stroke-width:0.352778" /></g></clipPath><clipPath
       clipPathUnits="userSpaceOnUse"
       id="clipPath9109"><g
         id="g9113"
         transform="matrix(2.8346458,0,0,-2.8346457,-827.51863,119.90444)"><path
           d="m -16.70349,-100.93902 h 677.3333 v 381 h -677.3333 z"
           id="path9111"
           style="stroke-width:0.352778" /></g></clipPath><clipPath
       clipPathUnits="userSpaceOnUse"
       id="clipPath9115"><g
         id="g9119"
         transform="matrix(2.8346458,0,0,-2.8346457,-801.38422,117.50474)"><path
           d="m -16.70349,-100.93902 h 677.3333 v 381 h -677.3333 z"
           id="path9117"
           style="stroke-width:0.352778" /></g></clipPath><clipPath
       clipPathUnits="userSpaceOnUse"
       id="clipPath9121"><g
         id="g9125"
         transform="matrix(2.8346458,0,0,-2.8346457,-812.85232,88.58444)"><path
           d="m -16.70349,-100.93902 h 677.3333 v 381 h -677.3333 z"
           id="path9123"
           style="stroke-width:0.352778" /></g></clipPath><clipPath
       clipPathUnits="userSpaceOnUse"
       id="clipPath9127"><g
         id="g9131"
         transform="matrix(2.8346458,0,0,-2.8346457,-766.35171,128.58254)"><path
           d="m -16.70349,-100.93902 h 677.3333 v 381 h -677.3333 z"
           id="path9129"
           style="stroke-width:0.352778" /></g></clipPath><clipPath
       clipPathUnits="userSpaceOnUse"
       id="clipPath9133"><g
         id="g9137"
         transform="matrix(2.8346458,0,0,-2.8346457,-758.77201,50.812738)"><path
           d="m -16.70349,-100.93902 h 677.3333 v 381 h -677.3333 z"
           id="path9135"
           style="stroke-width:0.352778" /></g></clipPath><clipPath
       clipPathUnits="userSpaceOnUse"
       id="clipPath9139"><g
         id="g9143"
         transform="matrix(2.8346458,0,0,-2.8346457,-774.78441,83.001239)"><path
           d="m -16.70349,-100.93902 h 677.3333 v 381 h -677.3333 z"
           id="path9141"
           style="stroke-width:0.352778" /></g></clipPath><clipPath
       clipPathUnits="userSpaceOnUse"
       id="clipPath9145"><g
         id="g9149"
         transform="matrix(2.8346458,0,0,-2.8346457,-808.25923,146.09754)"><path
           d="m -16.70349,-100.93902 h 677.3333 v 381 h -677.3333 z"
           id="path9147"
           style="stroke-width:0.352778" /></g></clipPath><clipPath
       clipPathUnits="userSpaceOnUse"
       id="clipPath9151"><g
         id="g9155"
         transform="matrix(2.8346458,0,0,-2.8346457,-812.22802,143.66304)"><path
           d="m -16.70349,-100.93902 h 677.3333 v 381 h -677.3333 z"
           id="path9153"
           style="stroke-width:0.352778" /></g></clipPath><clipPath
       clipPathUnits="userSpaceOnUse"
       id="clipPath9157"><g
         id="g9161"
         transform="matrix(2.8346458,0,0,-2.8346457,-814.61323,138.49574)"><path
           d="m -16.70349,-100.93902 h 677.3333 v 381 h -677.3333 z"
           id="path9159"
           style="stroke-width:0.352778" /></g></clipPath><clipPath
       clipPathUnits="userSpaceOnUse"
       id="clipPath9163"><g
         id="g9167"
         transform="matrix(2.8346458,0,0,-2.8346457,-802.35041,146.32584)"><path
           d="m -16.70349,-100.93902 h 677.3333 v 381 h -677.3333 z"
           id="path9165"
           style="stroke-width:0.352778" /></g></clipPath><clipPath
       clipPathUnits="userSpaceOnUse"
       id="clipPath9169"><g
         id="g9173"
         transform="matrix(2.8346458,0,0,-2.8346457,-823.43312,125.91904)"><path
           d="m -16.70349,-100.93902 h 677.3333 v 381 h -677.3333 z"
           id="path9171"
           style="stroke-width:0.352778" /></g></clipPath><clipPath
       clipPathUnits="userSpaceOnUse"
       id="clipPath9175"><g
         id="g9179"
         transform="matrix(2.8346458,0,0,-2.8346457,-821.77553,125.26344)"><path
           d="m -16.70349,-100.93902 h 677.3333 v 381 h -677.3333 z"
           id="path9177"
           style="stroke-width:0.352778" /></g></clipPath><clipPath
       clipPathUnits="userSpaceOnUse"
       id="clipPath9181"><g
         id="g9185"
         transform="matrix(2.8346458,0,0,-2.8346457,-819.24362,127.63684)"><path
           d="m -16.70349,-100.93902 h 677.3333 v 381 h -677.3333 z"
           id="path9183"
           style="stroke-width:0.352778" /></g></clipPath><clipPath
       clipPathUnits="userSpaceOnUse"
       id="clipPath9187"><g
         id="g9191"
         transform="matrix(2.8346458,0,0,-2.8346457,-801.65391,124.13254)"><path
           d="m -16.70349,-100.93902 h 677.3333 v 381 h -677.3333 z"
           id="path9189"
           style="stroke-width:0.352778" /></g></clipPath><clipPath
       clipPathUnits="userSpaceOnUse"
       id="clipPath9193"><g
         id="g9197"
         transform="matrix(2.8346458,0,0,-2.8346457,-803.29043,123.86694)"><path
           d="m -16.70349,-100.93902 h 677.3333 v 381 h -677.3333 z"
           id="path9195"
           style="stroke-width:0.352778" /></g></clipPath><clipPath
       clipPathUnits="userSpaceOnUse"
       id="clipPath9199"><g
         id="g9203"
         transform="matrix(2.8346458,0,0,-2.8346457,-805.37393,126.64304)"><path
           d="m -16.70349,-100.93902 h 677.3333 v 381 h -677.3333 z"
           id="path9201"
           style="stroke-width:0.352778" /></g></clipPath><clipPath
       clipPathUnits="userSpaceOnUse"
       id="clipPath9205"><g
         id="g9209"
         transform="matrix(2.8346458,0,0,-2.8346457,-801.26281,116.89094)"><path
           d="m -16.70349,-100.93902 h 677.3333 v 381 h -677.3333 z"
           id="path9207"
           style="stroke-width:0.352778" /></g></clipPath><clipPath
       clipPathUnits="userSpaceOnUse"
       id="clipPath9211"><g
         id="g9215"
         transform="matrix(2.8346458,0,0,-2.8346457,-824.91802,118.84974)"><path
           d="m -16.70349,-100.93902 h 677.3333 v 381 h -677.3333 z"
           id="path9213"
           style="stroke-width:0.352778" /></g></clipPath><clipPath
       clipPathUnits="userSpaceOnUse"
       id="clipPath9217"><g
         id="g9221"
         transform="matrix(2.8346458,0,0,-2.8346457,-830.27553,127.81084)"><path
           d="m -16.70349,-100.93902 h 677.3333 v 381 h -677.3333 z"
           id="path9219"
           style="stroke-width:0.352778" /></g></clipPath><clipPath
       clipPathUnits="userSpaceOnUse"
       id="clipPath9223"><g
         id="g9227"
         transform="matrix(2.8346458,0,0,-2.8346457,-769.78061,150.30354)"><path
           d="m -16.70349,-100.93902 h 677.3333 v 381 h -677.3333 z"
           id="path9225"
           style="stroke-width:0.352778" /></g></clipPath><clipPath
       clipPathUnits="userSpaceOnUse"
       id="clipPath9229"><g
         id="g9233"
         transform="matrix(2.8346458,0,0,-2.8346457,-765.04542,174.97084)"><path
           d="m -16.70349,-100.93902 h 677.3333 v 381 h -677.3333 z"
           id="path9231"
           style="stroke-width:0.352778" /></g></clipPath><clipPath
       clipPathUnits="userSpaceOnUse"
       id="clipPath9235"><g
         id="g9239"
         transform="matrix(2.8346458,0,0,-2.8346457,-698.20223,237.47634)"><path
           d="m -16.70349,-100.93902 h 677.3333 v 381 h -677.3333 z"
           id="path9237"
           style="stroke-width:0.352778" /></g></clipPath><clipPath
       clipPathUnits="userSpaceOnUse"
       id="clipPath9241"><g
         id="g9245"
         transform="matrix(2.8346458,0,0,-2.8346457,-663.89412,237.47634)"><path
           d="m -16.70349,-100.93902 h 677.3333 v 381 h -677.3333 z"
           id="path9243"
           style="stroke-width:0.352778" /></g></clipPath><clipPath
       clipPathUnits="userSpaceOnUse"
       id="clipPath9247"><g
         id="g9251"
         transform="matrix(2.8346458,0,0,-2.8346457,-681.04823,263.70454)"><path
           d="m -16.70349,-100.93902 h 677.3333 v 381 h -677.3333 z"
           id="path9249"
           style="stroke-width:0.352778" /></g></clipPath><clipPath
       clipPathUnits="userSpaceOnUse"
       id="clipPath9253"><g
         id="g9257"
         transform="matrix(2.8346458,0,0,-2.8346457,-646.74012,263.70454)"><path
           d="m -16.70349,-100.93902 h 677.3333 v 381 h -677.3333 z"
           id="path9255"
           style="stroke-width:0.352778" /></g></clipPath><clipPath
       clipPathUnits="userSpaceOnUse"
       id="clipPath9259"><g
         id="g9263"
         transform="matrix(2.8346458,0,0,-2.8346457,-763.38803,184.15514)"><path
           d="m -16.70349,-100.93902 h 677.3333 v 381 h -677.3333 z"
           id="path9261"
           style="stroke-width:0.352778" /></g></clipPath><clipPath
       clipPathUnits="userSpaceOnUse"
       id="clipPath9265"><g
         id="g9269"
         transform="matrix(2.8346458,0,0,-2.8346457,-732.51032,186.54604)"><path
           d="m -16.70349,-100.93902 h 677.3333 v 381 h -677.3333 z"
           id="path9267"
           style="stroke-width:0.352778" /></g></clipPath><clipPath
       clipPathUnits="userSpaceOnUse"
       id="clipPath9271"><g
         id="g9275"
         transform="matrix(2.8346458,0,0,-2.8346457,-715.35632,212.77424)"><path
           d="m -16.70349,-100.93902 h 677.3333 v 381 h -677.3333 z"
           id="path9273"
           style="stroke-width:0.352778" /></g></clipPath><clipPath
       clipPathUnits="userSpaceOnUse"
       id="clipPath9277"><g
         id="g9281"
         transform="matrix(2.8346458,0,0,-2.8346457,-748.68713,173.26034)"><path
           d="m -16.70349,-100.93902 h 677.3333 v 381 h -677.3333 z"
           id="path9279"
           style="stroke-width:0.352778" /></g></clipPath><clipPath
       clipPathUnits="userSpaceOnUse"
       id="clipPath9283"><g
         id="g9287"
         transform="matrix(2.8346458,0,0,-2.8346457,-809.74002,275.61504)"><path
           d="m -16.70349,-100.93902 h 677.3333 v 381 h -677.3333 z"
           id="path9285"
           style="stroke-width:0.352778" /></g></clipPath><clipPath
       clipPathUnits="userSpaceOnUse"
       id="clipPath9289"><g
         id="g9293"
         transform="matrix(2.8346458,0,0,-2.8346457,-793.42462,269.76674)"><path
           d="m -16.70349,-100.93902 h 677.3333 v 381 h -677.3333 z"
           id="path9291"
           style="stroke-width:0.352778" /></g></clipPath><clipPath
       clipPathUnits="userSpaceOnUse"
       id="clipPath9295"><g
         id="g9299"
         transform="matrix(2.8346458,0,0,-2.8346457,-798.57852,285.85885)"><path
           d="m -16.70349,-100.93902 h 677.3333 v 381 h -677.3333 z"
           id="path9297"
           style="stroke-width:0.352778" /></g></clipPath><clipPath
       clipPathUnits="userSpaceOnUse"
       id="clipPath9301"><g
         id="g9305"
         transform="matrix(2.8346458,0,0,-2.8346457,-818.40153,213.53724)"><path
           d="m -16.70349,-100.93902 h 677.3333 v 381 h -677.3333 z"
           id="path9303"
           style="stroke-width:0.352778" /></g></clipPath><clipPath
       clipPathUnits="userSpaceOnUse"
       id="clipPath9307"><g
         id="g9311"
         transform="matrix(2.8346458,0,0,-2.8346457,-816.40311,300.64654)"><path
           d="m -16.70349,-100.93902 h 677.3333 v 381 h -677.3333 z"
           id="path9309"
           style="stroke-width:0.352778" /></g></clipPath><clipPath
       clipPathUnits="userSpaceOnUse"
       id="clipPath9313"><g
         id="g9317"
         transform="matrix(2.8346458,0,0,-2.8346457,-815.16411,278.22394)"><path
           d="m -16.70349,-100.93902 h 677.3333 v 381 h -677.3333 z"
           id="path9315"
           style="stroke-width:0.352778" /></g></clipPath><clipPath
       clipPathUnits="userSpaceOnUse"
       id="clipPath9319"><g
         id="g9323"
         transform="matrix(2.8346458,0,0,-2.8346457,47.348478,793.87364)"><path
           d="m -16.70349,-100.93902 h 677.3333 v 381 h -677.3333 z"
           id="path9321"
           style="stroke-width:0.352778" /></g></clipPath><clipPath
       clipPathUnits="userSpaceOnUse"
       id="clipPath9325"><g
         id="g9329"
         transform="matrix(2.8346458,0,0,-2.8346457,-897.30622,275.50704)"><path
           d="m -16.70349,-100.93902 h 677.3333 v 381 h -677.3333 z"
           id="path9327"
           style="stroke-width:0.352778" /></g></clipPath><clipPath
       clipPathUnits="userSpaceOnUse"
       id="clipPath9331"><g
         id="g9335"
         transform="matrix(2.8346458,0,0,-2.8346457,-901.50283,285.85885)"><path
           d="m -16.70349,-100.93902 h 677.3333 v 381 h -677.3333 z"
           id="path9333"
           style="stroke-width:0.352778" /></g></clipPath><clipPath
       clipPathUnits="userSpaceOnUse"
       id="clipPath9337"><g
         id="g9341"
         transform="matrix(2.8346458,0,0,-2.8346457,-911.52172,271.45294)"><path
           d="m -16.70349,-100.93902 h 677.3333 v 381 h -677.3333 z"
           id="path9339"
           style="stroke-width:0.352778" /></g></clipPath><clipPath
       clipPathUnits="userSpaceOnUse"
       id="clipPath9343"><g
         id="g9347"
         transform="matrix(2.8346458,0,0,-2.8346457,-959.92712,255.40344)"><path
           d="m -16.70349,-100.93902 h 677.3333 v 381 h -677.3333 z"
           id="path9345"
           style="stroke-width:0.352778" /></g></clipPath><clipPath
       clipPathUnits="userSpaceOnUse"
       id="clipPath9349"><g
         id="g9353"
         transform="matrix(2.8346458,0,0,-2.8346457,-952.80451,266.05684)"><path
           d="m -16.70349,-100.93902 h 677.3333 v 381 h -677.3333 z"
           id="path9351"
           style="stroke-width:0.352778" /></g></clipPath><clipPath
       clipPathUnits="userSpaceOnUse"
       id="clipPath9355"><g
         id="g9359"
         transform="matrix(2.8346458,0,0,-2.8346457,-948.36372,278.02194)"><path
           d="m -16.70349,-100.93902 h 677.3333 v 381 h -677.3333 z"
           id="path9357"
           style="stroke-width:0.352778" /></g></clipPath><clipPath
       clipPathUnits="userSpaceOnUse"
       id="clipPath9361"><g
         id="g9365"
         transform="matrix(2.8346458,0,0,-2.8346457,-909.43562,306.01715)"><path
           d="m -16.70349,-100.93902 h 677.3333 v 381 h -677.3333 z"
           id="path9363"
           style="stroke-width:0.352778" /></g></clipPath><clipPath
       clipPathUnits="userSpaceOnUse"
       id="clipPath9367"><g
         id="g9371"
         transform="matrix(2.8346458,0,0,-2.8346457,-781.99572,198.25494)"><path
           d="m -16.70349,-100.93902 h 677.3333 v 381 h -677.3333 z"
           id="path9369"
           style="stroke-width:0.352778" /></g></clipPath><clipPath
       clipPathUnits="userSpaceOnUse"
       id="clipPath9373"><g
         id="g9377"
         transform="matrix(2.8346458,0,0,-2.8346457,-843.22833,146.69244)"><path
           d="m -16.70349,-100.93902 h 677.3333 v 381 h -677.3333 z"
           id="path9375"
           style="stroke-width:0.352778" /></g></clipPath><clipPath
       clipPathUnits="userSpaceOnUse"
       id="clipPath9379"><g
         id="g9383"
         transform="matrix(2.8346458,0,0,-2.8346457,-766.28113,89.084239)"><path
           d="m -16.70349,-100.93902 h 677.3333 v 381 h -677.3333 z"
           id="path9381"
           style="stroke-width:0.352778" /></g></clipPath><clipPath
       clipPathUnits="userSpaceOnUse"
       id="clipPath9385"><g
         id="g9389"
         transform="matrix(2.8346458,0,0,-2.8346457,-848.36493,189.80904)"><path
           d="m -16.70349,-100.93902 h 677.3333 v 381 h -677.3333 z"
           id="path9387"
           style="stroke-width:0.352778" /></g></clipPath><clipPath
       clipPathUnits="userSpaceOnUse"
       id="clipPath9391"><g
         id="g9395"
         transform="matrix(2.8346458,0,0,-2.8346457,-856.41944,438.99293)"><path
           d="m -16.70349,-100.93902 h 677.3333 v 381 h -677.3333 z"
           id="path9393"
           style="stroke-width:0.352778" /></g></clipPath><clipPath
       clipPathUnits="userSpaceOnUse"
       id="clipPath9397"><g
         id="g9401"
         transform="matrix(2.8346458,0,0,-2.8346457,-690.14402,328.49424)"><path
           d="m -16.70349,-100.93902 h 677.3333 v 381 h -677.3333 z"
           id="path9399"
           style="stroke-width:0.352778" /></g></clipPath><clipPath
       clipPathUnits="userSpaceOnUse"
       id="clipPath9403"><g
         id="g9407"
         transform="matrix(2.8346458,0,0,-2.8346457,-1066.4867,549.10885)"><path
           d="m -16.70349,-100.93902 h 677.3333 v 381 h -677.3333 z"
           id="path9405"
           style="stroke-width:0.352778" /></g></clipPath><clipPath
       clipPathUnits="userSpaceOnUse"
       id="clipPath9409"><g
         id="g9413"
         transform="matrix(2.8346458,0,0,-2.8346457,-752.97473,312.66833)"><path
           d="m -16.70349,-100.93902 h 677.3333 v 381 h -677.3333 z"
           id="path9411"
           style="stroke-width:0.352778" /></g></clipPath><clipPath
       clipPathUnits="userSpaceOnUse"
       id="clipPath9415"><g
         id="g9419"
         transform="matrix(2.8346458,0,0,-2.8346457,-808.99283,297.06074)"><path
           d="m -16.70349,-100.93902 h 677.3333 v 381 h -677.3333 z"
           id="path9417"
           style="stroke-width:0.352778" /></g></clipPath><clipPath
       clipPathUnits="userSpaceOnUse"
       id="clipPath9427"><g
         id="g9431"
         transform="matrix(2.8346458,0,0,-2.8346457,-1087.3192,567.78624)"><path
           d="m -16.70349,-100.93902 h 677.3333 v 381 h -677.3333 z"
           id="path9429"
           style="stroke-width:0.352778" /></g></clipPath><clipPath
       clipPathUnits="userSpaceOnUse"
       id="clipPath9433"><g
         id="g9437"
         transform="matrix(2.8346458,0,0,-2.8346457,-1055.0668,599.41414)"><path
           d="m -16.70349,-100.93902 h 677.3333 v 381 h -677.3333 z"
           id="path9435"
           style="stroke-width:0.352778" /></g></clipPath><clipPath
       clipPathUnits="userSpaceOnUse"
       id="clipPath9439"><g
         id="g9443"
         transform="matrix(2.8346458,0,0,-2.8346457,-1090.9971,574.35003)"><path
           d="m -16.70349,-100.93902 h 677.3333 v 381 h -677.3333 z"
           id="path9441"
           style="stroke-width:0.352778" /></g></clipPath><clipPath
       clipPathUnits="userSpaceOnUse"
       id="clipPath9445"><g
         id="g9449"
         transform="matrix(2.8346458,0,0,-2.8346457,-1022.7418,636.48793)"><path
           d="m -16.70349,-100.93902 h 677.3333 v 381 h -677.3333 z"
           id="path9447"
           style="stroke-width:0.352778" /></g></clipPath><clipPath
       clipPathUnits="userSpaceOnUse"
       id="clipPath9451"><g
         id="g9455"
         transform="matrix(2.8346458,0,0,-2.8346457,-1120.1563,576.59213)"><path
           d="m -16.70349,-100.93902 h 677.3333 v 381 h -677.3333 z"
           id="path9453"
           style="stroke-width:0.352778" /></g></clipPath><clipPath
       clipPathUnits="userSpaceOnUse"
       id="clipPath9457"><g
         id="g9461"
         transform="matrix(2.8346458,0,0,-2.8346457,-1111.6989,577.29163)"><path
           d="m -16.70349,-100.93902 h 677.3333 v 381 h -677.3333 z"
           id="path9459"
           style="stroke-width:0.352778" /></g></clipPath><clipPath
       clipPathUnits="userSpaceOnUse"
       id="clipPath9463"><g
         id="g9467"
         transform="matrix(2.8346458,0,0,-2.8346457,-1103.2406,577.99133)"><path
           d="m -16.70349,-100.93902 h 677.3333 v 381 h -677.3333 z"
           id="path9465"
           style="stroke-width:0.352778" /></g></clipPath><clipPath
       clipPathUnits="userSpaceOnUse"
       id="clipPath9469"><g
         id="g9473"
         transform="matrix(2.8346458,0,0,-2.8346457,-1094.7832,578.69053)"><path
           d="m -16.70349,-100.93902 h 677.3333 v 381 h -677.3333 z"
           id="path9471"
           style="stroke-width:0.352778" /></g></clipPath><clipPath
       clipPathUnits="userSpaceOnUse"
       id="clipPath9475"><g
         id="g9479"
         transform="matrix(2.8346458,0,0,-2.8346457,-1144.9257,579.60785)"><path
           d="m -16.70349,-100.93902 h 677.3333 v 381 h -677.3333 z"
           id="path9477"
           style="stroke-width:0.352778" /></g></clipPath><clipPath
       clipPathUnits="userSpaceOnUse"
       id="clipPath9481"><g
         id="g9485"
         transform="matrix(2.8346458,0,0,-2.8346457,-1165.8641,593.00645)"><path
           d="m -16.70349,-100.93902 h 677.3333 v 381 h -677.3333 z"
           id="path9483"
           style="stroke-width:0.352778" /></g></clipPath><clipPath
       clipPathUnits="userSpaceOnUse"
       id="clipPath9487"><g
         id="g9491"
         transform="matrix(2.8346458,0,0,-2.8346457,-1170.5115,597.53273)"><path
           d="m -16.70349,-100.93902 h 677.3333 v 381 h -677.3333 z"
           id="path9489"
           style="stroke-width:0.352778" /></g></clipPath><clipPath
       clipPathUnits="userSpaceOnUse"
       id="clipPath9493"><g
         id="g9497"
         transform="matrix(2.8346458,0,0,-2.8346457,-1169.69,597.29193)"><path
           d="m -16.70349,-100.93902 h 677.3333 v 381 h -677.3333 z"
           id="path9495"
           style="stroke-width:0.352778" /></g></clipPath><clipPath
       clipPathUnits="userSpaceOnUse"
       id="clipPath9499"><g
         id="g9503"
         transform="matrix(2.8346458,0,0,-2.8346457,-1169.6878,597.29893)"><path
           d="m -16.70349,-100.93902 h 677.3333 v 381 h -677.3333 z"
           id="path9501"
           style="stroke-width:0.352778" /></g></clipPath><clipPath
       clipPathUnits="userSpaceOnUse"
       id="clipPath9529"><g
         id="g9533"
         transform="matrix(2.8346458,0,0,-2.8346457,-853.82942,661.39095)"><path
           d="m -16.70349,-100.93902 h 677.3333 v 381 h -677.3333 z"
           id="path9531"
           style="stroke-width:0.352778" /></g></clipPath><clipPath
       clipPathUnits="userSpaceOnUse"
       id="clipPath9535"><g
         id="g9539"
         transform="matrix(2.8346458,0,0,-2.8346457,-897.48852,664.99985)"><path
           d="m -16.70349,-100.93902 h 677.3333 v 381 h -677.3333 z"
           id="path9537"
           style="stroke-width:0.352778" /></g></clipPath><clipPath
       clipPathUnits="userSpaceOnUse"
       id="clipPath9541"><g
         id="g9545"
         transform="matrix(2.8346458,0,0,-2.8346457,-805.28733,669.33263)"><path
           d="m -16.70349,-100.93902 h 677.3333 v 381 h -677.3333 z"
           id="path9543"
           style="stroke-width:0.352778" /></g></clipPath><clipPath
       clipPathUnits="userSpaceOnUse"
       id="clipPath9547"><g
         id="g9551"
         transform="matrix(2.8346458,0,0,-2.8346457,-918.51901,685.32244)"><path
           d="m -16.70349,-100.93902 h 677.3333 v 381 h -677.3333 z"
           id="path9549"
           style="stroke-width:0.352778" /></g></clipPath><clipPath
       clipPathUnits="userSpaceOnUse"
       id="clipPath9553"><g
         id="g9557"
         transform="matrix(2.8346458,0,0,-2.8346457,-911.55812,680.46763)"><path
           d="m -16.70349,-100.93902 h 677.3333 v 381 h -677.3333 z"
           id="path9555"
           style="stroke-width:0.352778" /></g></clipPath><clipPath
       clipPathUnits="userSpaceOnUse"
       id="clipPath9559"><g
         id="g9563"
         transform="matrix(2.8346458,0,0,-2.8346457,-904.59753,675.61265)"><path
           d="m -16.70349,-100.93902 h 677.3333 v 381 h -677.3333 z"
           id="path9561"
           style="stroke-width:0.352778" /></g></clipPath><clipPath
       clipPathUnits="userSpaceOnUse"
       id="clipPath9565"><g
         id="g9569"
         transform="matrix(2.8346458,0,0,-2.8346457,-897.63672,670.75784)"><path
           d="m -16.70349,-100.93902 h 677.3333 v 381 h -677.3333 z"
           id="path9567"
           style="stroke-width:0.352778" /></g></clipPath><clipPath
       clipPathUnits="userSpaceOnUse"
       id="clipPath9571"><g
         id="g9575"
         transform="matrix(2.8346458,0,0,-2.8346457,-935.67463,703.44175)"><path
           d="m -16.70349,-100.93902 h 677.3333 v 381 h -677.3333 z"
           id="path9573"
           style="stroke-width:0.352778" /></g></clipPath><clipPath
       clipPathUnits="userSpaceOnUse"
       id="clipPath9577"><g
         id="g9581"
         transform="matrix(2.8346458,0,0,-2.8346457,-943.25773,727.11555)"><path
           d="m -16.70349,-100.93902 h 677.3333 v 381 h -677.3333 z"
           id="path9579"
           style="stroke-width:0.352778" /></g></clipPath><clipPath
       clipPathUnits="userSpaceOnUse"
       id="clipPath9583"><g
         id="g9587"
         transform="matrix(2.8346458,0,0,-2.8346457,-943.95063,733.56565)"><path
           d="m -16.70349,-100.93902 h 677.3333 v 381 h -677.3333 z"
           id="path9585"
           style="stroke-width:0.352778" /></g></clipPath><clipPath
       clipPathUnits="userSpaceOnUse"
       id="clipPath9589"><g
         id="g9593"
         transform="matrix(2.8346458,0,0,-2.8346457,-943.45823,732.85163)"><path
           d="m -16.70349,-100.93902 h 677.3333 v 381 h -677.3333 z"
           id="path9591"
           style="stroke-width:0.352778" /></g></clipPath><clipPath
       clipPathUnits="userSpaceOnUse"
       id="clipPath9595"><g
         id="g9599"
         transform="matrix(2.8346458,0,0,-2.8346457,-943.46503,732.85985)"><path
           d="m -16.70349,-100.93902 h 677.3333 v 381 h -677.3333 z"
           id="path9597"
           style="stroke-width:0.352778" /></g></clipPath></defs><g
     id="layer10"
     transform="translate(-100.52811,-43.209229)"><g
       id="g11892"
       transform="matrix(-0.13894628,0,0,0.14501883,178.31605,47.167538)"><g
         id="g11685"
         transform="translate(171.44816,-44.901041)"><g
           id="g9625"
           transform="translate(-53.918077,42.407476)"><g
             id="g4186"
             transform="matrix(0.35277776,0,0,-0.35277778,332.83348,258.53667)"
             clip-path="url(#clipPath9595)"><path
               d="m 0,0 c -5.448,-0.513 -153.724,34.965 -158.391,39.78 -0.572,0.535 2.356,14.012 6.659,32.389 l 0.084,0.362 c 2.686,11.651 45.987,105.864 45.987,105.864 L -9.56,151.494 -53.323,64.085 c 0,0 18.079,-13.08 33.578,-25.498 0.017,-0.026 0.038,-0.031 0.033,-0.052 C -10.139,30.91 -1.888,24.059 -0.138,21.841 4.394,16.05 5.438,0.47 0,0"
               style="fill:#b06949;fill-opacity:1;fill-rule:nonzero;stroke:none"
               id="path4188" /></g><g
             id="g4190"
             transform="matrix(0.35277776,0,0,-0.35277778,332.83108,258.53377)"
             clip-path="url(#clipPath9589)"><path
               d="m 0,0 c -5.434,-0.518 -153.708,34.964 -158.394,39.769 -0.567,0.546 2.371,14.006 6.667,32.396 l 0.088,0.349 c 0.986,4.341 7.658,20.175 15.597,38.321 15.816,-4.271 72.51,-19.648 93.101,-26.041 L -53.305,64.076 c 0,0 18.075,-13.09 33.576,-25.5 0,-0.021 0.022,-0.021 0.022,-0.043 C -10.136,30.907 -1.873,24.047 -0.13,21.842 4.403,16.033 5.455,0.452 0,0"
               style="fill:#ffffff;fill-opacity:1;fill-rule:nonzero;stroke:none"
               id="path4192" /></g><g
             id="g4194"
             transform="matrix(0.35277776,0,0,-0.35277778,333.00479,258.78566)"
             clip-path="url(#clipPath9583)"><path
               d="m 0,0 c -5.603,-0.481 -153.982,35.406 -158.777,40.35 -1.828,1.866 1.48,25.282 9.63,50.089 l 95.634,-23.25 c 0,0 48.814,-38.723 53.49,-44.711 C 4.621,16.498 5.602,0.481 0,0"
               style="fill:#4f1781;fill-opacity:1;fill-rule:nonzero;stroke:none"
               id="path4196" /></g><g
             id="g4198"
             transform="matrix(0.35277776,0,0,-0.35277778,332.76035,256.51021)"
             clip-path="url(#clipPath9577)"><path
               d="m 0,0 c -24.725,6.626 -125.076,31.019 -150.02,35.69 -0.203,0.038 -0.236,-0.098 -0.037,-0.156 C -125.694,28.431 -25.149,4.852 -0.097,-0.408 0.431,-0.519 0.522,-0.139 0,0"
               style="fill:#1a2e35;fill-opacity:1;fill-rule:nonzero;stroke:none"
               id="path4200" /></g><g
             id="g4202"
             transform="matrix(0.35277776,0,0,-0.35277778,330.0852,248.15862)"
             clip-path="url(#clipPath9571)"><path
               d="m 0,0 c -5.841,1.667 -12.284,0.26 -16.349,-2.475 -3.906,-2.628 -7.698,-6.735 -8.77,-11.936 -0.031,-0.149 0.241,-0.219 0.3,-0.071 3.775,9.389 14.696,15.798 24.744,14.17 C 0.128,-0.344 0.2,-0.057 0,0"
               style="fill:#1a2e35;fill-opacity:1;fill-rule:nonzero;stroke:none"
               id="path4204" /></g><g
             id="g4206"
             transform="matrix(0.35277776,0,0,-0.35277778,316.66627,236.62846)"
             clip-path="url(#clipPath9565)"><path
               d="m 0,0 c -9.922,2.546 -22.314,1.824 -30.469,-4.822 -0.317,-0.258 0.054,-0.703 0.386,-0.622 10.122,2.462 19.513,3.85 29.958,4.177 C 0.612,-1.244 0.711,-0.183 0,0"
               style="fill:#1a2e35;fill-opacity:1;fill-rule:nonzero;stroke:none"
               id="path4208" /></g><g
             id="g4210"
             transform="matrix(0.35277776,0,0,-0.35277778,319.12189,238.34113)"
             clip-path="url(#clipPath9559)"><path
               d="m 0,0 c -9.922,2.546 -22.314,1.824 -30.47,-4.822 -0.316,-0.258 0.055,-0.703 0.387,-0.622 10.122,2.463 19.513,3.85 29.958,4.177 C 0.611,-1.244 0.71,-0.183 0,0"
               style="fill:#1a2e35;fill-opacity:1;fill-rule:nonzero;stroke:none"
               id="path4212" /></g><g
             id="g4214"
             transform="matrix(0.35277776,0,0,-0.35277778,321.57743,240.05386)"
             clip-path="url(#clipPath9553)"><path
               d="m 0,0 c -9.922,2.546 -22.314,1.823 -30.47,-4.822 -0.316,-0.258 0.055,-0.703 0.388,-0.622 10.121,2.463 19.512,3.85 29.958,4.177 C 0.611,-1.244 0.711,-0.182 0,0"
               style="fill:#1a2e35;fill-opacity:1;fill-rule:nonzero;stroke:none"
               id="path4216" /></g><g
             id="g4218"
             transform="matrix(0.35277776,0,0,-0.35277778,324.03308,241.76653)"
             clip-path="url(#clipPath9547)"><path
               d="m 0,0 c -9.922,2.546 -22.314,1.823 -30.47,-4.822 -0.316,-0.258 0.055,-0.703 0.387,-0.622 10.122,2.463 19.513,3.85 29.958,4.177 C 0.611,-1.243 0.71,-0.183 0,0"
               style="fill:#1a2e35;fill-opacity:1;fill-rule:nonzero;stroke:none"
               id="path4220" /></g><g
             id="g4222"
             transform="matrix(0.35277776,0,0,-0.35277778,284.08746,236.12568)"
             clip-path="url(#clipPath9541)"><path
               d="M 0,0 C -11.177,2.669 -15.344,-14.697 -4.148,-17.371 7.029,-20.04 11.196,-2.673 0,0"
               style="fill:#1a2e35;fill-opacity:1;fill-rule:nonzero;stroke:none"
               id="path4224" /></g><g
             id="g4226"
             transform="matrix(0.35277776,0,0,-0.35277778,316.61399,234.59717)"
             clip-path="url(#clipPath9535)"><path
               d="m 0,0 c -4.031,-1.666 -8.119,-3.126 -12.088,-4.942 2.978,4.531 5.745,9.167 9.178,13.395 1.638,2.017 3.359,4.059 5.261,5.836 2.958,2.766 14.742,8.723 13.113,-2.348 C 14.566,5.837 4.805,1.988 0,0 M 17.332,18.205 C 13.303,23.602 5.967,21.054 1.81,17.467 -4.922,11.657 -10.761,2.644 -13.393,-5.803 c -0.064,-0.208 0.076,-0.332 0.242,-0.36 0.04,-0.765 0.738,-1.567 1.596,-1.236 8.274,3.188 17.515,5.571 24.563,11.204 4.116,3.288 8.134,9.295 4.324,14.4"
               style="fill:#1a2e35;fill-opacity:1;fill-rule:nonzero;stroke:none"
               id="path4228" /></g><g
             id="g4230"
             transform="matrix(0.35277776,0,0,-0.35277778,301.21203,233.32403)"
             clip-path="url(#clipPath9529)"><path
               d="M 0,0 C -4.671,10.169 8.311,7.757 11.927,5.933 14.251,4.761 16.475,3.285 18.614,1.808 23.095,-1.287 27.052,-4.961 31.182,-8.473 26.863,-7.844 22.53,-7.591 18.193,-7.122 13.023,-6.563 2.574,-5.607 0,0 m 4.64,-7.12 c 8.345,-3.428 17.884,-3.123 26.72,-3.861 0.917,-0.077 1.361,0.888 1.185,1.634 0.151,0.073 0.252,0.232 0.131,0.413 C 27.78,-1.564 19.645,5.448 11.554,9.135 6.557,11.411 -1.199,11.799 -3.551,5.488 -5.776,-0.481 -0.232,-5.119 4.64,-7.12"
               style="fill:#1a2e35;fill-opacity:1;fill-rule:nonzero;stroke:none"
               id="path4232" /></g></g><g
           id="g10579"
           transform="translate(-24.838665,64.217035)"><g
             id="g4250"
             transform="matrix(0.35277776,0,0,-0.35277778,412.63985,210.71379)"
             clip-path="url(#clipPath9499)"><path
               d="m 0,0 c -3.869,-3.87 -140.706,-71.104 -147.371,-70.371 -0.781,0.048 -7.121,12.295 -15.526,29.195 l -0.167,0.332 c -5.362,10.687 -54.041,100.59 -54.041,100.59 l 85.134,43.102 50.03,-87.492 c 0,0 22.266,1.455 42.123,1.774 0.03,-0.01 0.049,0 0.059,-0.019 12.237,0.231 22.961,0.216 25.723,-0.375 C -6.851,15.165 3.888,3.83 0,0"
               style="fill:#b06949;fill-opacity:1;fill-rule:nonzero;stroke:none"
               id="path4252" /></g><g
             id="g4254"
             transform="matrix(0.35277776,0,0,-0.35277778,412.64063,210.71132)"
             clip-path="url(#clipPath9493)"><path
               d="m 0,0 c -3.873,-3.868 -140.706,-71.111 -147.383,-70.373 -0.774,0.035 -7.115,12.294 -15.518,29.18 l -0.165,0.333 c -0.373,0.742 -0.757,1.502 -1.16,2.252 -0.265,0.553 -0.548,1.094 -0.851,1.625 -0.406,0.798 -0.841,1.605 -1.276,2.412 -3.708,7.029 -9.796,18.402 -16.5,30.856 l 86.806,43.75 14.108,-24.684 c 0,0 22.262,1.446 42.122,1.775 0.03,-0.009 0.049,0.002 0.06,-0.017 12.233,0.222 22.964,0.215 25.713,-0.377 C -6.862,15.152 3.894,3.83 0,0"
               style="fill:#ffffff;fill-opacity:1;fill-rule:nonzero;stroke:none"
               id="path4256" /></g><g
             id="g4258"
             transform="matrix(0.35277776,0,0,-0.35277778,412.93043,210.79627)"
             clip-path="url(#clipPath9487)"><path
               d="m 0,0 c -4.009,-3.944 -141.185,-70.929 -148.031,-70.178 -2.598,0.271 -14.984,20.417 -24.526,44.723 l 88.489,43.08 c 0,0 62.295,1.304 69.715,-0.326 C -6.962,15.655 4.009,3.943 0,0"
               style="fill:#4f1781;fill-opacity:1;fill-rule:nonzero;stroke:none"
               id="path4260" /></g><g
             id="g4262"
             transform="matrix(0.35277776,0,0,-0.35277778,411.29093,209.1995)"
             clip-path="url(#clipPath9481)"><path
               d="m 0,0 c -23.27,-10.664 -116.122,-55.873 -138.314,-68.183 -0.181,-0.099 -0.119,-0.226 0.07,-0.144 23.296,10.066 115.779,56.026 138.429,67.951 C 0.663,-0.124 0.491,0.226 0,0"
               style="fill:#1a2e35;fill-opacity:1;fill-rule:nonzero;stroke:none"
               id="path4264" /></g><g
             id="g4266"
             transform="matrix(0.35277776,0,0,-0.35277778,403.90433,204.47277)"
             clip-path="url(#clipPath9475)"><path
               d="m 0,0 c -5.562,-2.441 -9.627,-7.633 -11.014,-12.333 -1.333,-4.515 -1.634,-10.097 0.856,-14.786 0.071,-0.135 0.325,-0.015 0.277,0.136 -3.08,9.64 1.245,21.541 10.022,26.695 C 0.318,-0.183 0.19,0.084 0,0"
               style="fill:#1a2e35;fill-opacity:1;fill-rule:nonzero;stroke:none"
               id="path4268" /></g><g
             id="g4270"
             transform="matrix(0.35277776,0,0,-0.35277778,386.21517,204.14916)"
             clip-path="url(#clipPath9469)"><path
               d="m 0,0 c -9.267,-4.367 -18.35,-12.826 -20.394,-23.146 -0.079,-0.4 0.49,-0.507 0.695,-0.233 6.226,8.352 12.574,15.41 20.41,22.323 C 1.264,-0.568 0.663,0.312 0,0"
               style="fill:#1a2e35;fill-opacity:1;fill-rule:nonzero;stroke:none"
               id="path4272" /></g><g
             id="g4274"
             transform="matrix(0.35277776,0,0,-0.35277778,389.19876,203.9025)"
             clip-path="url(#clipPath9463)"><path
               d="m 0,0 c -9.266,-4.367 -18.35,-12.826 -20.394,-23.146 -0.079,-0.4 0.491,-0.506 0.695,-0.232 6.225,8.351 12.574,15.41 20.411,22.322 C 1.264,-0.568 0.664,0.313 0,0"
               style="fill:#1a2e35;fill-opacity:1;fill-rule:nonzero;stroke:none"
               id="path4276" /></g><g
             id="g4278"
             transform="matrix(0.35277776,0,0,-0.35277778,392.18266,203.65566)"
             clip-path="url(#clipPath9457)"><path
               d="m 0,0 c -9.267,-4.367 -18.351,-12.826 -20.395,-23.146 -0.079,-0.4 0.491,-0.506 0.696,-0.232 6.225,8.352 12.573,15.41 20.411,22.323 C 1.264,-0.569 0.663,0.313 0,0"
               style="fill:#1a2e35;fill-opacity:1;fill-rule:nonzero;stroke:none"
               id="path4280" /></g><g
             id="g4282"
             transform="matrix(0.35277776,0,0,-0.35277778,395.16624,203.40889)"
             clip-path="url(#clipPath9451)"><path
               d="m 0,0 c -9.266,-4.366 -18.35,-12.826 -20.394,-23.146 -0.079,-0.4 0.49,-0.506 0.695,-0.232 6.225,8.352 12.574,15.41 20.411,22.323 C 1.264,-0.568 0.663,0.312 0,0"
               style="fill:#1a2e35;fill-opacity:1;fill-rule:nonzero;stroke:none"
               id="path4284" /></g><g
             id="g4286"
             transform="matrix(0.35277776,0,0,-0.35277778,360.80057,224.5388)"
             clip-path="url(#clipPath9445)"><path
               d="M 0,0 C -10.312,-5.073 -2.446,-21.106 7.883,-16.026 18.194,-10.953 10.329,5.081 0,0"
               style="fill:#1a2e35;fill-opacity:1;fill-rule:nonzero;stroke:none"
               id="path4288" /></g><g
             id="g4290"
             transform="matrix(0.35277776,0,0,-0.35277778,384.87952,202.61793)"
             clip-path="url(#clipPath9439)"><path
               d="m 0,0 c -2.042,-3.855 -4.26,-7.586 -6.159,-11.515 -0.595,5.388 -1.421,10.724 -1.474,16.17 -0.024,2.598 0,5.268 0.331,7.85 0.515,4.017 5.792,16.121 11.598,6.554 C 7.497,13.785 2.433,4.595 0,0 m 1.74,25.075 c -6.546,1.588 -10.571,-5.053 -11.485,-10.467 -1.48,-8.768 -0.23,-19.435 3.13,-27.619 0.083,-0.201 0.27,-0.207 0.415,-0.123 0.519,-0.564 1.569,-0.737 2.018,0.065 4.34,7.733 9.938,15.462 11.775,24.295 1.072,5.158 0.337,12.347 -5.853,13.849"
               style="fill:#1a2e35;fill-opacity:1;fill-rule:nonzero;stroke:none"
               id="path4292" /></g><g
             id="g4294"
             transform="matrix(0.35277776,0,0,-0.35277778,372.20411,211.45999)"
             clip-path="url(#clipPath9433)"><path
               d="m 0,0 c -10.083,4.854 1.455,11.276 5.403,12.177 2.538,0.579 5.193,0.861 7.781,1.087 C 18.609,13.738 24,13.432 29.422,13.36 25.694,11.09 22.195,8.522 18.555,6.117 14.216,3.251 5.559,-2.677 0,0 m 8.115,-2.525 c 8.614,2.682 15.766,9 23.043,14.067 0.755,0.525 0.482,1.552 -0.13,2.014 0.07,0.153 0.047,0.339 -0.162,0.402 -8.471,2.554 -19.209,2.767 -27.793,0.447 -5.3,-1.433 -11.521,-6.081 -9.308,-12.442 2.094,-6.016 9.32,-6.054 14.35,-4.488"
               style="fill:#1a2e35;fill-opacity:1;fill-rule:nonzero;stroke:none"
               id="path4296" /></g></g><g
           id="g4298"
           transform="matrix(0.21043553,0.28314137,0.28314138,-0.21043555,269.24374,269.60627)"
           clip-path="url(#clipPath9427)"><path
             d="m 0,0 -102.655,-51.295 c 0,0 -80.125,162.906 -88.917,173.403 -11.719,13.993 -164.352,-5.77 -200.354,39.423 -37.231,46.737 -5.329,104.778 -5.329,104.778 l 116.185,0.072 c 0,0 0.344,-12.886 -6.354,-31.727 0,0 132.857,7.906 170.452,-28.638 C -88.115,177.965 0,0 0,0"
             style="fill:#1a2e35;fill-opacity:1;fill-rule:nonzero;stroke:none"
             id="path4300" /></g><g
           id="g4306"
           transform="matrix(0.35277776,0,0,-0.35277778,285.39468,104.79643)"
           clip-path="url(#clipPath9415)"><path
             d="m 0,0 c -1.18,-5.482 -2.193,-11 -3.566,-16.44 -0.631,-2.494 -1.249,-5.032 -2.104,-7.462 -0.72,-2.05 -1.837,-4.401 -4.163,-4.932 -2.682,-0.612 -3.531,1.674 -3.386,3.91 0.161,2.496 0.714,5.012 1.123,7.476 0.472,2.842 0.949,5.681 1.367,8.532 0.208,1.426 0.429,2.849 0.621,4.277 0.048,0.359 0.222,3.081 0.39,3.865 0.024,-0.064 0.068,-0.126 0.153,-0.111 0.031,0.005 0.062,0.011 0.094,0.016 0.073,0.013 0.152,0.065 0.16,0.146 0.021,0.215 0.017,0.259 -0.149,0.403 -0.072,0.063 -0.17,0.056 -0.248,0.01 -0.506,-0.3 -0.52,-1.009 -0.669,-1.536 -0.393,-1.39 -0.794,-2.778 -1.149,-4.18 -0.664,-2.62 -1.31,-5.247 -1.882,-7.888 -0.572,-2.639 -1.126,-5.283 -1.682,-7.926 -0.417,-1.976 -0.92,-4.06 -0.322,-6.057 0.652,-2.181 2.446,-3.23 4.385,-3.333 -0.088,-0.181 -0.194,-0.353 -0.269,-0.539 -0.219,-0.543 -0.374,-1.12 -0.557,-1.676 -0.188,-0.569 -0.356,-1.136 -0.499,-1.719 -0.068,-0.275 -0.107,-0.561 -0.129,-0.844 -0.024,-0.317 0.05,-0.622 0.021,-0.939 -0.046,-0.488 0.624,-0.765 0.853,-0.275 0.133,0.285 0.332,0.505 0.482,0.778 0.157,0.285 0.265,0.614 0.359,0.923 0.167,0.55 0.304,1.097 0.425,1.659 0.118,0.554 0.269,1.111 0.352,1.672 0.05,0.333 0.051,0.67 0.068,1.006 1.1,0.149 2.191,0.566 3.094,1.298 1.581,1.281 2.466,3.184 3.081,5.076 0.744,2.29 1.301,4.654 1.86,6.995 1.382,5.795 2.526,11.677 2.875,17.634 C 1.027,0.449 0.14,0.65 0,0"
             style="fill:#375a64;fill-opacity:1;fill-rule:nonzero;stroke:none"
             id="path4308" /></g><g
           id="g4310"
           transform="matrix(0.35277776,0,0,-0.35277778,265.63274,110.30244)"
           clip-path="url(#clipPath9409)"><path
             d="m 0,0 c -0.401,-2.714 -0.623,-5.45 -1.154,-8.145 -0.521,-2.638 -1.143,-5.278 -1.919,-7.852 -0.742,-2.462 -1.674,-4.952 -3.08,-7.119 -1.362,-2.102 -3.195,-3.937 -5.095,-5.552 -3.729,-3.168 -7.981,-5.731 -12.528,-7.537 -2.291,-0.91 -4.638,-1.697 -7.024,-2.317 -1.244,-0.323 -2.502,-0.584 -3.77,-0.79 -1.055,-0.172 -2.102,-0.246 -3.03,-0.811 -0.396,-0.241 -0.307,-0.875 0.093,-1.055 1.652,-0.745 3.924,-0.227 5.653,0.01 2.027,0.277 4.033,0.688 5.997,1.262 3.956,1.156 7.771,2.966 11.239,5.19 3.404,2.182 6.812,4.879 9.27,8.117 2.548,3.358 3.905,7.246 4.721,11.344 0.977,4.91 1.587,10.23 1.15,15.231 C 0.498,0.268 0.044,0.3 0,0"
             style="fill:#375a64;fill-opacity:1;fill-rule:nonzero;stroke:none"
             id="path4312" /></g><g
           id="g4314"
           transform="matrix(0.19692358,0.29269993,0.29269995,-0.1969236,266.81044,260.33686)"
           clip-path="url(#clipPath9403)"><path
             d="m 0,0 c -2.861,-0.85 -5.555,-2.263 -8.246,-3.494 -2.853,-1.304 -5.711,-2.603 -8.541,-3.954 -5.57,-2.66 -11.099,-5.394 -16.569,-8.251 -11.014,-5.752 -21.999,-11.565 -32.857,-17.608 -5.659,-3.149 -17.83,-9.853 -18.349,-10.52 -0.25,-0.32 0.147,-0.869 0.495,-0.716 11.321,4.962 22.363,10.481 33.427,15.974 11.046,5.484 22.081,11.014 32.849,17.03 2.982,1.666 5.916,3.415 8.877,5.117 3.1,1.782 6.421,3.388 9.252,5.618 C 0.61,-0.59 0.403,0.12 0,0"
             style="fill:#375a64;fill-opacity:1;fill-rule:nonzero;stroke:none"
             id="path4316" /></g><g
           id="g4318"
           transform="matrix(0.19692358,0.29269993,0.29269995,-0.1969236,257.27357,106.73715)"
           clip-path="url(#clipPath9397)"><path
             d="m 0,0 c 0.011,0.496 0.775,0.482 0.77,-0.015 -0.221,-25.229 3.677,-53.438 23.094,-71.533 21.292,-19.843 52.008,-22.21 79.65,-21.979 15.868,0.133 31.705,0.539 47.573,0.034 15.939,-0.507 32.037,-1.29 47.865,-3.31 6.388,-0.816 11.744,-3.116 16.253,-7.774 4.386,-4.529 7.536,-10.123 10.772,-15.484 7.981,-13.222 15.713,-26.593 23.192,-40.105 14.867,-26.858 28.614,-54.315 41.272,-82.283 1.572,-3.474 3.127,-6.955 4.668,-10.443 0.102,-0.23 -0.239,-0.425 -0.345,-0.193 -12.851,28.079 -26.747,55.675 -41.494,82.804 -7.376,13.569 -15.006,26.999 -22.885,40.282 -3.703,6.243 -7.289,12.633 -11.417,18.61 -3.648,5.281 -8.215,10.244 -14.538,12.16 -3.811,1.155 -7.877,1.356 -11.821,1.719 -4.052,0.372 -8.108,0.706 -12.166,1.002 -7.909,0.578 -15.829,1.01 -23.754,1.299 -15.997,0.582 -31.968,0.387 -47.967,0.097 -27.774,-0.502 -58.116,0.455 -81.143,18.134 -9.96,7.647 -17.141,18.129 -21.405,29.892 C 1.827,-35.093 0.275,-22.222 -0.015,-9.527 -0.088,-6.351 -0.074,-3.175 0,0"
             style="fill:#375a64;fill-opacity:1;fill-rule:nonzero;stroke:none"
             id="path4320" /></g><g
           id="g4322"
           transform="matrix(0.19692358,0.29269993,0.29269995,-0.1969236,257.67416,177.16576)"
           clip-path="url(#clipPath9391)"><path
             d="m 0,0 c 5.666,-0.1 11.33,-0.337 16.994,-0.527 4.714,-0.158 9.451,-0.11 14.062,-1.256 4.288,-1.066 7.695,-1.586 11.204,-6.381 4.381,-5.989 28.231,-52.065 38.247,-72.465 2.777,-5.657 5.52,-11.327 8.21,-17.025 2.779,-5.886 5.241,-11.917 8.009,-17.805 0.101,-0.216 -0.219,-0.397 -0.327,-0.181 -2.452,4.924 -5.184,9.714 -7.716,14.599 -2.535,4.889 -4.998,9.817 -7.459,14.744 -4.97,9.946 -9.936,19.895 -14.936,29.825 -4.957,9.844 -10.977,19.442 -16.007,29.248 -4.227,8.242 -9.993,19.491 -14.02,21.159 C 31.52,-4.101 23.802,-2.159 18.723,-1.804 12.478,-1.367 6.226,-0.985 -0.011,-0.448 -0.296,-0.423 -0.291,0.005 0,0"
             style="fill:#375a64;fill-opacity:1;fill-rule:nonzero;stroke:none"
             id="path4324" /></g><g
           id="g4326"
           transform="matrix(0.35277776,0,0,-0.35277778,299.28428,66.960411)"
           clip-path="url(#clipPath9385)"><path
             d="m 0,0 c -0.013,-0.531 -0.402,-1.055 -0.956,-1.094 -1.269,-0.012 -2.791,-0.004 -4.5,-0.003 -3.335,10.711 -7.126,19.296 -6.202,15.981 1.338,-4.799 2.111,-11.629 1.781,-15.963 -1.982,0.015 -6.575,0.094 -8.874,0.134 -2.29,18.629 -5.875,32.564 -5.87,28.335 0.022,-17.058 -1.337,-22.453 -2.894,-28.209 -21.416,0.386 -49.485,1.199 -69.764,2.22 -1.681,10.325 -3.015,21.469 -3.419,20.722 -3.135,-5.574 -4.426,-13.862 -4.904,-20.282 -6.453,0.372 -11.604,0.787 -14.732,1.198 0,0 -0.953,8.651 -0.988,11.479 -0.126,7.202 1.146,14.496 3.65,21.285 2.606,6.993 6.721,13.052 10.655,19.282 0.031,0.052 0.062,0.104 0.097,0.135 -0.005,0.021 0.015,0.027 0.03,0.053 2.694,4.311 4.752,8.473 6.25,12.924 0.015,0.026 0.031,0.052 0.041,0.099 1.041,3.162 1.805,6.447 2.328,10.086 1.754,12.504 9.534,22.915 21.556,25.474 23.662,19.567 45.433,9.301 51.137,-7.242 0.548,-1.611 1.062,-3.452 1.548,-5.455 l 0.013,-0.063 c 1.815,-7.407 3.25,-16.961 4.669,-24.366 -0.016,-0.026 0.009,-0.041 0.009,-0.041 -0.016,-0.026 -0.012,-0.047 0.017,-0.083 l 0.004,-0.021 c 0.704,-3.528 1.381,-6.535 2.105,-8.583 C -12.43,44.533 -0.035,36.26 0,0"
             style="fill:#1a2e35;fill-opacity:1;fill-rule:nonzero;stroke:none"
             id="path4328" /></g><g
           id="g4330"
           transform="matrix(0.35277776,0,0,-0.35277778,270.32694,31.42694)"
           clip-path="url(#clipPath9379)"><path
             d="m 0,0 c -8.011,-3.542 -13.144,-9.139 -14.939,-18.233 -1.046,-5.301 -1.74,-10.494 -4.118,-15.408 -2.455,-5.071 -6.086,-9.127 -9.809,-13.173 -5.916,-6.427 -10.174,-12.931 -11.607,-21.876 -1.455,-9.086 -1.714,-19.9 0.817,-28.624 0.015,-0.051 0.089,-0.032 0.077,0.021 -1.94,8.806 -1.232,20.78 0.896,29.74 2.336,9.841 8.374,15.74 14.627,22.934 4.967,5.715 8.315,12.169 9.785,19.764 0.87,4.496 1.108,9.215 3.209,13.369 2.506,4.958 7.058,7.923 11.551,10.524 C 1.099,-0.608 0.609,0.269 0,0"
             style="fill:#1a2e35;fill-opacity:1;fill-rule:nonzero;stroke:none"
             id="path4332" /></g><g
           id="g4334"
           transform="matrix(0.35277776,0,0,-0.35277778,297.4722,51.749833)"
           clip-path="url(#clipPath9373)"><path
             d="m 0,0 c -5.006,7.472 -10.308,13.907 -12.938,22.952 -2.397,8.239 -3.515,16.858 -5.965,25.091 -0.04,0.133 -0.237,0.092 -0.201,-0.049 C -15.451,33.418 -15.498,18.948 -7.05,6.346 -2.46,-0.501 2.159,-6.87 4.957,-14.909 7.898,-23.356 8.838,-32.014 8.478,-41.073 8.466,-41.389 8.872,-41.397 8.919,-41.096 11.242,-26.547 7.861,-11.733 0,0"
             style="fill:#1a2e35;fill-opacity:1;fill-rule:nonzero;stroke:none"
             id="path4336" /></g><g
           id="g4338"
           transform="matrix(0.35277776,0,0,-0.35277778,275.8707,69.939937)"
           clip-path="url(#clipPath9367)"><path
             d="m 0,0 c 7.03,-42.173 35.203,-95.464 41.965,-98.733 11.963,-5.784 91.987,-12 95.159,-11.718 7.846,0.75 17.581,53.212 11.077,58.584 -1.496,1.224 -77.551,1.788 -80.787,2.755 C 63.452,-47.928 44.69,-20.868 25.245,6.674 11.592,26.013 -3.739,22.434 0,0"
             style="fill:#b06949;fill-opacity:1;fill-rule:nonzero;stroke:none"
             id="path4340" /></g><g
           id="g4342"
           transform="matrix(0.35277776,0,0,-0.35277778,320.82866,107.95605)"
           clip-path="url(#clipPath9361)"><path
             d="m 0,0 c 0.969,-0.422 14.706,-6.039 23.108,-7.95 6.269,-1.427 24.425,-5.049 26.681,1.697 1.544,4.6 -8.882,7.986 -16.201,10.545 -3.856,1.348 -8.725,5.017 -7.757,7.502 1.692,4.344 11.631,0.661 18.219,-2.669 C 56.791,2.686 73.959,-9.242 81.122,-2.55 83.825,-0.02 80.27,4.09 75.19,8.027 83.321,3.568 91.922,0.023 95.037,2.714 c 1.789,1.534 1.762,3.493 0.589,5.664 2.467,-0.645 4.599,-0.366 5.998,1.298 2.394,2.818 0.92,6.682 -2.105,10.557 0.889,0.145 1.666,0.647 2.227,1.656 4.917,8.546 -23.485,30.598 -32.959,32.263 C 40.912,59.08 11.804,54.987 11.804,54.987 1.51,45.726 -0.023,0.017 0,0"
             style="fill:#b06949;fill-opacity:1;fill-rule:nonzero;stroke:none"
             id="path4344" /></g><g
           id="g4346"
           transform="matrix(0.35277776,0,0,-0.35277778,334.56163,98.079962)"
           clip-path="url(#clipPath9355)"><path
             d="m 0,0 c 6.534,-0.635 13.11,-2.58 18.751,-5.986 6.674,-4.03 12.124,-9.752 18.341,-14.387 0.168,-0.126 -0.04,-0.389 -0.203,-0.256 -2.937,2.415 -6.138,4.54 -9.173,6.837 -2.961,2.24 -5.876,4.592 -8.988,6.62 C 13.025,-3.456 6.753,-0.979 -0.018,-0.113 -0.091,-0.104 -0.073,0.007 0,0"
             style="fill:#1a2e35;fill-opacity:1;fill-rule:nonzero;stroke:none"
             id="path4348" /></g><g
           id="g4350"
           transform="matrix(0.35277776,0,0,-0.35277778,336.12824,93.858941)"
           clip-path="url(#clipPath9349)"><path
             d="m 0,0 c 7.34,-1.553 14.861,-3.117 21.768,-6.143 7.558,-3.311 13.658,-9.072 19.649,-14.61 3.597,-3.326 7.125,-6.726 10.567,-10.212 0.144,-0.146 -0.048,-0.402 -0.203,-0.256 -6.085,5.726 -12.339,11.277 -18.763,16.622 C 26.975,-9.571 20.345,-5.841 12.843,-3.474 8.615,-2.14 4.294,-1.132 -0.02,-0.129 -0.101,-0.11 -0.083,0.018 0,0"
             style="fill:#1a2e35;fill-opacity:1;fill-rule:nonzero;stroke:none"
             id="path4352" /></g><g
           id="g4354"
           transform="matrix(0.35277776,0,0,-0.35277778,338.64094,90.100658)"
           clip-path="url(#clipPath9343)"><path
             d="m 0,0 c 7.104,-1.031 13.301,-1.906 19.737,-5.304 8.522,-4.499 16.957,-12.426 19.919,-15.238 3.271,-3.106 6.435,-6.318 9.551,-9.58 0.126,-0.132 -0.101,-0.356 -0.232,-0.225 -7.101,7.114 -14.696,13.82 -22.657,19.957 -3.805,2.932 -7.9,5.441 -12.43,7.086 C 9.409,-1.677 4.666,-0.885 -0.008,-0.048 -0.039,-0.043 -0.032,0.004 0,0"
             style="fill:#1a2e35;fill-opacity:1;fill-rule:nonzero;stroke:none"
             id="path4356" /></g><g
           id="g4358"
           transform="matrix(0.35277776,0,0,-0.35277778,321.56459,95.762565)"
           clip-path="url(#clipPath9337)"><path
             d="m 0,0 -0.043,-39.484 c 0,0 -66.532,2.717 -87.894,11.941 -11.487,4.96 -40.727,78.702 -44.724,102.317 -3.928,23.21 5.263,36.971 29.006,10.034 18.214,-20.662 44.954,-57.942 47.07,-58.976 2.116,-1.034 56.616,2.982 56.616,2.982 z"
             style="fill:#4f1781;fill-opacity:1;fill-rule:nonzero;stroke:none"
             id="path4360" /></g><g
           id="g4362"
           transform="matrix(0.35277776,0,0,-0.35277778,318.03015,100.84465)"
           clip-path="url(#clipPath9331)"><path
             d="m 0,0 c -1.407,0 -2.548,-1.141 -2.548,-2.548 0,-1.407 1.141,-2.548 2.548,-2.548 1.407,0 2.548,1.141 2.548,2.548 C 2.548,-1.141 1.407,0 0,0 m -34.308,0 c -1.407,0 -2.548,-1.141 -2.548,-2.548 0,-1.407 1.141,-2.548 2.548,-2.548 1.407,0 2.548,1.141 2.548,2.548 0,1.407 -1.141,2.548 -2.548,2.548 m -34.308,0 c -1.407,0 -2.548,-1.141 -2.548,-2.548 0,-1.407 1.141,-2.548 2.548,-2.548 1.407,0 2.548,1.141 2.548,2.548 0,1.407 -1.141,2.548 -2.548,2.548 m 0,50.93 c -1.407,0 -2.548,-1.14 -2.548,-2.547 0,-1.408 1.141,-2.549 2.548,-2.549 1.407,0 2.548,1.141 2.548,2.549 0,1.407 -1.141,2.547 -2.548,2.547 m -34.308,0 c -1.408,0 -2.548,-1.14 -2.548,-2.547 0,-1.408 1.14,-2.549 2.548,-2.549 1.407,0 2.548,1.141 2.548,2.549 0,1.407 -1.141,2.547 -2.548,2.547 m 85.77,-26.228 c -1.407,0 -2.548,-1.141 -2.548,-2.548 0,-1.407 1.141,-2.548 2.548,-2.548 1.407,0 2.548,1.141 2.548,2.548 0,1.407 -1.141,2.548 -2.548,2.548 m -34.308,0 c -1.407,0 -2.548,-1.141 -2.548,-2.548 0,-1.407 1.141,-2.548 2.548,-2.548 1.407,0 2.548,1.141 2.548,2.548 0,1.407 -1.141,2.548 -2.548,2.548 m -34.308,0 c -1.407,0 -2.548,-1.141 -2.548,-2.548 0,-1.407 1.141,-2.548 2.548,-2.548 1.407,0 2.548,1.141 2.548,2.548 0,1.407 -1.141,2.548 -2.548,2.548 m -17.154,77.159 c -1.408,0 -2.548,-1.141 -2.548,-2.548 0,-1.407 1.14,-2.548 2.548,-2.548 1.407,0 2.548,1.141 2.548,2.548 0,1.407 -1.141,2.548 -2.548,2.548 M -85.77,75.632 c -1.407,0 -2.548,-1.14 -2.548,-2.547 0,-1.408 1.141,-2.548 2.548,-2.548 1.407,0 2.548,1.14 2.548,2.548 0,1.407 -1.141,2.547 -2.548,2.547 m -31.769,-2.546 c 0,-0.57 -0.197,-1.118 -0.526,-1.534 -0.416,1.336 -0.832,2.651 -1.205,3.922 1.008,-0.329 1.731,-1.271 1.731,-2.388"
             style="fill:#ffffff;fill-opacity:1;fill-rule:nonzero;stroke:none"
             id="path4364" /></g><g
           id="g4366"
           transform="matrix(0.35277776,0,0,-0.35277778,316.54968,97.192762)"
           clip-path="url(#clipPath9325)"><path
             d="m 0,0 c 0.059,4.812 0.141,9.625 0.255,14.436 0.115,4.783 0.042,9.65 0.514,14.414 0.022,0.215 0.376,0.254 0.397,0.021 C 1.584,24.252 1.485,19.542 1.558,14.906 1.637,9.988 1.678,5.067 1.706,0.148 1.76,-9.584 1.419,-19.278 0.921,-28.989 0.908,-29.23 0.567,-29.187 0.557,-28.959 0.142,-19.304 -0.12,-9.67 0,0"
             style="fill:#1a2e35;fill-opacity:1;fill-rule:nonzero;stroke:none"
             id="path4368" /></g><g
           id="g4370"
           transform="matrix(0.35277776,0,0,-0.35277778,-16.70349,280.06098)"
           clip-path="url(#clipPath9319)"><g
             id="g4372" /><g
             id="g4384"><g
               clip-path="url(#clipPath4376)"
               opacity="0.100006"
               id="g4382"><g
                 transform="translate(922.2736,485.5067)"
                 id="g4380"><path
                   d="m 0,0 c -19.153,1.844 -40.773,4.799 -51.349,9.377 -11.487,4.954 -40.728,78.7 -44.705,102.32 -2.2,13.02 -0.289,23.086 6.043,24.597 z"
                   style="fill:#000000;fill-opacity:1;fill-rule:nonzero;stroke:none"
                   id="path4378" /></g></g></g></g><g
           id="g4386"
           transform="matrix(0.35277776,0,0,-0.35277778,287.57177,98.151224)"
           clip-path="url(#clipPath9313)"><path
             d="m 0,0 2.25,-40.732 -140.078,0.054 c 0,0 39.929,115.182 66.852,139.513 18.215,16.462 37.539,13.331 48.778,-0.381 C -19.354,94.985 9.933,54.167 12.14,34.911 14.046,17.925 0,0 0,0"
             style="fill:#4f1781;fill-opacity:1;fill-rule:nonzero;stroke:none"
             id="path4388" /></g><g
           id="g4390"
           transform="matrix(0.35277776,0,0,-0.35277778,288.00886,106.06142)"
           clip-path="url(#clipPath9307)"><path
             d="m 0,0 c -0.752,7.455 -1.356,14.919 -1.901,22.386 l -0.018,0.233 0.171,0.229 c 3.756,5.049 6.933,10.653 9.121,16.562 1.116,2.952 1.865,6.024 2.345,9.113 0.495,3.102 0.618,6.223 0.107,9.316 C 9.412,60.944 8.581,64.012 7.557,67.011 6.605,70.037 5.384,72.985 4.124,75.912 1.487,81.721 -1.453,87.418 -4.758,92.919 -0.98,87.727 2.343,82.195 5.21,76.422 8.016,70.635 10.551,64.595 11.517,58.086 12.644,51.533 11.31,44.854 9.012,38.797 6.633,32.731 3.444,27.025 -0.729,21.998 l 0.152,0.461 C -0.296,14.978 -0.074,7.493 0,0"
             style="fill:#1a2e35;fill-opacity:1;fill-rule:nonzero;stroke:none"
             id="path4392" /></g><g
           id="g4394"
           transform="matrix(0.35277776,0,0,-0.35277778,288.71386,75.331193)"
           clip-path="url(#clipPath9301)"><path
             d="m 0,0 c 1.416,-2.323 2.43,-4.819 3.278,-7.372 0.402,-1.284 0.772,-2.583 1.008,-3.917 0.242,-1.328 0.445,-2.687 0.328,-4.052 -0.803,2.58 -1.702,5.05 -2.516,7.59 C 1.306,-5.211 0.514,-2.668 0,0"
             style="fill:#1a2e35;fill-opacity:1;fill-rule:nonzero;stroke:none"
             id="path4396" /></g><g
           id="g4398"
           transform="matrix(0.35277776,0,0,-0.35277778,281.72074,100.84465)"
           clip-path="url(#clipPath9295)"><path
             d="m 0,0 c -1.407,0 -2.548,-1.141 -2.548,-2.548 0,-1.407 1.141,-2.548 2.548,-2.548 1.407,0 2.548,1.141 2.548,2.548 C 2.548,-1.141 1.407,0 0,0 m -34.308,0 c -1.407,0 -2.548,-1.141 -2.548,-2.548 0,-1.407 1.141,-2.548 2.548,-2.548 1.407,0 2.548,1.141 2.548,2.548 0,1.407 -1.141,2.548 -2.548,2.548 m -34.308,0 c -1.407,0 -2.548,-1.141 -2.548,-2.548 0,-1.407 1.141,-2.548 2.548,-2.548 1.407,0 2.548,1.141 2.548,2.548 0,1.407 -1.141,2.548 -2.548,2.548 m -34.308,0 c -1.407,0 -2.548,-1.141 -2.548,-2.548 0,-1.407 1.141,-2.548 2.548,-2.548 1.407,0 2.548,1.141 2.548,2.548 0,1.407 -1.141,2.548 -2.548,2.548 m 121.42,-26.618 c -0.394,0.263 -0.855,0.394 -1.337,0.394 -1.402,0 -2.564,-1.139 -2.564,-2.541 0,-1.425 1.162,-2.564 2.564,-2.564 0.592,0 1.14,0.197 1.556,0.548 z m -35.65,0.39 c -1.407,0 -2.548,-1.141 -2.548,-2.548 0,-1.407 1.141,-2.548 2.548,-2.548 1.407,0 2.548,1.141 2.548,2.548 0,1.407 -1.141,2.548 -2.548,2.548 m -34.308,0 c -1.407,0 -2.548,-1.141 -2.548,-2.548 0,-1.407 1.141,-2.548 2.548,-2.548 1.407,0 2.548,1.141 2.548,2.548 0,1.407 -1.141,2.548 -2.548,2.548 m -34.308,0 c -1.407,0 -2.548,-1.141 -2.548,-2.548 0,-1.407 1.141,-2.548 2.548,-2.548 1.407,0 2.548,1.141 2.548,2.548 0,1.407 -1.141,2.548 -2.548,2.548 m -33.172,-0.28 c -0.723,-2.038 -1.292,-3.638 -1.687,-4.756 0.176,-0.043 0.351,-0.065 0.548,-0.065 1.402,0 2.542,1.139 2.542,2.564 0,0.986 -0.57,1.84 -1.403,2.257 M 0,50.93 c -1.407,0 -2.548,-1.14 -2.548,-2.547 0,-1.408 1.141,-2.549 2.548,-2.549 1.407,0 2.548,1.141 2.548,2.549 0,1.407 -1.141,2.547 -2.548,2.547 m -34.308,0 c -1.407,0 -2.548,-1.14 -2.548,-2.547 0,-1.408 1.141,-2.549 2.548,-2.549 1.407,0 2.548,1.141 2.548,2.549 0,1.407 -1.141,2.547 -2.548,2.547 m -34.308,0 c -1.407,0 -2.548,-1.14 -2.548,-2.547 0,-1.408 1.141,-2.549 2.548,-2.549 1.407,0 2.548,1.141 2.548,2.549 0,1.407 -1.141,2.547 -2.548,2.547 m 85.77,-26.228 c -1.407,0 -2.548,-1.141 -2.548,-2.548 0,-1.407 1.141,-2.548 2.548,-2.548 1.407,0 2.548,1.141 2.548,2.548 0,1.407 -1.141,2.548 -2.548,2.548 m -34.308,0 c -1.407,0 -2.548,-1.141 -2.548,-2.548 0,-1.407 1.141,-2.548 2.548,-2.548 1.407,0 2.548,1.141 2.548,2.548 0,1.407 -1.141,2.548 -2.548,2.548 m -34.308,0 c -1.407,0 -2.548,-1.141 -2.548,-2.548 0,-1.407 1.141,-2.548 2.548,-2.548 1.407,0 2.548,1.141 2.548,2.548 0,1.407 -1.141,2.548 -2.548,2.548 m -34.308,0 c -1.407,0 -2.548,-1.141 -2.548,-2.548 0,-1.407 1.141,-2.548 2.548,-2.548 1.407,0 2.548,1.141 2.548,2.548 0,1.407 -1.141,2.548 -2.548,2.548 m 83.887,76.301 c -0.416,-0.439 -0.657,-1.03 -0.657,-1.688 0,-1.402 1.139,-2.542 2.542,-2.542 0.328,0 0.657,0.066 0.942,0.176 -1.03,1.512 -1.972,2.87 -2.827,4.054 m -32.425,0.858 c -1.407,0 -2.548,-1.141 -2.548,-2.548 0,-1.407 1.141,-2.548 2.548,-2.548 1.407,0 2.548,1.141 2.548,2.548 0,1.407 -1.141,2.548 -2.548,2.548 M 15.121,74.619 c -0.328,-0.416 -0.526,-0.964 -0.526,-1.533 0,-1.403 1.162,-2.542 2.564,-2.542 0.088,0 0.176,0 0.263,0.022 -0.745,1.358 -1.512,2.717 -2.301,4.053 m -32.275,1.013 c -1.407,0 -2.548,-1.14 -2.548,-2.547 0,-1.408 1.141,-2.548 2.548,-2.548 1.407,0 2.548,1.14 2.548,2.548 0,1.407 -1.141,2.547 -2.548,2.547 m -31.76,-2.547 c 0,-1.408 -1.141,-2.548 -2.548,-2.548 -1.407,0 -2.548,1.14 -2.548,2.548 0,1.407 1.141,2.547 2.548,2.547 1.407,0 2.548,-1.14 2.548,-2.547"
             style="fill:#ffffff;fill-opacity:1;fill-rule:nonzero;stroke:none"
             id="path4400" /></g><g
           id="g4402"
           transform="matrix(0.35277776,0,0,-0.35277778,279.90256,95.167711)"
           clip-path="url(#clipPath9289)"><path
             d="m 0,0 c -6.58,-0.676 -13.183,-1.579 -19.599,-3.223 -3.192,-0.818 -6.325,-1.778 -9.454,-2.808 -1.56,-0.514 -3.127,-0.974 -4.704,-1.427 -1.619,-0.465 -3.357,-0.898 -5.049,-0.952 -0.152,-0.005 -0.148,-0.232 0.003,-0.236 1.646,-0.045 3.222,-0.084 4.864,0.09 1.56,0.165 3.112,0.499 4.635,0.874 3.246,0.799 6.452,1.748 9.69,2.58 6.531,1.678 13.059,3.354 19.696,4.558 C 0.388,-0.489 0.312,0.032 0,0"
             style="fill:#1a2e35;fill-opacity:1;fill-rule:nonzero;stroke:none"
             id="path4404" /></g><g
           id="g4406"
           transform="matrix(0.35277776,0,0,-0.35277778,285.65827,97.230862)"
           clip-path="url(#clipPath9283)"><path
             d="M 0,0 C -5.411,0.552 -10.932,0.853 -16.373,0.788 -19.11,0.755 -21.824,0.563 -24.548,0.3 c -1.3,-0.126 -2.599,-0.275 -3.894,-0.44 -1.426,-0.181 -2.83,-0.555 -4.257,-0.716 -0.149,-0.016 -0.149,-0.249 0.004,-0.236 1.351,0.111 2.726,-10e-4 4.082,0.031 1.361,0.032 2.723,0.075 4.085,0.108 2.727,0.067 5.453,0.103 8.18,0.195 5.458,0.185 10.894,0.314 16.355,0.309 C 0.303,-0.449 0.28,-0.029 0,0"
             style="fill:#1a2e35;fill-opacity:1;fill-rule:nonzero;stroke:none"
             id="path4408" /></g><g
           id="g4410"
           transform="matrix(0.35277776,0,0,-0.35277778,264.12017,61.122398)"
           clip-path="url(#clipPath9277)"><path
             d="m 0,0 c -50.744,-21.737 -110.804,-74.371 -108.718,-93.323 2.323,-21.109 75.208,9.553 74.693,12.735 -0.437,2.703 15.851,24.151 39.144,54.883 C 28.812,5.554 12.548,5.375 0,0"
             style="fill:#4f1781;fill-opacity:1;fill-rule:nonzero;stroke:none"
             id="path4412" /></g><g
           id="g4414"
           transform="matrix(0.35277776,0,0,-0.35277778,252.3618,75.062024)"
           clip-path="url(#clipPath9271)"><path
             d="m 0,0 c 0,-1.407 -1.141,-2.548 -2.548,-2.548 -1.407,0 -2.548,1.141 -2.548,2.548 0,1.407 1.141,2.548 2.548,2.548 C -1.141,2.548 0,1.407 0,0"
             style="fill:#ffffff;fill-opacity:1;fill-rule:nonzero;stroke:none"
             id="path4416" /></g><g
           id="g4418"
           transform="matrix(0.35277776,0,0,-0.35277778,258.41335,65.809298)"
           clip-path="url(#clipPath9265)"><path
             d="m 0,0 c 0,-1.407 -1.141,-2.548 -2.548,-2.548 -1.407,0 -2.548,1.141 -2.548,2.548 0,1.407 1.141,2.548 2.548,2.548 C -1.141,2.548 0,1.407 0,0"
             style="fill:#ffffff;fill-opacity:1;fill-rule:nonzero;stroke:none"
             id="path4420" /></g><g
           id="g4422"
           transform="matrix(0.35277776,0,0,-0.35277778,269.30632,64.965841)"
           clip-path="url(#clipPath9259)"><path
             d="m 0,0 c -0.46,-0.942 -0.986,-1.928 -1.6,-2.98 -0.043,0.175 -0.065,0.394 -0.065,0.592 0,1.095 0.701,2.016 1.665,2.388"
             style="fill:#ffffff;fill-opacity:1;fill-rule:nonzero;stroke:none"
             id="path4424" /></g><g
           id="g4426"
           transform="matrix(0.35277776,0,0,-0.35277778,228.15553,93.029102)"
           clip-path="url(#clipPath9253)"><path
             d="m 0,0 c 0,-1.407 -1.141,-2.548 -2.548,-2.548 -1.407,0 -2.548,1.141 -2.548,2.548 0,1.407 1.141,2.548 2.548,2.548 C -1.141,2.548 0,1.407 0,0"
             style="fill:#ffffff;fill-opacity:1;fill-rule:nonzero;stroke:none"
             id="path4428" /></g><g
           id="g4430"
           transform="matrix(0.35277776,0,0,-0.35277778,240.25867,93.029102)"
           clip-path="url(#clipPath9247)"><path
             d="m 0,0 c 0,-1.407 -1.141,-2.548 -2.548,-2.548 -1.407,0 -2.548,1.141 -2.548,2.548 0,1.407 1.141,2.548 2.548,2.548 C -1.141,2.548 0,1.407 0,0"
             style="fill:#ffffff;fill-opacity:1;fill-rule:nonzero;stroke:none"
             id="path4432" /></g><g
           id="g4434"
           transform="matrix(0.35277776,0,0,-0.35277778,234.20708,83.776376)"
           clip-path="url(#clipPath9241)"><path
             d="m 0,0 c 0,-1.407 -1.141,-2.548 -2.548,-2.548 -1.407,0 -2.548,1.141 -2.548,2.548 0,1.407 1.141,2.548 2.548,2.548 C -1.141,2.548 0,1.407 0,0"
             style="fill:#ffffff;fill-opacity:1;fill-rule:nonzero;stroke:none"
             id="path4436" /></g><g
           id="g4438"
           transform="matrix(0.35277776,0,0,-0.35277778,246.31022,83.776376)"
           clip-path="url(#clipPath9235)"><path
             d="m 0,0 c 0,-1.407 -1.141,-2.548 -2.548,-2.548 -1.407,0 -2.548,1.141 -2.548,2.548 0,1.407 1.141,2.548 2.548,2.548 C -1.141,2.548 0,1.407 0,0"
             style="fill:#ffffff;fill-opacity:1;fill-rule:nonzero;stroke:none"
             id="path4440" /></g><g
           id="g4442"
           transform="matrix(0.35277776,0,0,-0.35277778,269.89101,61.725824)"
           clip-path="url(#clipPath9229)"><path
             d="m 0,0 c 0.172,-3.728 6.611,-21.39 17.763,-22.484 5.732,-0.563 8.489,19.421 8.489,19.421 L 26.729,-1.63 33.384,18.43 7.555,38.724 C 7.555,38.724 -0.048,1.064 0,0"
             style="fill:#b06949;fill-opacity:1;fill-rule:nonzero;stroke:none"
             id="path4444" /></g><g
           id="g4446"
           transform="matrix(0.35277776,0,0,-0.35277778,271.56148,53.023749)"
           clip-path="url(#clipPath9223)"><path
             d="M 0,0 C 4.553,-15.925 16.393,-23.527 22.001,-26.3 L 28.657,-6.237 2.811,14.065 C 2.811,14.065 1.51,7.633 0,0"
             style="fill:#1a2e35;fill-opacity:1;fill-rule:nonzero;stroke:none"
             id="path4448" /></g><g
           id="g4450"
           transform="matrix(0.35277776,0,0,-0.35277778,292.90274,45.088824)"
           clip-path="url(#clipPath9217)"><path
             d="m 0,0 c -1.046,-37.079 -23.374,-40.64 -31.369,-40.405 -7.258,0.212 -31.945,1.86 -34.736,38.849 -2.79,36.99 14.781,48.225 31.406,48.616 C -18.072,47.452 1.047,37.081 0,0"
             style="fill:#b06949;fill-opacity:1;fill-rule:nonzero;stroke:none"
             id="path4452" /></g><g
           id="g4454"
           transform="matrix(0.35277776,0,0,-0.35277778,291.01273,41.927547)"
           clip-path="url(#clipPath9211)"><path
             d="M 0,0 C -0.858,0.176 -1.621,0.482 -2.451,0.744 -3.389,1.04 -4.166,1.179 -4.807,1.98 -5.151,2.409 -5.05,3.212 -4.665,3.585 -3.767,4.454 -2.529,4.377 -1.385,4.067 -0.145,3.73 0.725,3.153 1.474,2.111 2.198,1.101 1.132,-0.232 0,0"
             style="fill:#1a2e35;fill-opacity:1;fill-rule:nonzero;stroke:none"
             id="path4456" /></g><g
           id="g4458"
           transform="matrix(0.35277776,0,0,-0.35277778,282.6677,41.236526)"
           clip-path="url(#clipPath9205)"><path
             d="M 0,0 C 0.876,0.026 1.68,0.195 2.543,0.31 3.518,0.439 4.307,0.442 5.077,1.12 5.49,1.483 5.53,2.291 5.214,2.725 4.48,3.737 3.247,3.874 2.067,3.767 0.787,3.649 -0.17,3.232 -1.086,2.335 -1.975,1.464 -1.155,-0.033 0,0"
             style="fill:#1a2e35;fill-opacity:1;fill-rule:nonzero;stroke:none"
             id="path4460" /></g><g
           id="g4462"
           transform="matrix(0.35277776,0,0,-0.35277778,284.11801,44.67685)"
           clip-path="url(#clipPath9199)"><path
             d="M 0,0 C -0.013,0.097 -0.205,-0.107 -0.208,-0.21 -0.288,-2.736 -0.805,-5.615 -3.139,-6.307 -3.211,-6.329 -3.212,-6.455 -3.127,-6.449 -0.32,-6.234 0.329,-2.406 0,0"
             style="fill:#1a2e35;fill-opacity:1;fill-rule:nonzero;stroke:none"
             id="path4464" /></g><g
           id="g4466"
           transform="matrix(0.35277776,0,0,-0.35277778,283.383,43.697504)"
           clip-path="url(#clipPath9193)"><path
             d="M 0,0 C -4.035,0.565 -4.869,-7.546 -1.131,-8.07 2.547,-8.585 3.382,-0.474 0,0"
             style="fill:#1a2e35;fill-opacity:1;fill-rule:nonzero;stroke:none"
             id="path4468" /></g><g
           id="g4470"
           transform="matrix(0.35277776,0,0,-0.35277778,282.80567,43.791202)"
           clip-path="url(#clipPath9187)"><path
             d="m 0,0 c -0.756,-0.386 -1.533,-1.124 -2.396,-1.121 -0.998,0.004 -1.657,0.93 -2.218,1.813 -0.059,0.091 -0.136,0.028 -0.149,-0.079 -0.183,-1.552 0.25,-3.208 1.893,-3.611 1.498,-0.368 2.731,0.896 3.279,2.419 C 0.511,-0.297 0.304,0.156 0,0"
             style="fill:#1a2e35;fill-opacity:1;fill-rule:nonzero;stroke:none"
             id="path4472" /></g><g
           id="g4474"
           transform="matrix(0.35277776,0,0,-0.35277778,289.01093,45.027441)"
           clip-path="url(#clipPath9181)"><path
             d="M 0,0 C 0.03,0.093 0.183,-0.14 0.169,-0.244 -0.189,-2.745 -0.177,-5.67 2.001,-6.755 2.069,-6.788 2.048,-6.914 1.965,-6.892 -0.763,-6.196 -0.74,-2.312 0,0"
             style="fill:#1a2e35;fill-opacity:1;fill-rule:nonzero;stroke:none"
             id="path4476" /></g><g
           id="g4478"
           transform="matrix(0.35277776,0,0,-0.35277778,289.90413,44.190158)"
           clip-path="url(#clipPath9175)"><path
             d="M 0,0 C 4.072,-0.14 3.491,-8.273 -0.281,-8.143 -3.993,-8.015 -3.413,0.118 0,0"
             style="fill:#1a2e35;fill-opacity:1;fill-rule:nonzero;stroke:none"
             id="path4480" /></g><g
           id="g4482"
           transform="matrix(0.35277776,0,0,-0.35277778,290.48889,44.421439)"
           clip-path="url(#clipPath9169)"><path
             d="M 0,0 C 0.612,-0.477 1.192,-1.305 1.956,-1.411 2.841,-1.532 3.562,-0.7 4.191,0.103 4.256,0.186 4.315,0.113 4.31,0.005 4.243,-1.552 3.613,-3.134 2.098,-3.326 0.716,-3.502 -0.188,-2.096 -0.449,-0.521 -0.497,-0.23 -0.247,0.192 0,0"
             style="fill:#1a2e35;fill-opacity:1;fill-rule:nonzero;stroke:none"
             id="path4484" /></g><g
           id="g4486"
           transform="matrix(0.35277776,0,0,-0.35277778,283.05138,51.620505)"
           clip-path="url(#clipPath9163)"><path
             d="M 0,0 C 0.381,-0.755 0.691,-1.72 1.533,-2.088 2.342,-2.442 3.445,-2.398 4.308,-2.362 4.394,-2.358 4.443,-2.465 4.37,-2.519 3.437,-3.226 1.935,-3.356 0.893,-2.785 -0.124,-2.228 -0.342,-1.11 -0.267,-0.031 -0.257,0.121 -0.056,0.11 0,0"
             style="fill:#1a2e35;fill-opacity:1;fill-rule:nonzero;stroke:none"
             id="path4488" /></g><g
           id="g4490"
           transform="matrix(0.35277776,0,0,-0.35277778,287.37743,48.858219)"
           clip-path="url(#clipPath9157)"><path
             d="m 0,0 c 0,0 0.177,-3.804 0.016,-5.577 -0.015,-0.165 -5.608,-0.85 -9.021,3.71 -0.127,0.17 0.135,0.346 0.286,0.221 2.18,-1.928 4.721,-2.605 7.492,-2.904 0.17,0.48 -0.521,6.505 -0.238,6.5 C -0.489,1.945 1.36,1.113 2.476,0.673 2.337,8.608 0.926,16.455 0.906,24.357 0.91,24.64 1.32,24.687 1.379,24.43 3.439,16.31 3.8,7.182 4.155,-1.008 4.208,-2.029 0.682,-0.366 0,0"
             style="fill:#1a2e35;fill-opacity:1;fill-rule:nonzero;stroke:none"
             id="path4492" /></g><g
           id="g4494"
           transform="matrix(0.35277776,0,0,-0.35277778,286.53598,50.681128)"
           clip-path="url(#clipPath9151)"><path
             d="M 0,0 C 0,0 -1.772,-1.914 -3.969,-2.435 -4.778,-2.629 -5.629,-2.648 -6.482,-2.317 -8.237,-1.645 -8.1,0.018 -7.614,1.4 -7.217,2.537 -6.567,3.482 -6.567,3.482 -6.567,3.482 -4.2,0.725 0,0"
             style="fill:#1a2e35;fill-opacity:1;fill-rule:nonzero;stroke:none"
             id="path4496" /></g><g
           id="g4498"
           transform="matrix(0.35277776,0,0,-0.35277778,285.13588,51.539966)"
           clip-path="url(#clipPath9145)"><path
             d="M 0,0 C -0.81,-0.195 -1.661,-0.213 -2.514,0.117 -4.268,0.79 -4.131,2.452 -3.645,3.834 -1.73,3.424 0.042,1.9 0,0"
             style="fill:#ff9cbf;fill-opacity:1;fill-rule:nonzero;stroke:none"
             id="path4500" /></g><g
           id="g4502"
           transform="matrix(0.35277776,0,0,-0.35277778,273.32671,29.280993)"
           clip-path="url(#clipPath9139)"><path
             d="M 0,0 C 3.358,0.558 9.73,17.465 -0.146,28.031 -9.872,38.436 -26.596,31.944 -23.206,16.414 -21.063,6.6 -7.102,-1.181 0,0"
             style="fill:#1a2e35;fill-opacity:1;fill-rule:nonzero;stroke:none"
             id="path4504" /></g><g
           id="g4506"
           transform="matrix(0.35277776,0,0,-0.35277778,267.67789,17.925605)"
           clip-path="url(#clipPath9133)"><path
             d="m 0,0 c -4.067,-2.19 -7.116,-5.817 -8.786,-9.797 -1.688,-4.018 -1.262,-8.543 1.296,-11.945 2.439,-3.534 6.288,-5.997 10.335,-7.807 2.053,-0.879 4.202,-1.583 6.405,-2.081 2.201,-0.533 4.469,-0.862 6.762,-0.558 -2.185,-0.875 -4.623,-0.806 -6.951,-0.673 -2.344,0.22 -4.675,0.691 -6.923,1.46 -4.455,1.542 -8.814,4.121 -11.699,8.193 -1.41,2.035 -2.414,4.474 -2.567,7.009 -0.147,2.528 0.43,5.043 1.543,7.214 C -8.392,-4.641 -4.473,-1.286 0,0"
             style="fill:#1a2e35;fill-opacity:1;fill-rule:nonzero;stroke:none"
             id="path4508" /></g><g
           id="g4510"
           transform="matrix(0.35277776,0,0,-0.35277778,270.35184,45.361063)"
           clip-path="url(#clipPath9127)"><path
             d="m 0,0 c 6.748,-1.782 10.604,13.708 10.604,13.708 0,0 29.906,1.06 35.56,24.543 0,0 2.99,-15.847 17.392,-24.758 0,0 2.457,26.244 -17.565,34.073 0,0 -24.439,12.771 -41.594,-5.686 C -12.758,23.423 -4.53,1.196 0,0"
             style="fill:#1a2e35;fill-opacity:1;fill-rule:nonzero;stroke:none"
             id="path4512" /></g><g
           id="g4514"
           transform="matrix(0.35277776,0,0,-0.35277778,286.75622,31.250622)"
           clip-path="url(#clipPath9121)"><path
             d="m 0,0 c -0.092,-3.685 -1.121,-7.343 -2.754,-10.697 -1.633,-3.354 -3.922,-6.449 -6.801,-8.881 -0.669,-0.665 -1.496,-1.136 -2.237,-1.712 l -1.142,-0.826 c -0.401,-0.242 -0.815,-0.464 -1.228,-0.686 -0.83,-0.436 -1.642,-0.907 -2.485,-1.308 -0.868,-0.348 -1.743,-0.675 -2.619,-0.993 -0.439,-0.155 -0.87,-0.331 -1.313,-0.47 l -1.356,-0.326 -2.702,-0.645 c -1.832,-0.256 -3.675,-0.418 -5.498,-0.552 1.778,0.509 3.572,0.83 5.311,1.349 l 2.578,0.856 1.284,0.424 c 0.417,0.17 0.82,0.376 1.23,0.562 0.814,0.384 1.628,0.759 2.45,1.113 0.789,0.419 1.543,0.904 2.315,1.35 l 1.153,0.677 1.07,0.8 c 0.693,0.557 1.471,1.011 2.095,1.648 2.751,2.27 4.934,5.148 6.765,8.218 0.909,1.546 1.67,3.184 2.316,4.873 C -0.889,-3.545 -0.384,-1.796 0,0"
             style="fill:#1a2e35;fill-opacity:1;fill-rule:nonzero;stroke:none"
             id="path4516" /></g><g
           id="g4518"
           transform="matrix(0.35277776,0,0,-0.35277778,282.71053,41.453061)"
           clip-path="url(#clipPath9115)"><path
             d="m 0,0 c -0.824,0.181 -1.685,0.264 -2.566,0.235 -5.712,-0.187 -10.206,-4.987 -10.022,-10.699 0.19,-5.711 4.99,-10.213 10.7,-10.02 5.712,0.188 10.206,4.987 10.021,10.699 C 7.974,-4.955 4.518,-0.994 0,0 m -4.798,-21.811 c -5.214,1.147 -9.205,5.718 -9.388,11.294 -0.215,6.595 4.974,12.135 11.567,12.351 C 3.977,2.051 9.515,-3.138 9.732,-9.732 L 9.731,-9.733 c 0.216,-6.592 -4.972,-12.133 -11.566,-12.35 -1.019,-0.033 -2.011,0.062 -2.963,0.272"
             style="fill:#4f1781;fill-opacity:1;fill-rule:nonzero;stroke:none"
             id="path4520" /></g><g
           id="g4522"
           transform="matrix(0.35277776,0,0,-0.35277778,291.93017,42.299622)"
           clip-path="url(#clipPath9109)"><path
             d="m 0,0 c -0.197,0.043 -0.397,0.076 -0.6,0.095 -1.892,0.19 -3.794,-0.669 -5.354,-2.418 -1.621,-1.821 -2.669,-4.366 -2.951,-7.167 -0.566,-5.688 2.219,-10.643 6.243,-11.041 4.009,-0.401 7.733,3.901 8.303,9.586 0.28,2.801 -0.244,5.504 -1.473,7.61 C 3.113,-1.528 1.65,-0.363 0,0 m -3.595,-21.999 c -4.472,0.983 -7.52,6.455 -6.9,12.667 0.312,3.135 1.502,6.003 3.348,8.072 1.907,2.143 4.289,3.19 6.706,2.948 C 1.985,1.451 4.103,-0.051 5.55,-2.529 6.949,-4.925 7.546,-7.97 7.232,-11.103 6.574,-17.667 2.065,-22.61 -2.82,-22.123 c -0.264,0.027 -0.521,0.068 -0.775,0.124"
             style="fill:#4f1781;fill-opacity:1;fill-rule:nonzero;stroke:none"
             id="path4524" /></g><g
           id="g4526"
           transform="matrix(0.35277776,0,0,-0.35277778,285.95418,45.358452)"
           clip-path="url(#clipPath9103)"><path
             d="M 0,0 -0.902,1.322 C 1.056,2.657 5.435,4.279 8.031,0.877 L 6.759,-0.093 C 4.439,2.958 0.18,0.12 0,0"
             style="fill:#4f1781;fill-opacity:1;fill-rule:nonzero;stroke:none"
             id="path4528" /></g><g
           id="g4530"
           transform="matrix(0.35277776,0,0,-0.35277778,267.13243,44.56823)"
           clip-path="url(#clipPath9097)"><path
             d="M 0,0 -1.341,0.872 C -0.933,1.497 2.738,6.987 6.35,7.209 9.725,7.407 30.861,3.275 31.758,3.098 L 31.45,1.529 C 25.391,2.719 9.055,5.773 6.449,5.612 4.063,5.466 0.986,1.511 0,0"
             style="fill:#4f1781;fill-opacity:1;fill-rule:nonzero;stroke:none"
             id="path4532" /></g><g
           id="g4534"
           transform="matrix(0.35277776,0,0,-0.35277778,271.94799,45.080851)"
           clip-path="url(#clipPath9091)"><path
             d="m 0,0 c 0,0 -6.716,12.429 -12.267,10.163 -5.549,-2.266 -1.424,-19.637 4.441,-22.625 5.864,-2.987 8.736,2.388 8.736,2.388 z"
             style="fill:#b06949;fill-opacity:1;fill-rule:nonzero;stroke:none"
             id="path4536" /></g><g
           id="g4538"
           transform="matrix(0.35277776,0,0,-0.35277778,268.0814,43.241785)"
           clip-path="url(#clipPath9085)"><path
             d="M 0,0 C -0.097,0.021 -0.132,-0.116 -0.051,-0.16 4.045,-2.396 5.847,-6.641 6.955,-10.954 5.86,-9.217 4.221,-8.145 1.916,-9.42 1.795,-9.487 1.882,-9.674 2.006,-9.663 c 1.803,0.174 3.038,-0.278 4.064,-1.824 0.727,-1.095 1.158,-2.423 1.627,-3.646 0.157,-0.406 0.874,-0.281 0.779,0.178 -0.007,0.034 -0.017,0.069 -0.024,0.104 C 9.192,-9.386 5.818,-1.23 0,0"
             style="fill:#1a2e35;fill-opacity:1;fill-rule:nonzero;stroke:none"
             id="path4540" /></g><g
           id="g4542"
           transform="matrix(0.35277776,0,0,-0.35277778,269.48888,49.02279)"
           clip-path="url(#clipPath9079)"><path
             d="M 0,0 C 0.131,-0.87 0.942,-1.468 1.812,-1.337 2.681,-1.207 3.28,-0.395 3.149,0.474 3.018,1.344 2.207,1.943 1.338,1.812 0.468,1.681 -0.131,0.87 0,0"
             style="fill:#375a64;fill-opacity:1;fill-rule:nonzero;stroke:none"
             id="path4544" /></g><g
           id="g4546"
           transform="matrix(0.35277776,0,0,-0.35277778,269.7814,48.978587)"
           clip-path="url(#clipPath9073)"><path
             d="M 0,0 C 0.062,-0.412 0.446,-0.695 0.858,-0.633 1.269,-0.571 1.553,-0.188 1.49,0.224 1.428,0.636 1.045,0.919 0.633,0.857 0.221,0.795 -0.062,0.411 0,0"
             style="fill:#1a2e35;fill-opacity:1;fill-rule:nonzero;stroke:none"
             id="path4548" /></g><g
           id="g4550"
           transform="matrix(0.35277776,0,0,-0.35277778,268.59092,48.229428)"
           clip-path="url(#clipPath9067)"><path
             d="M 0,0 C 0.092,-0.615 0.666,-1.038 1.281,-0.946 1.896,-0.853 2.319,-0.28 2.227,0.336 2.134,0.95 1.561,1.374 0.946,1.281 0.331,1.188 -0.093,0.615 0,0"
             style="fill:#375a64;fill-opacity:1;fill-rule:nonzero;stroke:none"
             id="path4552" /></g><g
           id="g4554"
           transform="matrix(0.35277776,0,0,-0.35277778,252.34451,89.061516)"
           clip-path="url(#clipPath9061)"><path
             d="M 0,0 C 9.547,16.208 20.278,31.805 32.752,45.909 21.226,31.398 10.274,15.472 0,0"
             style="fill:#1a2e35;fill-opacity:1;fill-rule:nonzero;stroke:none"
             id="path4556" /></g><g
           id="g4558"
           transform="matrix(0.35277776,0,0,-0.35277778,259.22449,78.883524)"
           clip-path="url(#clipPath9055)"><path
             d="M 0,0 C 3.462,3.221 6.925,6.437 10.715,9.28 7.385,5.925 3.89,2.693 0,0"
             style="fill:#1a2e35;fill-opacity:1;fill-rule:nonzero;stroke:none"
             id="path4560" /></g><g
           id="g4564"
           transform="matrix(0.14898655,0.3197736,0.31977362,-0.14898655,-41.748999,-53.995648)"><g
             id="g4566"
             clip-path="url(#clipPath4570)"><g
               id="g4572"
               transform="translate(689.2004,520.0113)"><path
                 d="m 0,0 c 10.875,-10.661 34.662,-8.628 95.036,-9.128 8.355,-0.069 24.705,58.758 15.787,59.29 C 99.59,50.833 55.855,51.002 52.655,50.61 25.666,47.309 -7.376,7.232 0,0"
                 style="fill:#b06949;fill-opacity:1;fill-rule:nonzero;stroke:none"
                 id="path4574" /></g><g
               id="g4576"
               transform="translate(787.8768,570.6482)"><path
                 d="m 0,0 c 0,0 25.371,0.892 38.846,-2.765 18.042,-4.897 31.603,-16.554 36.992,-21.782 11.247,-10.913 30.896,-45.074 22.045,-52.451 -8.013,-6.676 -26.334,29.258 -26.334,29.258 0,0 24.725,-33.555 13.599,-39.821 -11.126,-6.266 -30.021,36.658 -30.021,36.658 0,0 24.632,-35.047 12.136,-39.693 -9.443,-3.511 -28.747,34.402 -28.747,34.402 0,0 20.963,-30.27 11.407,-34.299 -10.559,-4.453 -30.573,29.425 -30.573,29.425 -26.014,-6.153 -40.917,1.558 -50.866,8.306 C -33.925,-51.128 0,0 0,0"
                 style="fill:#b06949;fill-opacity:1;fill-rule:nonzero;stroke:none"
                 id="path4578" /></g><g
               id="g4580"
               transform="translate(851.6176,535.0613)"><path
                 d="m 0,0 c 3.047,-3.836 6.157,-7.699 8.853,-11.794 2.695,-4.094 5.25,-8.285 7.552,-12.612 5.647,-10.612 7.523,-18.14 7.357,-17.688 C 19.823,-31.395 10.4,-16.589 7.703,-12.493 5.013,-8.408 2.528,-4.186 -0.16,-0.097 -0.228,0.006 -0.073,0.091 0,0"
                 style="fill:#1a2e35;fill-opacity:1;fill-rule:nonzero;stroke:none"
                 id="path4582" /></g><g
               id="g4584"
               transform="translate(836.6567,525.5969)"><path
                 d="m 0,0 c 3.679,-5.067 7.516,-9.963 10.973,-15.194 3.439,-5.206 6.246,-10.446 9.318,-15.875 0.236,-0.418 -0.066,-0.408 -0.321,0.003 -3.285,5.301 -6.733,9.95 -10.08,15.212 C 6.553,-10.61 3.396,-5.196 -0.128,-0.078 -0.183,0.002 -0.056,0.077 0,0"
                 style="fill:#1a2e35;fill-opacity:1;fill-rule:nonzero;stroke:none"
                 id="path4586" /></g><g
               id="g4588"
               transform="translate(822.3559,519.782)"><path
                 d="m 0,0 c 6.019,-7.456 10.654,-16.014 15.001,-24.517 0.216,-0.423 -0.173,-0.366 -0.419,0.053 C 9.749,-16.22 6.016,-9.718 -0.26,-0.209 -0.358,-0.061 -0.127,0.157 0,0"
                 style="fill:#1a2e35;fill-opacity:1;fill-rule:nonzero;stroke:none"
                 id="path4590" /></g><g
               id="g4592"
               transform="translate(798.3311,575.0349)"><path
                 d="m 0,0 c 0,0 -30.464,-69.651 -31.14,-69.759 -0.676,-0.108 -69.543,1.506 -77.991,14.735 -8.447,13.23 28.839,47.391 52.562,50.689 C -32.847,-1.038 0,0 0,0"
                 style="fill:#4f1781;fill-opacity:1;fill-rule:nonzero;stroke:none"
                 id="path4594" /></g><g
               id="g4596"
               transform="translate(777.1855,570.9068)"><path
                 d="m 0,0 c -1.376,-2.394 -10.585,-25.117 -12.479,-30.097 -1.895,-4.981 -9.837,-25.264 -11.364,-30.558 -0.068,-0.236 0.242,-0.373 0.356,-0.148 2.485,4.912 10.552,25.35 12.586,30.385 C -8.866,-25.384 -0.252,-2.71 0.35,-0.095 0.401,0.126 0.094,0.163 0,0"
                 style="fill:#1a2e35;fill-opacity:1;fill-rule:nonzero;stroke:none"
                 id="path4598" /></g><g
               id="g4600"
               transform="translate(775.2828,552.572)"><path
                 d="m 0,0 c -1.183,-0.762 -1.523,-2.339 -0.761,-3.522 0.763,-1.183 2.34,-1.523 3.522,-0.761 1.183,0.762 1.524,2.339 0.761,3.522 C 2.76,0.422 1.183,0.762 0,0 m -28.835,-18.589 c -1.183,-0.763 -1.524,-2.34 -0.761,-3.522 0.762,-1.183 2.339,-1.524 3.522,-0.761 1.182,0.762 1.523,2.339 0.761,3.522 -0.763,1.182 -2.34,1.523 -3.522,0.761 m -28.836,-18.59 c -1.182,-0.762 -1.523,-2.339 -0.761,-3.522 0.763,-1.182 2.34,-1.523 3.523,-0.761 1.182,0.763 1.523,2.34 0.76,3.522 -0.762,1.183 -2.339,1.524 -3.522,0.761 m 29.869,48.646 c -1.183,-0.762 -1.524,-2.339 -0.761,-3.522 0.762,-1.183 2.339,-1.523 3.522,-0.761 1.183,0.763 1.523,2.34 0.761,3.522 -0.762,1.183 -2.339,1.524 -3.522,0.761 M -56.637,-7.122 c -1.183,-0.763 -1.524,-2.34 -0.761,-3.522 0.762,-1.183 2.339,-1.524 3.522,-0.761 1.182,0.762 1.523,2.339 0.76,3.522 -0.762,1.183 -2.339,1.523 -3.521,0.761 m -25.314,-19.35 c 0.763,-1.183 0.422,-2.76 -0.761,-3.523 -1.183,-0.762 -2.759,-0.421 -3.522,0.761 -0.762,1.183 -0.422,2.76 0.761,3.523 1.183,0.762 2.76,0.421 3.522,-0.761"
                 style="fill:#ffffff;fill-opacity:1;fill-rule:nonzero;stroke:none"
                 id="path4602" /></g><g
               id="g4604"
               transform="translate(717.1241,559.6624)"><path
                 d="m 0,0 c 4.136,3.241 16.038,11.226 28.989,11.777 0.144,0.006 0.173,-0.167 0.027,-0.192 C 18.562,9.851 4.418,2.729 0.129,-0.141 0.017,-0.217 -0.104,-0.082 0,0"
                 style="fill:#1a2e35;fill-opacity:1;fill-rule:nonzero;stroke:none"
                 id="path4606" /></g><g
               id="g4608"
               transform="translate(795.6219,570.2048)"><path
                 d="M 0,0 2.395,5.189 2.523,4.994 C -5.983,4.393 -17.906,3.55 -26.272,2.776 -34.637,2.072 -46.55,0.745 -55.003,-0.188 c 9.498,1.629 19.072,2.784 28.665,3.687 9.672,0.894 19.373,1.491 29.081,1.772 0,0 -0.105,-0.202 -0.105,-0.202 z"
                 style="fill:#1a2e35;fill-opacity:1;fill-rule:nonzero;stroke:none"
                 id="path4610" /></g><g
               id="g4612"
               transform="translate(746.6288,506.2411)"><path
                 d="M 0,0 C 5.498,0.044 10.961,-0.245 16.424,-0.876 10.941,-0.923 5.449,-0.627 0,0"
                 style="fill:#1a2e35;fill-opacity:1;fill-rule:nonzero;stroke:none"
                 id="path4614" /></g></g></g><path
           style="fill:#375a64;fill-opacity:1;stroke-width:0.264583"
           d="m 287.15919,112.0769 44.22495,90.26734 13.32807,57.553 -30.89688,7.26985 -9.69314,-56.94718 -41.80166,-96.93137 z"
           id="path9794" /><path
           style="fill:#1a2e35;fill-opacity:1;stroke-width:0.262663"
           d="m 262.6019,113.07435 42.72754,97.37043 c 0,0 9.98752,59.78957 11.1911,56.18327 1.20361,-3.60632 -3.00898,8.41471 -3.00898,8.41471 l 45.16496,-20.78785 -71.8687,-142.82959 z"
           id="path10644" /></g><path
         style="fill:#1a2e35;fill-opacity:1;stroke-width:0.651629"
         d="m 434.96671,70.976998 1.49875,4.595368 -1.99833,5.639775 -2.33139,-8.981859 z"
         id="path11957" /></g><ellipse
       style="fill:#1a2e35;fill-opacity:1;stroke-width:0.294965"
       id="path12149"
       cx="115.5317"
       cy="47.254044"
       rx="1.9716094"
       ry="2.1961014" /><path
       style="fill:#1a2e35;fill-opacity:1;stroke-width:0.264583"
       d="m 117.69746,58.420349 -0.21419,-1.499331 0.74966,0.107096 -0.42838,1.124497 z"
       id="path12153" /></g></svg>
