<?xml version="1.0" encoding="UTF-8" standalone="no"?>
<!-- Created with Inkscape (http://www.inkscape.org/) -->

<svg
   width="74.119019mm"
   height="65.599174mm"
   viewBox="0 0 74.119019 65.599174"
   version="1.1"
   id="svg2865"
   xml:space="preserve"
   xmlns="http://www.w3.org/2000/svg"
   xmlns:svg="http://www.w3.org/2000/svg"><defs
     id="defs2862"><clipPath
       clipPathUnits="userSpaceOnUse"
       id="clipPath9168"><path
         d="m 216.71,168.22 h 28.228 V 138.01 H 216.71 Z"
         id="path9166" /></clipPath><clipPath
       clipPathUnits="userSpaceOnUse"
       id="clipPath9288"><path
         d="m 250.343,201.783 h 4.384 v -16.244 h -4.384 z"
         id="path9286" /></clipPath><clipPath
       clipPathUnits="userSpaceOnUse"
       id="clipPath10710"><g
         id="g10714"
         transform="matrix(1.8797279,0,0,-1.9056911,-245.35654,121.96281)"><path
           d="M -4.8289202,-112.34397 H 261.16703 V 150.02805 H -4.8289202 Z"
           id="path10712"
           style="stroke-width:0.528356" /></g></clipPath><clipPath
       clipPathUnits="userSpaceOnUse"
       id="clipPath10716"><g
         id="g10720"
         transform="matrix(1.8797279,0,0,-1.9056911,-246.41704,100.13851)"><path
           d="M -4.8289202,-112.34397 H 261.16703 V 150.02805 H -4.8289202 Z"
           id="path10718"
           style="stroke-width:0.528356" /></g></clipPath><clipPath
       clipPathUnits="userSpaceOnUse"
       id="clipPath10722"><g
         id="g10726"
         transform="matrix(1.8797279,0,0,-1.9056911,-241.52505,101.45101)"><path
           d="M -4.8289202,-112.34397 H 261.16703 V 150.02805 H -4.8289202 Z"
           id="path10724"
           style="stroke-width:0.528356" /></g></clipPath><clipPath
       clipPathUnits="userSpaceOnUse"
       id="clipPath10728"><g
         id="g10732"
         transform="matrix(1.8797279,0,0,-1.9056911,-245.71494,92.480311)"><path
           d="M -4.8289202,-112.34397 H 261.16703 V 150.02805 H -4.8289202 Z"
           id="path10730"
           style="stroke-width:0.528356" /></g></clipPath><clipPath
       clipPathUnits="userSpaceOnUse"
       id="clipPath10734"><g
         id="g10738"
         transform="matrix(1.8797279,0,0,-1.9056911,-218.02204,78.404212)"><path
           d="M -4.8289202,-112.34397 H 261.16703 V 150.02805 H -4.8289202 Z"
           id="path10736"
           style="stroke-width:0.528356" /></g></clipPath><clipPath
       clipPathUnits="userSpaceOnUse"
       id="clipPath10740"><g
         id="g10744"
         transform="matrix(1.8797279,0,0,-1.9056911,-236.53035,75.532112)"><path
           d="M -4.8289202,-112.34397 H 261.16703 V 150.02805 H -4.8289202 Z"
           id="path10742"
           style="stroke-width:0.528356" /></g></clipPath><clipPath
       clipPathUnits="userSpaceOnUse"
       id="clipPath10746"><g
         id="g10750"
         transform="matrix(1.8797279,0,0,-1.9056911,-228.64705,87.046711)"><path
           d="M -4.8289202,-112.34397 H 261.16703 V 150.02805 H -4.8289202 Z"
           id="path10748"
           style="stroke-width:0.528356" /></g></clipPath><clipPath
       clipPathUnits="userSpaceOnUse"
       id="clipPath10752"><g
         id="g10756"
         transform="matrix(1.8797279,0,0,-1.9056911,9.0770559,285.90711)"><path
           d="M -4.8289202,-112.34397 H 261.16703 V 150.02805 H -4.8289202 Z"
           id="path10754"
           style="stroke-width:0.528356" /></g></clipPath><clipPath
       clipPathUnits="userSpaceOnUse"
       id="clipPath10758"><g
         id="g10762"
         transform="matrix(1.8797279,0,0,-1.9056911,-227.56893,106.68051)"><path
           d="M -4.8289202,-112.34397 H 261.16703 V 150.02805 H -4.8289202 Z"
           id="path10760"
           style="stroke-width:0.528356" /></g></clipPath><clipPath
       clipPathUnits="userSpaceOnUse"
       id="clipPath10764"><g
         id="g10768"
         transform="matrix(1.8797279,0,0,-1.9056911,-226.17634,105.11611)"><path
           d="M -4.8289202,-112.34397 H 261.16703 V 150.02805 H -4.8289202 Z"
           id="path10766"
           style="stroke-width:0.528356" /></g></clipPath><clipPath
       clipPathUnits="userSpaceOnUse"
       id="clipPath10770"><g
         id="g10774"
         transform="matrix(1.8797279,0,0,-1.9056911,-229.45814,104.49791)"><path
           d="M -4.8289202,-112.34397 H 261.16703 V 150.02805 H -4.8289202 Z"
           id="path10772"
           style="stroke-width:0.528356" /></g></clipPath><clipPath
       clipPathUnits="userSpaceOnUse"
       id="clipPath10776"><g
         id="g10780"
         transform="matrix(1.8797279,0,0,-1.9056911,-229.95564,107.70591)"><path
           d="M -4.8289202,-112.34397 H 261.16703 V 150.02805 H -4.8289202 Z"
           id="path10778"
           style="stroke-width:0.528356" /></g></clipPath><clipPath
       clipPathUnits="userSpaceOnUse"
       id="clipPath10782"><g
         id="g10786"
         transform="matrix(1.8797279,0,0,-1.9056911,-222.66615,94.112211)"><path
           d="M -4.8289202,-112.34397 H 261.16703 V 150.02805 H -4.8289202 Z"
           id="path10784"
           style="stroke-width:0.528356" /></g></clipPath><clipPath
       clipPathUnits="userSpaceOnUse"
       id="clipPath10788"><g
         id="g10792"
         transform="matrix(1.8797279,0,0,-1.9056911,-233.10505,94.646413)"><path
           d="M -4.8289202,-112.34397 H 261.16703 V 150.02805 H -4.8289202 Z"
           id="path10790"
           style="stroke-width:0.528356" /></g></clipPath><clipPath
       clipPathUnits="userSpaceOnUse"
       id="clipPath10794"><g
         id="g10798"
         transform="matrix(1.8797279,0,0,-1.9056911,-223.67585,95.813412)"><path
           d="M -4.8289202,-112.34397 H 261.16703 V 150.02805 H -4.8289202 Z"
           id="path10796"
           style="stroke-width:0.528356" /></g></clipPath><clipPath
       clipPathUnits="userSpaceOnUse"
       id="clipPath10800"><g
         id="g10804"
         transform="matrix(1.8797279,0,0,-1.9056911,-224.37855,97.031112)"><path
           d="M -4.8289202,-112.34397 H 261.16703 V 150.02805 H -4.8289202 Z"
           id="path10802"
           style="stroke-width:0.528356" /></g></clipPath><clipPath
       clipPathUnits="userSpaceOnUse"
       id="clipPath10806"><g
         id="g10810"
         transform="matrix(1.8797279,0,0,-1.9056911,-231.14164,97.207911)"><path
           d="M -4.8289202,-112.34397 H 261.16703 V 150.02805 H -4.8289202 Z"
           id="path10808"
           style="stroke-width:0.528356" /></g></clipPath><clipPath
       clipPathUnits="userSpaceOnUse"
       id="clipPath10812"><g
         id="g10816"
         transform="matrix(1.8797279,0,0,-1.9056911,-230.01424,98.047711)"><path
           d="M -4.8289202,-112.34397 H 261.16703 V 150.02805 H -4.8289202 Z"
           id="path10814"
           style="stroke-width:0.528356" /></g></clipPath><clipPath
       clipPathUnits="userSpaceOnUse"
       id="clipPath10818"><g
         id="g10822"
         transform="matrix(1.8797279,0,0,-1.9056911,-245.28725,89.438412)"><path
           d="M -4.8289202,-112.34397 H 261.16703 V 150.02805 H -4.8289202 Z"
           id="path10820"
           style="stroke-width:0.528356" /></g></clipPath><clipPath
       clipPathUnits="userSpaceOnUse"
       id="clipPath10824"><g
         id="g10828"
         transform="matrix(1.8797279,0,0,-1.9056911,-245.28725,89.438412)"><path
           d="M -4.8289202,-112.34397 H 261.16703 V 150.02805 H -4.8289202 Z"
           id="path10826"
           style="stroke-width:0.528356" /></g></clipPath><clipPath
       clipPathUnits="userSpaceOnUse"
       id="clipPath10830"><g
         id="g10834"
         transform="matrix(1.8797279,0,0,-1.9056911,-242.45414,106.59751)"><path
           d="M -4.8289202,-112.34397 H 261.16703 V 150.02805 H -4.8289202 Z"
           id="path10832"
           style="stroke-width:0.528356" /></g></clipPath><clipPath
       clipPathUnits="userSpaceOnUse"
       id="clipPath10836"><g
         id="g10840"
         transform="matrix(1.8797279,0,0,-1.9056911,-231.54595,128.84661)"><path
           d="M -4.8289202,-112.34397 H 261.16703 V 150.02805 H -4.8289202 Z"
           id="path10838"
           style="stroke-width:0.528356" /></g></clipPath><clipPath
       clipPathUnits="userSpaceOnUse"
       id="clipPath10842"><g
         id="g10846"
         transform="matrix(1.8797279,0,0,-1.9056911,-246.77154,137.48421)"><path
           d="M -4.8289202,-112.34397 H 261.16703 V 150.02805 H -4.8289202 Z"
           id="path10844"
           style="stroke-width:0.528356" /></g></clipPath><clipPath
       clipPathUnits="userSpaceOnUse"
       id="clipPath10848"><g
         id="g10852"
         transform="matrix(1.8797279,0,0,-1.9056911,-255.45024,147.36221)"><path
           d="M -4.8289202,-112.34397 H 261.16703 V 150.02805 H -4.8289202 Z"
           id="path10850"
           style="stroke-width:0.528356" /></g></clipPath><clipPath
       clipPathUnits="userSpaceOnUse"
       id="clipPath10854"><g
         id="g10858"
         transform="matrix(1.8797279,0,0,-1.9056911,-266.41314,134.19711)"><path
           d="M -4.8289202,-112.34397 H 261.16703 V 150.02805 H -4.8289202 Z"
           id="path10856"
           style="stroke-width:0.528356" /></g></clipPath><clipPath
       clipPathUnits="userSpaceOnUse"
       id="clipPath10860"><g
         id="g10864"
         transform="matrix(1.8797279,0,0,-1.9056911,-274.15344,141.50671)"><path
           d="M -4.8289202,-112.34397 H 261.16703 V 150.02805 H -4.8289202 Z"
           id="path10862"
           style="stroke-width:0.528356" /></g></clipPath><clipPath
       clipPathUnits="userSpaceOnUse"
       id="clipPath10866"><g
         id="g10870"
         transform="matrix(1.8797279,0,0,-1.9056911,-254.91614,151.82511)"><path
           d="M -4.8289202,-112.34397 H 261.16703 V 150.02805 H -4.8289202 Z"
           id="path10868"
           style="stroke-width:0.528356" /></g></clipPath><clipPath
       clipPathUnits="userSpaceOnUse"
       id="clipPath10896"><g
         id="g10900"
         transform="matrix(1.8797279,0,0,-1.9056911,-253.11145,123.51651)"><path
           d="M -4.8289202,-112.34397 H 261.16703 V 150.02805 H -4.8289202 Z"
           id="path10898"
           style="stroke-width:0.528356" /></g></clipPath><clipPath
       clipPathUnits="userSpaceOnUse"
       id="clipPath10902"><g
         id="g10906"
         transform="matrix(1.8797279,0,0,-1.9056911,-262.24324,164.88761)"><path
           d="M -4.8289202,-112.34397 H 261.16703 V 150.02805 H -4.8289202 Z"
           id="path10904"
           style="stroke-width:0.528356" /></g></clipPath><clipPath
       clipPathUnits="userSpaceOnUse"
       id="clipPath10908"><g
         id="g10912"
         transform="matrix(1.8797279,0,0,-1.9056911,-205.92584,188.80361)"><path
           d="M -4.8289202,-112.34397 H 261.16703 V 150.02805 H -4.8289202 Z"
           id="path10910"
           style="stroke-width:0.528356" /></g></clipPath><clipPath
       clipPathUnits="userSpaceOnUse"
       id="clipPath10914"><g
         id="g10918"
         transform="matrix(1.8797279,0,0,-1.9056911,9.0770559,285.90711)"><path
           d="M -4.8289202,-112.34397 H 261.16703 V 150.02805 H -4.8289202 Z"
           id="path10916"
           style="stroke-width:0.528356" /></g></clipPath><clipPath
       clipPathUnits="userSpaceOnUse"
       id="clipPath10920"><g
         id="g10924"
         transform="matrix(1.8797279,0,0,-1.9056911,-217.68275,143.41491)"><path
           d="M -4.8289202,-112.34397 H 261.16703 V 150.02805 H -4.8289202 Z"
           id="path10922"
           style="stroke-width:0.528356" /></g></clipPath><clipPath
       clipPathUnits="userSpaceOnUse"
       id="clipPath10926"><g
         id="g10930"
         transform="matrix(1.8797279,0,0,-1.9056911,-225.10315,135.72741)"><path
           d="M -4.8289202,-112.34397 H 261.16703 V 150.02805 H -4.8289202 Z"
           id="path10928"
           style="stroke-width:0.528356" /></g></clipPath><clipPath
       clipPathUnits="userSpaceOnUse"
       id="clipPath10932"><g
         id="g10936"
         transform="matrix(1.8797279,0,0,-1.9056911,-217.30335,147.89341)"><path
           d="M -4.8289202,-112.34397 H 261.16703 V 150.02805 H -4.8289202 Z"
           id="path10934"
           style="stroke-width:0.528356" /></g></clipPath><clipPath
       clipPathUnits="userSpaceOnUse"
       id="clipPath10938"><g
         id="g10942"
         transform="matrix(1.8797279,0,0,-1.9056911,-176.19344,109.84661)"><path
           d="M -4.8289202,-112.34397 H 261.16703 V 150.02805 H -4.8289202 Z"
           id="path10940"
           style="stroke-width:0.528356" /></g></clipPath><clipPath
       clipPathUnits="userSpaceOnUse"
       id="clipPath10944"><g
         id="g10948"
         transform="matrix(1.8797279,0,0,-1.9056911,-174.53184,103.96961)"><path
           d="M -4.8289202,-112.34397 H 261.16703 V 150.02805 H -4.8289202 Z"
           id="path10946"
           style="stroke-width:0.528356" /></g></clipPath><clipPath
       clipPathUnits="userSpaceOnUse"
       id="clipPath10950"><g
         id="g10954"
         transform="matrix(1.8797279,0,0,-1.9056911,-161.02254,103.96181)"><path
           d="M -4.8289202,-112.34397 H 261.16703 V 150.02805 H -4.8289202 Z"
           id="path10952"
           style="stroke-width:0.528356" /></g></clipPath><clipPath
       clipPathUnits="userSpaceOnUse"
       id="clipPath10956"><g
         id="g10960"
         transform="matrix(1.8797279,0,0,-1.9056911,-158.96154,127.49691)"><path
           d="M -4.8289202,-112.34397 H 261.16703 V 150.02805 H -4.8289202 Z"
           id="path10958"
           style="stroke-width:0.528356" /></g></clipPath><clipPath
       clipPathUnits="userSpaceOnUse"
       id="clipPath10962"><g
         id="g10966"
         transform="matrix(1.8797279,0,0,-1.9056911,-159.98104,105.45401)"><path
           d="M -4.8289202,-112.34397 H 261.16703 V 150.02805 H -4.8289202 Z"
           id="path10964"
           style="stroke-width:0.528356" /></g></clipPath><clipPath
       clipPathUnits="userSpaceOnUse"
       id="clipPath10968"><g
         id="g10972"
         transform="matrix(1.8797279,0,0,-1.9056911,-230.29695,129.25961)"><path
           d="M -4.8289202,-112.34397 H 261.16703 V 150.02805 H -4.8289202 Z"
           id="path10970"
           style="stroke-width:0.528356" /></g></clipPath></defs><g
     id="layer8"
     style="display:inline"
     transform="translate(-84.023493,-39.358099)"><g
       id="g12440"
       style="display:inline"><g
         id="g9126"
         transform="matrix(0.5319919,0,0,-0.52474403,122.51611,67.82821)"
         clip-path="url(#clipPath10968)"><path
           d="m 0,0 c -10.3,-17.01 -31.88,-38.097 -39.635,-38.845 -3.719,-0.358 -10.413,-0.514 -14.836,4.271 -9.652,10.44 -16.657,29.196 -17.392,39.588 -0.261,3.695 18.218,9.686 20.511,6.457 5.371,-7.564 11.028,-21.888 12.117,-21.92 4.028,-0.119 19.071,10.345 31.339,17.744 C 6.59,16.033 4.105,6.779 0,0"
           style="fill:#c36358;fill-opacity:1;fill-rule:nonzero;stroke:none"
           id="path9128" /></g><g
         id="g9130"
         transform="matrix(0.5319919,0,0,-0.52474403,85.10862,55.336363)"
         clip-path="url(#clipPath10962)"><path
           d="M 0,0 C 2.647,7.167 4.427,8.601 3.449,15.836 2.807,20.583 5.563,23.03 8.451,18.97 13.173,12.328 11.7,2.364 10.195,-0.942 Z"
           style="fill:#c36358;fill-opacity:1;fill-rule:nonzero;stroke:none"
           id="path9132" /></g><g
         id="g9134"
         transform="matrix(0.5319919,0,0,-0.52474403,84.566254,66.903243)"
         clip-path="url(#clipPath10956)"><path
           d="m 0,0 c 0,0 -2.202,10.61 -0.136,18.527 1.428,5.475 5.863,17.039 22.102,21.67 3.852,1.1 10.12,-0.067 4.481,-4.146 -4.006,-2.898 -7.422,-3.525 -9.445,-5.634 0,0 7.796,-2.431 8.747,-6.332 0.424,-1.744 1.471,-6.53 1.755,-10.373 0,0 -0.82,-0.287 -1.912,-0.503 0,0 0.775,-3.681 -2.398,-8.45 z"
           style="fill:#c36358;fill-opacity:1;fill-rule:nonzero;stroke:none"
           id="path9136" /></g><g
         id="g9138"
         transform="matrix(0.5319919,0,0,-0.52474403,85.662689,54.55334)"
         clip-path="url(#clipPath10950)"><path
           d="M 0,0 C 2.451,1.669 7.705,5.12 12.984,6.448 18.848,7.924 30.542,9.186 31.587,4.845 32.353,1.662 27.93,0.788 27.93,0.788 c 0,0 4.944,-0.497 5.007,-3.523 0.057,-2.757 -3.405,-3.229 -3.405,-3.229 0,0 2.947,-0.817 2.491,-3.484 -0.549,-3.207 -6.635,-0.968 -9.998,-3.738 C 21.27,-13.807 0,0 0,0"
           style="fill:#c36358;fill-opacity:1;fill-rule:nonzero;stroke:none"
           id="path9140" /></g><g
         id="g9142"
         transform="matrix(0.5319919,0,0,-0.52474403,92.849527,54.557433)"
         clip-path="url(#clipPath10944)"><path
           d="M 0,0 C 2.563,1.192 9.076,2.406 14.335,0.889 14.455,0.854 14.493,0.745 14.377,0.754 8.232,1.195 2.449,0.421 0.014,-0.056 -0.019,-0.062 -0.028,-0.014 0,0"
           style="fill:#1a2e35;fill-opacity:1;fill-rule:nonzero;stroke:none"
           id="path9144" /></g><g
         id="g9146"
         transform="matrix(0.5319919,0,0,-0.52474403,93.733485,57.641354)"
         clip-path="url(#clipPath10938)"><path
           d="m 0,0 c 2.316,0.802 9.086,1.753 14.363,0.032 0.117,-0.038 0.148,-0.15 0.033,-0.136 C 7.995,0.621 2.469,0.274 0.01,-0.056 -0.022,-0.06 -0.03,-0.01 0,0"
           style="fill:#1a2e35;fill-opacity:1;fill-rule:nonzero;stroke:none"
           id="path9148" /></g><g
         id="g9150"
         transform="matrix(0.5319919,0,0,-0.52474403,115.60362,77.606185)"
         clip-path="url(#clipPath10932)"><path
           d="m 0,0 -21.804,10.745 c 0,0 20.817,13.643 30.502,17.703 10.094,4.232 13.467,1.918 5.215,-9.997 C 5.611,6.464 0,0 0,0"
           style="fill:#4f1781;fill-opacity:1;fill-rule:nonzero;stroke:none"
           id="path9152" /></g><g
         id="g9154"
         transform="matrix(0.5319919,0,0,-0.52474403,119.75305,71.222149)"
         clip-path="url(#clipPath10926)"><path
           d="M 0,0 C -0.03,0.011 -0.05,0.021 -0.08,0.021 -0.15,0.03 -0.21,0.04 -0.28,0.051 -1.94,0.32 -3.66,0.32 -5.31,-0.05 c -1.72,-0.389 -3.32,-1.16 -4.82,-2.05 -0.79,-0.48 -1.54,-1.009 -2.25,-1.599 -0.06,-0.051 -0.13,-0.101 -0.19,-0.16 -0.57,-0.471 -1.12,-0.991 -1.64,-1.531 -0.77,-0.809 -1.46,-1.679 -2.1,-2.58 l 0.22,-0.11 c 0.63,0.881 1.32,1.721 2.07,2.511 0.56,0.58 1.15,1.12 1.77,1.63 0.06,0.059 0.12,0.109 0.19,0.16 0.66,0.529 1.35,1.019 2.07,1.46 1.48,0.889 3.06,1.659 4.74,2.04 1.59,0.369 3.26,0.389 4.9,0.139 0.08,-0.009 0.16,-0.03 0.24,-0.04 0.02,0 0.03,-0.009 0.05,-0.009 0.45,-0.081 0.9,-0.17 1.35,-0.29 C 1.34,-0.42 1.38,-0.37 1.42,-0.31 0.95,-0.189 0.48,-0.08 0,0 M 9.26,12.36 C 7.72,11.53 6.28,10.5 5.04,9.261 3.79,8.021 2.75,6.59 1.9,5.061 1.01,3.46 0.32,1.771 -0.28,0.051 -0.31,-0.01 -0.33,-0.069 -0.35,-0.14 c -0.52,-1.49 -0.98,-3.009 -1.46,-4.509 0.17,0.229 0.35,0.46 0.52,0.7 0.4,1.26 0.79,2.519 1.23,3.76 C -0.05,-0.13 -0.02,-0.06 0,0 c 0.59,1.69 1.27,3.351 2.14,4.92 0.84,1.52 1.87,2.931 3.09,4.15 1.22,1.231 2.63,2.25 4.14,3.09 0.12,0.07 0.24,0.13 0.36,0.191 0.05,0.109 0.1,0.229 0.15,0.339 C 9.67,12.58 9.46,12.471 9.26,12.36 M -4.08,-7.59 c -0.03,-0.04 -0.06,-0.08 -0.09,-0.12 -1.28,0.79 -2.6,1.54 -3.96,2.2 -1.32,0.651 -2.69,1.2 -4.12,1.571 -0.1,0.029 -0.21,0.049 -0.32,0.08 -0.14,0.04 -0.29,0.069 -0.44,0.099 -1.69,0.361 -3.44,0.441 -5.14,0.12 -1.4,-0.259 -2.75,-0.78 -4.04,-1.44 l -0.29,0.15 c 1.36,0.691 2.79,1.25 4.29,1.52 1.73,0.32 3.52,0.23 5.23,-0.15 0.19,-0.04 0.39,-0.089 0.58,-0.139 0.11,-0.03 0.21,-0.061 0.32,-0.08 1.39,-0.391 2.73,-0.941 4.01,-1.58 1.36,-0.67 2.68,-1.42 3.97,-2.231"
           style="fill:#ffffff;fill-opacity:1;fill-rule:nonzero;stroke:none"
           id="path9156" /></g><g
         id="g9158"
         transform="matrix(0.5319919,0,0,-0.52474403,115.80546,75.256119)"
         clip-path="url(#clipPath10920)"><path
           d="m 0,0 c -0.488,0.314 -1.025,0.563 -1.54,0.831 -0.53,0.275 -1.058,0.554 -1.586,0.832 -1.072,0.563 -2.154,1.107 -3.238,1.645 -2.166,1.076 -4.328,2.161 -6.511,3.2 -0.601,0.286 -1.203,0.57 -1.81,0.84 -0.639,0.284 -1.299,0.521 -1.936,0.806 -0.04,0.018 -0.062,-0.042 -0.025,-0.061 0.528,-0.282 1.034,-0.61 1.562,-0.895 0.54,-0.293 1.084,-0.579 1.633,-0.857 1.078,-0.547 2.161,-1.087 3.248,-1.617 2.141,-1.044 4.279,-2.097 6.441,-3.096 0.604,-0.278 1.21,-0.551 1.814,-0.83 0.631,-0.291 1.261,-0.623 1.916,-0.856 C 0.002,-0.069 0.033,-0.021 0,0"
           style="fill:#1a2e35;fill-opacity:1;fill-rule:nonzero;stroke:none"
           id="path9160" /></g><g
         id="g9162"
         transform="matrix(0.5319919,0,0,-0.52474403,-4.8289202,150.02805)"
         clip-path="url(#clipPath10914)"><g
           id="g9164" /><g
           id="g9176"><g
             clip-path="url(#clipPath9168)"
             opacity="0.100006"
             id="g9174"><g
               transform="translate(240.29,156.4697)"
               id="g9172"><path
                 d="m 0,0 c -8.3,-11.989 -13.91,-18.46 -13.91,-18.46 l -9.67,4.771 L 3.29,11.75 C 5.74,10.91 5.01,7.221 0,0"
                 style="fill:#000000;fill-opacity:1;fill-rule:nonzero;stroke:none"
                 id="path9170" /></g></g></g></g><g
         id="g9178"
         transform="matrix(0.5319919,0,0,-0.52474403,109.55088,99.073568)"
         clip-path="url(#clipPath10908)"><path
           d="M 0,0 C 0.886,-1.057 60.602,-0.367 60.927,-0.006 61.811,0.979 51.37,52.484 40.878,68.196 37.336,73.5 26.082,74.58 22.15,69.436 10.873,54.681 -0.771,0.929 0,0"
           style="fill:#4f1781;fill-opacity:1;fill-rule:nonzero;stroke:none"
           id="path9180" /></g><g
         id="g9182"
         transform="matrix(0.5319919,0,0,-0.52474403,139.51128,86.52379)"
         clip-path="url(#clipPath10902)"><path
           d="m 0,0 c -1.19,0.551 -2.45,0.98 -3.74,1.2 -1.731,0.3 -3.49,0.41 -5.231,0.25 -1.75,-0.13 -3.479,-0.489 -5.119,-1.12 -1.64,-0.619 -3.171,-1.51 -4.57,-2.559 -0.88,-0.661 -1.7,-1.38 -2.49,-2.14 -0.05,-0.04 -0.1,-0.091 -0.15,-0.141 -1.68,-1.62 -3.19,-3.399 -4.73,-5.139 -0.83,-0.93 -1.67,-1.861 -2.55,-2.741 -0.03,-0.03 -0.06,-0.07 -0.09,-0.099 -1.55,-1.54 -3.21,-2.95 -5.11,-4.011 -0.2,-0.109 -0.41,-0.22 -0.62,-0.329 -0.09,-0.051 -0.19,-0.101 -0.29,-0.141 -1.24,-0.599 -2.57,-1.05 -3.92,-1.309 -1.701,-0.33 -3.44,-0.37 -5.161,-0.25 -1.719,0.13 -3.389,0.67 -4.929,1.439 -1.54,0.79 -2.96,1.811 -4.29,2.92 -0.46,0.381 -0.91,0.771 -1.36,1.16 -0.01,0.021 -0.03,0.031 -0.04,0.04 0,-0.019 0,-0.05 -0.01,-0.069 -0.01,-0.061 -0.02,-0.12 -0.04,-0.171 0.43,-0.38 0.87,-0.76 1.31,-1.13 1.33,-1.13 2.75,-2.16 4.31,-2.979 1.56,-0.79 3.259,-1.351 5.02,-1.5 1.75,-0.141 3.509,-0.09 5.239,0.24 1.461,0.29 2.881,0.769 4.211,1.439 0.1,0.05 0.19,0.101 0.289,0.151 0.151,0.069 0.29,0.149 0.431,0.229 1.92,1.071 3.589,2.49 5.12,4.021 0.04,0.029 0.07,0.069 0.1,0.099 0.9,0.911 1.76,1.851 2.59,2.8 1.549,1.75 3.07,3.54 4.74,5.141 0.05,0.059 0.09,0.099 0.14,0.139 0.78,0.75 1.589,1.451 2.45,2.1 1.38,1.051 2.889,1.921 4.5,2.54 1.61,0.631 3.309,0.99 5.04,1.141 C -7.23,1.381 -5.48,1.29 -3.78,1 -2.45,0.78 -1.17,0.351 0.05,-0.22 0.04,-0.149 0.02,-0.069 0,0 m -23.32,-20.77 c -0.51,0.781 -1,1.571 -1.491,2.361 -0.059,0.09 -0.119,0.18 -0.169,0.279 -0.38,0.601 -0.74,1.191 -1.11,1.79 -0.77,1.24 -1.53,2.481 -2.32,3.7 -0.06,0.08 -0.111,0.17 -0.17,0.25 -1.05,1.611 -2.16,3.191 -3.4,4.68 -1.11,1.341 -2.35,2.601 -3.77,3.631 -0.67,0.5 -1.39,0.939 -2.14,1.319 -0.1,0.05 -0.2,0.09 -0.3,0.141 -0.73,0.34 -1.49,0.609 -2.27,0.8 -1.71,0.42 -3.48,0.439 -5.23,0.309 -1.74,-0.139 -3.47,-0.519 -5.11,-1.13 -0.43,-0.16 -0.85,-0.33 -1.261,-0.509 -0.019,-0.071 -0.029,-0.13 -0.049,-0.201 -0.01,-0.03 -0.01,-0.049 -0.02,-0.08 0,-0.009 -0.01,-0.03 -0.01,-0.04 0.02,0.01 0.03,0.021 0.05,0.021 0.04,0.029 0.069,0.04 0.11,0.05 0.419,0.189 0.84,0.36 1.27,0.509 1.62,0.59 3.32,0.97 5.05,1.12 1.72,0.151 3.47,0.13 5.15,-0.269 0.699,-0.171 1.38,-0.4 2.04,-0.69 0.1,-0.041 0.21,-0.09 0.31,-0.14 0.8,-0.381 1.57,-0.841 2.29,-1.37 1.4,-1.021 2.64,-2.25 3.75,-3.58 1.25,-1.481 2.37,-3.05 3.45,-4.67 0.05,-0.08 0.1,-0.17 0.16,-0.25 0.79,-1.21 1.56,-2.441 2.32,-3.66 0.36,-0.58 0.73,-1.17 1.09,-1.75 0.059,-0.101 0.12,-0.191 0.18,-0.281 1.27,-2.04 2.57,-4.059 4.01,-5.99 h 0.139 c -0.889,1.191 -1.739,2.41 -2.549,3.65 m 13.509,-0.5 c -0.889,1.5 -1.729,3.02 -2.58,4.541 -0.71,1.269 -1.42,2.549 -2.16,3.799 -0.05,0.09 -0.099,0.17 -0.149,0.26 -0.99,1.66 -2.03,3.28 -3.21,4.82 -0.901,1.191 -1.901,2.321 -3.03,3.29 -0.07,0.081 -0.14,0.14 -0.21,0.191 -0.121,0.109 -0.24,0.21 -0.36,0.309 -1.36,1.1 -2.92,1.97 -4.61,2.46 -1.691,0.491 -3.47,0.59 -5.21,0.531 -1.75,-0.071 -3.5,-0.38 -5.16,-0.92 -0.58,-0.181 -1.14,-0.391 -1.7,-0.63 -0.09,-0.021 -0.19,-0.061 -0.28,-0.11 -2.571,-1.081 -4.94,-2.621 -7.2,-4.241 -0.06,-0.05 -0.13,-0.09 -0.19,-0.139 -0.04,-0.031 -0.09,-0.061 -0.13,-0.09 -2.73,-1.95 -5.36,-4.04 -8.31,-5.611 -0.02,-0.009 -0.03,-0.019 -0.05,-0.03 -0.01,-0.04 -0.02,-0.09 -0.04,-0.13 0,-0.019 0,-0.05 -0.01,-0.069 0.02,0.01 0.03,0.019 0.05,0.029 0.039,0.021 0.079,0.04 0.12,0.061 3,1.58 5.66,3.679 8.4,5.609 0.039,0.03 0.09,0.061 0.13,0.09 0.05,0.04 0.1,0.07 0.15,0.11 2.32,1.651 4.759,3.201 7.39,4.271 0.09,0.04 0.18,0.08 0.27,0.109 0.48,0.191 0.97,0.37 1.47,0.521 1.66,0.519 3.37,0.83 5.1,0.91 1.72,0.069 3.48,-0.021 5.13,-0.49 1.66,-0.47 3.2,-1.321 4.55,-2.401 0.11,-0.09 0.23,-0.179 0.34,-0.29 0.07,-0.05 0.15,-0.109 0.22,-0.189 1.13,-0.96 2.13,-2.071 3.04,-3.261 1.18,-1.529 2.229,-3.149 3.229,-4.81 0.05,-0.08 0.101,-0.169 0.151,-0.259 0.74,-1.241 1.46,-2.5 2.17,-3.75 1.429,-2.521 2.84,-5.061 4.42,-7.491 h 0.139 c -0.649,0.991 -1.279,1.991 -1.88,3 m 9.96,20.63 c -1.609,-0.549 -3.12,-1.349 -4.509,-2.309 -2.901,-1.99 -5.27,-4.601 -7.68,-7.09 -0.86,-0.891 -1.74,-1.78 -2.66,-2.631 -0.04,-0.04 -0.08,-0.069 -0.111,-0.1 -1.609,-1.48 -3.33,-2.809 -5.269,-3.79 -1.54,-0.78 -3.2,-1.309 -4.9,-1.57 -0.041,-0.01 -0.081,-0.01 -0.12,-0.019 -1.671,-0.231 -3.38,-0.201 -5.05,-0.01 -1.36,0.17 -2.67,0.59 -3.911,1.17 -0.119,0.05 -0.23,0.099 -0.339,0.16 -0.2,0.1 -0.411,0.21 -0.61,0.319 -1.5,0.861 -2.88,1.931 -4.16,3.101 -2.22,2 -4.24,4.22 -6.53,6.159 -0.05,0.051 -0.111,0.091 -0.16,0.141 -0.32,0.269 -0.65,0.53 -0.98,0.79 -1.38,1.059 -2.87,2 -4.49,2.67 -0.211,0.089 -0.43,0.17 -0.65,0.25 -0.041,0.019 -0.081,0.04 -0.13,0.049 -0.01,-0.03 -0.01,-0.049 -0.02,-0.08 0.01,-0.009 0.03,-0.009 0.04,-0.019 0.24,-0.09 0.48,-0.191 0.72,-0.29 1.599,-0.681 3.07,-1.641 4.44,-2.7 0.32,-0.25 0.63,-0.5 0.94,-0.76 0.05,-0.051 0.11,-0.101 0.16,-0.141 2.269,-1.96 4.289,-4.199 6.51,-6.239 1.279,-1.181 2.66,-2.271 4.18,-3.15 l 0.45,-0.241 c 0.11,-0.059 0.23,-0.12 0.34,-0.17 1.309,-0.649 2.71,-1.12 4.16,-1.309 1.74,-0.21 3.51,-0.24 5.25,0.019 h 0.02 c 0.04,0.01 0.07,0.01 0.109,0.021 1.691,0.279 3.341,0.809 4.871,1.59 1.96,0.99 3.679,2.319 5.28,3.79 0.04,0.029 0.08,0.069 0.109,0.099 0.941,0.87 1.841,1.781 2.711,2.691 2.42,2.5 4.77,5.09 7.63,7.059 1.38,0.941 2.859,1.731 4.43,2.271 -0.021,0.09 -0.04,0.18 -0.071,0.269 m -3.91,14.96 c -0.01,0.05 -0.029,0.101 -0.04,0.151 -0.059,-0.01 -0.13,-0.01 -0.189,0 h -0.14 c -1.73,0.069 -3.46,0.37 -5.11,0.889 -1.66,0.51 -3.281,1.161 -4.84,1.911 -1.561,0.769 -3.09,1.599 -4.59,2.479 -1.5,0.891 -2.97,1.811 -4.45,2.74 -1.23,0.771 -2.47,1.54 -3.73,2.281 -0.08,0.059 -0.171,0.11 -0.26,0.16 -1.661,0.969 -3.35,1.889 -5.12,2.67 -1.581,0.7 -3.21,1.259 -4.91,1.559 -0.03,0.011 -0.05,0.021 -0.08,0.021 -0.071,0.009 -0.13,0.019 -0.2,0.03 -1.601,0.26 -3.26,0.269 -4.86,-0.07 -0.031,-0.09 -0.07,-0.17 -0.1,-0.26 1.589,0.369 3.26,0.39 4.89,0.14 0.08,-0.01 0.16,-0.031 0.24,-0.041 0.02,0 0.03,-0.009 0.05,-0.009 1.679,-0.29 3.33,-0.851 4.9,-1.531 1.77,-0.769 3.48,-1.679 5.15,-2.65 0.089,-0.05 0.18,-0.109 0.26,-0.159 1.25,-0.731 2.48,-1.481 3.71,-2.24 2.959,-1.821 5.909,-3.68 9.05,-5.22 1.56,-0.771 3.18,-1.431 4.85,-1.95 1.65,-0.531 3.38,-0.84 5.11,-0.92 h 0.029 c 0.12,0 0.231,-0.011 0.351,-0.011 h 0.04 c 0,0.011 0,0.021 -0.011,0.03 M -16.5,45.521 c -0.78,-0.5 -1.511,-1.071 -2.2,-1.701 -0.061,-0.049 -0.12,-0.099 -0.18,-0.16 -0.31,-0.29 -0.61,-0.59 -0.9,-0.899 -1.2,-1.29 -2.17,-2.771 -2.96,-4.33 -1.571,-3.141 -2.39,-6.571 -3.301,-9.92 -0.329,-1.2 -0.669,-2.401 -1.069,-3.58 -0.01,-0.05 -0.02,-0.101 -0.04,-0.141 -0.69,-2.069 -1.55,-4.069 -2.78,-5.859 -0.78,-1.141 -1.7,-2.181 -2.73,-3.08 -0.02,-0.031 -0.05,-0.05 -0.08,-0.071 -0.24,-0.21 -0.48,-0.41 -0.73,-0.599 -1.38,-1.05 -2.92,-1.861 -4.51,-2.521 -1.6,-0.639 -3.34,-0.899 -5.061,-0.899 -0.899,0.019 -1.809,0.099 -2.699,0.239 -0.14,0.011 -0.27,0.04 -0.41,0.061 -0.56,0.089 -1.121,0.2 -1.68,0.33 -0.02,-0.071 -0.04,-0.141 -0.06,-0.22 0.49,-0.11 0.99,-0.221 1.49,-0.311 0.129,-0.019 0.26,-0.049 0.4,-0.07 0.979,-0.159 1.959,-0.269 2.959,-0.29 1.75,-0.01 3.52,0.24 5.161,0.891 1.63,0.66 3.19,1.479 4.589,2.549 0.281,0.21 0.551,0.441 0.811,0.67 0.03,0.021 0.06,0.05 0.08,0.071 1.03,0.91 1.94,1.95 2.71,3.08 1.24,1.809 2.11,3.809 2.8,5.87 0.01,0.04 0.03,0.09 0.04,0.14 0.41,1.209 0.75,2.44 1.09,3.66 0.9,3.359 1.719,6.769 3.27,9.87 0.77,1.55 1.74,3 2.91,4.279 0.34,0.381 0.7,0.74 1.08,1.07 0.06,0.061 0.12,0.121 0.18,0.151 0.63,0.58 1.299,1.099 2,1.559 -0.06,0.061 -0.12,0.12 -0.18,0.161 m 1.689,-2.241 c -0.979,0.241 -1.979,0.401 -2.979,0.491 -0.17,0.019 -0.351,0.03 -0.53,0.03 -0.12,0.019 -0.25,0.019 -0.38,0.019 -1.441,0.061 -2.9,-0.049 -4.3,-0.41 -1.7,-0.42 -3.35,-1.04 -4.88,-1.889 -1.54,-0.831 -2.98,-1.861 -4.22,-3.1 -1.25,-1.24 -2.29,-2.671 -3.14,-4.2 -0.89,-1.601 -1.58,-3.29 -2.18,-5.01 -0.03,-0.061 -0.05,-0.12 -0.07,-0.19 -0.531,-1.51 -0.99,-3.05 -1.48,-4.571 -0.37,-1.179 -0.76,-2.37 -1.2,-3.54 -0.02,-0.04 -0.04,-0.09 -0.05,-0.139 -0.79,-2.031 -1.74,-3.991 -3.04,-5.731 -0.83,-1.109 -1.801,-2.119 -2.89,-2.979 -0.08,-0.071 -0.161,-0.13 -0.25,-0.201 -0.18,-0.139 -0.371,-0.28 -0.56,-0.41 -0.45,-0.309 -0.92,-0.599 -1.4,-0.859 -0.04,-0.141 -0.08,-0.28 -0.12,-0.431 0.59,0.32 1.15,0.66 1.7,1.04 0.27,0.191 0.53,0.38 0.78,0.59 0.09,0.07 0.18,0.141 0.26,0.21 1.02,0.841 1.929,1.811 2.719,2.86 1.311,1.76 2.261,3.731 3.041,5.76 0.02,0.04 0.03,0.08 0.05,0.13 0.46,1.19 0.85,2.41 1.24,3.61 0.49,1.54 0.95,3.09 1.49,4.611 0.01,0.059 0.04,0.13 0.06,0.189 0.59,1.691 1.27,3.351 2.14,4.92 0.84,1.521 1.87,2.931 3.09,4.15 1.22,1.231 2.63,2.25 4.139,3.09 1.511,0.851 3.141,1.47 4.821,1.891 1.32,0.35 2.7,0.479 4.07,0.449 0.13,0 0.26,-0.01 0.38,-0.01 0.239,-0.009 0.47,-0.019 0.699,-0.04 1.04,-0.089 2.091,-0.259 3.111,-0.519 -0.04,0.069 -0.081,0.13 -0.121,0.189 m 11.05,-28.96 c -0.01,-0.019 -0.019,-0.03 -0.029,-0.03 -1.15,-1.069 -2.431,-1.97 -3.8,-2.72 -1.53,-0.84 -3.19,-1.46 -4.881,-1.88 -1.699,-0.429 -3.479,-0.519 -5.219,-0.37 -1.741,0.16 -3.46,0.54 -5.101,1.141 -1.639,0.59 -3.23,1.319 -4.759,2.149 -1.69,0.92 -3.32,1.941 -4.93,3 -0.09,0.05 -0.17,0.111 -0.26,0.17 -1.22,0.8 -2.42,1.62 -3.63,2.431 -1.191,0.81 -2.39,1.619 -3.61,2.409 -0.081,0.04 -0.15,0.101 -0.24,0.151 -1.36,0.87 -2.74,1.7 -4.18,2.44 0.01,0.05 0.03,0.109 0.05,0.159 1.44,-0.75 2.82,-1.58 4.18,-2.46 0.08,-0.05 0.16,-0.109 0.24,-0.16 1.23,-0.789 2.43,-1.619 3.63,-2.439 1.21,-0.831 2.41,-1.661 3.64,-2.46 0.09,-0.071 0.17,-0.121 0.26,-0.17 0.14,-0.101 0.29,-0.201 0.43,-0.29 1.46,-0.941 2.949,-1.84 4.47,-2.67 1.54,-0.83 3.12,-1.55 4.76,-2.12 1.63,-0.601 3.34,-0.97 5.07,-1.111 1.72,-0.139 3.47,-0.04 5.149,0.391 1.67,0.43 3.311,1.05 4.821,1.899 1.26,0.691 2.46,1.531 3.53,2.521 0.06,0.04 0.119,0.099 0.18,0.17 0.05,0.029 0.099,0.08 0.15,0.139 0.01,-0.049 0.029,-0.089 0.039,-0.139 0.011,-0.05 0.03,-0.101 0.04,-0.151"
           style="fill:#ffffff;fill-opacity:1;fill-rule:nonzero;stroke:none"
           id="path9184" /></g><g
         id="g9186"
         transform="matrix(0.5319919,0,0,-0.52474403,134.65324,64.814552)"
         clip-path="url(#clipPath10896)"><path
           d="M 0,0 C 24.748,-21.021 46.595,-48.987 43.933,-57.413 41.118,-66.322 22.6,-75.379 6.66,-76.498 c -3.264,-0.23 -11.867,24.124 -8.484,25.018 2.636,0.696 14.592,3.335 16.094,4.864 1.043,1.062 -16.443,25.439 -21.579,39.193 C -12.682,6.971 -6.626,5.629 0,0"
           style="fill:#c36358;fill-opacity:1;fill-rule:nonzero;stroke:none"
           id="path9188" /></g><g
         id="g9206"
         transform="matrix(0.5319919,0,0,-0.52474403,135.61332,79.669321)"
         clip-path="url(#clipPath10866)"><path
           d="m 0,0 23.526,6.115 c 0,0 -17.63,17.57 -26.294,23.504 -9.029,6.185 -12.8,4.601 -7.128,-8.736 C -4.188,7.465 0,0 0,0"
           style="fill:#4f1781;fill-opacity:1;fill-rule:nonzero;stroke:none"
           id="path9208" /></g><g
         id="g9210"
         transform="matrix(0.5319919,0,0,-0.52474403,145.84741,74.254802)"
         clip-path="url(#clipPath10860)"><path
           d="m 0,0 c -0.631,-1.051 -1.351,-2.04 -2.171,-2.94 -1.17,-1.27 -2.529,-2.361 -4.01,-3.26 -0.96,-0.601 -1.979,-1.101 -3.04,-1.51 l 1.37,0.35 c 0.611,0.29 1.21,0.61 1.79,0.96 1.5,0.9 2.901,1.99 4.09,3.28 0.821,0.89 1.55,1.88 2.17,2.92 C 0.13,-0.141 0.069,-0.07 0,0 m -27.891,22.479 c -0.969,-0.589 -1.88,-1.269 -2.719,-2.04 -0.061,-0.049 -0.12,-0.099 -0.18,-0.16 -0.311,-0.29 -0.61,-0.59 -0.9,-0.899 -0.031,-0.03 -0.06,-0.07 -0.09,-0.101 0.009,-0.12 0.019,-0.25 0.04,-0.38 0.069,0.101 0.16,0.201 0.25,0.3 0.34,0.381 0.7,0.74 1.08,1.071 0.059,0.06 0.12,0.12 0.18,0.15 0.809,0.739 1.69,1.39 2.62,1.96 -0.101,0.04 -0.191,0.069 -0.281,0.099 m 10.97,-7.089 c -0.949,0.599 -1.92,1.17 -2.909,1.71 -1.53,0.839 -3.12,1.57 -4.761,2.16 -1.639,0.599 -3.37,0.979 -5.109,1.13 -0.17,0.019 -0.351,0.03 -0.53,0.03 -0.121,0.019 -0.25,0.019 -0.38,0.019 -0.39,0.021 -0.79,0.021 -1.18,0.01 -0.011,-0.059 -0.011,-0.119 -0.011,-0.189 0.34,0.019 0.681,0.03 1.011,0.019 0.13,0 0.26,-0.009 0.38,-0.009 0.239,-0.01 0.47,-0.02 0.699,-0.041 1.721,-0.149 3.44,-0.519 5.07,-1.11 1.63,-0.579 3.22,-1.3 4.75,-2.119 1.191,-0.65 2.361,-1.341 3.51,-2.051 -0.18,0.151 -0.359,0.301 -0.54,0.441"
           style="fill:#ffffff;fill-opacity:1;fill-rule:nonzero;stroke:none"
           id="path9212" /></g><g
         id="g9214"
         transform="matrix(0.5319919,0,0,-0.52474403,141.72963,70.419133)"
         clip-path="url(#clipPath10854)"><path
           d="m 0,0 c -0.24,-0.68 -0.46,-1.36 -0.681,-2.05 -1.049,-3.3 -2.009,-6.69 -3.719,-9.76 -0.85,-1.53 -1.89,-2.97 -3.14,-4.2 -0.08,-0.08 -0.16,-0.16 -0.24,-0.219 0.69,-0.011 1.37,0.019 2.05,0.099 l -1.01,-0.26 c -0.401,-0.02 -0.81,-0.02 -1.22,-0.01 -0.16,-0.16 -0.32,-0.3 -0.48,-0.43 l -0.59,-0.16 c 0.24,0.18 0.469,0.38 0.69,0.6 -1.41,0.07 -2.82,0.29 -4.181,0.65 -0.019,0.06 -0.059,0.12 -0.089,0.18 1.41,-0.38 2.86,-0.6 4.31,-0.66 h 0.14 c 0.15,0.12 0.29,0.26 0.43,0.4 1.22,1.22 2.25,2.63 3.08,4.14 1.69,3.04 2.65,6.41 3.7,9.72 0.229,0.72 0.46,1.45 0.72,2.17 C -0.15,0.14 -0.08,0.07 0,0"
           style="fill:#ffffff;fill-opacity:1;fill-rule:nonzero;stroke:none"
           id="path9216" /></g><g
         id="g9218"
         transform="matrix(0.5319919,0,0,-0.52474403,135.89746,77.327441)"
         clip-path="url(#clipPath10848)"><path
           d="m 0,0 c 0.541,0.209 1.117,0.344 1.676,0.502 0.574,0.163 1.148,0.329 1.721,0.494 1.165,0.335 2.333,0.649 3.504,0.957 2.339,0.616 4.675,1.241 7.024,1.818 0.646,0.158 1.293,0.315 1.942,0.457 0.684,0.148 1.378,0.248 2.059,0.398 0.043,0.009 0.052,-0.054 0.011,-0.065 C 17.364,4.391 16.803,4.173 16.228,4 15.639,3.822 15.048,3.652 14.455,3.491 13.288,3.173 12.118,2.862 10.946,2.563 8.639,1.974 6.332,1.375 4.013,0.834 3.365,0.684 2.717,0.538 2.069,0.388 1.393,0.229 0.708,0.032 0.02,-0.062 -0.016,-0.067 -0.037,-0.015 0,0"
           style="fill:#1a2e35;fill-opacity:1;fill-rule:nonzero;stroke:none"
           id="path9220" /></g><g
         id="g9222"
         transform="matrix(0.5319919,0,0,-0.52474403,131.28046,72.144019)"
         clip-path="url(#clipPath10842)"><path
           d="M 0,0 C -0.027,0.042 0.039,0.085 0.071,0.049 0.697,-0.655 1.264,-1.417 1.776,-2.211 1.597,-1.816 1.41,-1.426 1.234,-1.029 0.667,0.247 0.123,1.533 -0.447,2.808 -0.468,2.854 -0.399,2.89 -0.376,2.844 0.77,0.69 2.005,-1.419 3.082,-3.608 c 1.078,-2.189 2.159,-4.376 3.204,-6.581 0.575,-1.215 1.194,-2.761 1.768,-3.978 0.705,0.08 1.57,0.339 2.326,0.439 0.067,0.009 0.073,-0.101 0.009,-0.119 C 9.615,-14.051 8.727,-14.438 7.893,-14.578 7.787,-14.596 3.897,-6.809 2.162,-3.052 1.415,-2.055 0.686,-1.04 0,0"
           style="fill:#1a2e35;fill-opacity:1;fill-rule:nonzero;stroke:none"
           id="path9224" /></g><g
         id="g9226"
         transform="matrix(0.5319919,0,0,-0.52474403,123.18057,67.61149)"
         clip-path="url(#clipPath10836)"><path
           d="m 0,0 c 3.369,-0.996 9.518,3.896 12.066,7.995 0.173,0.282 -0.101,3.361 -0.258,7.12 -0.087,2.281 -0.129,4.822 -10e-4,7.145 0.029,0.476 -14.761,-2.732 -14.761,-2.732 0,0 1.162,-4.947 0.913,-8.994 C -2.065,10.196 -2.116,9.884 -2.194,9.587 -2.201,9.543 -2.217,9.491 -2.224,9.43 -2.619,7.637 -3.256,0.965 0,0"
           style="fill:#c36358;fill-opacity:1;fill-rule:nonzero;stroke:none"
           id="path9228" /></g><g
         id="g9230"
         transform="matrix(0.5319919,0,0,-0.52474403,128.98364,55.936408)"
         clip-path="url(#clipPath10830)"><path
           d="m 0,0 c -0.893,-3.889 -3.861,-13.238 -11.642,-12.984 -0.542,0.017 -1.037,0.071 -1.486,0.164 0,0.065 0.019,0.111 0.027,0.158 0.074,0.3 0.129,0.607 0.157,0.944 0.248,4.055 -0.917,9.001 -0.917,9.001 0,0 10.668,2.315 13.861,2.717"
           style="fill:#1a2e35;fill-opacity:1;fill-rule:nonzero;stroke:none"
           id="path9232" /></g><g
         id="g9234"
         transform="matrix(0.5319919,0,0,-0.52474403,130.49083,46.932273)"
         clip-path="url(#clipPath10824)"><path
           d="m 0,0 c 1.333,-5.24 -2.097,-20.037 -5.927,-23.191 -5.555,-4.575 -14.298,-4.625 -18.096,1.97 -3.681,6.395 1.13,25.599 5.377,28.43 C -12.391,11.379 -1.971,7.742 0,0"
           style="fill:#c36358;fill-opacity:1;fill-rule:nonzero;stroke:none"
           id="path9236" /></g><g
         id="g9238"
         transform="matrix(0.5319919,0,0,-0.52474403,130.49083,46.932273)"
         clip-path="url(#clipPath10818)"><path
           d="m 0,0 c 1.333,-5.24 -2.097,-20.037 -5.927,-23.191 -5.555,-4.575 -14.298,-4.625 -18.096,1.97 -3.681,6.395 1.13,25.599 5.377,28.43 C -12.391,11.379 -1.971,7.742 0,0"
           style="fill:#c36358;fill-opacity:1;fill-rule:nonzero;stroke:none"
           id="path9240" /></g><g
         id="g9242"
         transform="matrix(0.5319919,0,0,-0.52474403,122.36571,51.449951)"
         clip-path="url(#clipPath10812)"><path
           d="M 0,0 C 0.017,0.036 0.067,-0.065 0.057,-0.105 -0.201,-1.097 -0.33,-2.274 0.499,-2.81 0.524,-2.826 0.51,-2.876 0.477,-2.864 -0.589,-2.459 -0.403,-0.897 0,0"
           style="fill:#1a2e35;fill-opacity:1;fill-rule:nonzero;stroke:none"
           id="path9244" /></g><g
         id="g9246"
         transform="matrix(0.5319919,0,0,-0.52474403,122.96548,51.009271)"
         clip-path="url(#clipPath10806)"><path
           d="M 0,0 C 1.632,-0.242 1.028,-3.489 -0.484,-3.265 -1.973,-3.044 -1.369,0.203 0,0"
           style="fill:#1a2e35;fill-opacity:1;fill-rule:nonzero;stroke:none"
           id="path9248" /></g><g
         id="g9250"
         transform="matrix(0.5319919,0,0,-0.52474403,119.36757,50.916497)"
         clip-path="url(#clipPath10800)"><path
           d="M 0,0 C 0,0.04 -0.087,-0.032 -0.094,-0.074 -0.249,-1.086 -0.597,-2.219 -1.569,-2.383 -1.599,-2.389 -1.605,-2.439 -1.571,-2.44 -0.432,-2.491 0.015,-0.983 0,0"
           style="fill:#1a2e35;fill-opacity:1;fill-rule:nonzero;stroke:none"
           id="path9252" /></g><g
         id="g9254"
         transform="matrix(0.5319919,0,0,-0.52474403,118.99374,50.277516)"
         clip-path="url(#clipPath10794)"><path
           d="M 0,0 C -1.595,0.424 -2.325,-2.797 -0.848,-3.189 0.607,-3.576 1.337,-0.355 0,0"
           style="fill:#1a2e35;fill-opacity:1;fill-rule:nonzero;stroke:none"
           id="path9256" /></g><g
         id="g9258"
         transform="matrix(0.5319919,0,0,-0.52474403,124.01,49.66514)"
         clip-path="url(#clipPath10788)"><path
           d="m 0,0 c -0.449,0.117 -0.844,0.299 -1.276,0.46 -0.488,0.182 -0.895,0.276 -1.212,0.717 -0.17,0.236 -0.095,0.657 0.118,0.844 0.499,0.435 1.151,0.361 1.747,0.167 C 0.024,1.977 0.468,1.647 0.835,1.076 1.191,0.523 0.592,-0.153 0,0"
           style="fill:#1a2e35;fill-opacity:1;fill-rule:nonzero;stroke:none"
           id="path9260" /></g><g
         id="g9262"
         transform="matrix(0.5319919,0,0,-0.52474403,118.45659,49.384821)"
         clip-path="url(#clipPath10782)"><path
           d="M 0,0 C 0.463,-0.01 0.893,0.058 1.353,0.095 1.872,0.137 2.289,0.117 2.714,0.455 2.942,0.636 2.985,1.062 2.83,1.3 2.469,1.854 1.821,1.96 1.194,1.936 0.515,1.908 -0.002,1.713 -0.511,1.264 -1.004,0.827 -0.612,0.014 0,0"
           style="fill:#1a2e35;fill-opacity:1;fill-rule:nonzero;stroke:none"
           id="path9264" /></g><g
         id="g9266"
         transform="matrix(0.5319919,0,0,-0.52474403,122.33454,56.518034)"
         clip-path="url(#clipPath10776)"><path
           d="m 0,0 c -0.285,-0.191 -0.585,-0.471 -0.956,-0.434 -0.356,0.037 -0.736,0.271 -1.034,0.455 -0.03,0.018 -0.068,-0.01 -0.053,-0.043 0.189,-0.435 0.693,-0.779 1.175,-0.785 0.47,-0.005 0.768,0.347 0.956,0.743 C 0.114,-0.009 0.042,0.027 0,0"
           style="fill:#1a2e35;fill-opacity:1;fill-rule:nonzero;stroke:none"
           id="path9268" /></g><g
         id="g9270"
         transform="matrix(0.5319919,0,0,-0.52474403,122.06987,54.834655)"
         clip-path="url(#clipPath10770)"><path
           d="m 0,0 c -0.725,-0.769 -1.642,-1.092 -2.569,-1.099 -0.414,-0.005 -0.838,0.058 -1.243,0.172 -0.08,0.018 -0.16,0.041 -0.23,0.072 -0.071,0.022 -0.136,0.043 -0.214,0.075 -0.114,0.039 -0.161,0.147 -0.16,0.262 l 0.002,0.007 c 0.007,0.037 0.014,0.067 0.029,0.102 l 10e-4,0.007 0.018,0.088 c 0.123,0.778 0.417,1.942 0.417,1.942 -0.309,-0.089 -1.873,-0.47 -1.775,-0.069 0.823,3.312 1.739,6.996 3.257,10.117 0.045,0.106 0.209,0.049 0.178,-0.06 -0.664,-3.214 -1.89,-6.29 -2.609,-9.509 0.493,0.089 1.304,0.274 1.708,0.191 0.104,-0.053 -0.609,-2.239 -0.636,-2.594 0,0 -0.004,-0.015 -10e-4,-0.038 1.27,-0.408 2.325,-0.197 3.75,0.441 C 0.008,0.151 0.076,0.068 0,0"
           style="fill:#1a2e35;fill-opacity:1;fill-rule:nonzero;stroke:none"
           id="path9272" /></g><g
         id="g9274"
         transform="matrix(0.5319919,0,0,-0.52474403,120.32398,55.159052)"
         clip-path="url(#clipPath10764)"><path
           d="M 0,0 C 0,0 0.515,-1.055 1.393,-1.564 1.715,-1.753 2.08,-1.871 2.49,-1.84 c 0.843,0.063 1,0.796 0.969,1.453 C 3.437,0.154 3.279,0.646 3.279,0.646 3.279,0.646 1.902,-0.234 0,0"
           style="fill:#1a2e35;fill-opacity:1;fill-rule:nonzero;stroke:none"
           id="path9276" /></g><g
         id="g9278"
         transform="matrix(0.5319919,0,0,-0.52474403,121.06483,55.979962)"
         clip-path="url(#clipPath10758)"><path
           d="M 0,0 C 0.323,-0.188 0.687,-0.307 1.098,-0.275 1.94,-0.213 2.097,0.521 2.067,1.178 1.189,1.25 0.229,0.824 0,0"
           style="fill:#ff98bb;fill-opacity:1;fill-rule:nonzero;stroke:none"
           id="path9280" /></g><g
         id="g9282"
         transform="matrix(0.5319919,0,0,-0.52474403,-4.8289202,150.02805)"
         clip-path="url(#clipPath10752)"><g
           id="g9284" /><g
           id="g9296"><g
             clip-path="url(#clipPath9288)"
             opacity="0.199997"
             id="g9294"><g
               transform="translate(253.7588,185.5391)"
               id="g9292"><path
                 d="m 0,0 c -0.947,0.394 -2.5,4.28 -3.183,5.841 -0.722,1.621 0.438,8.778 0.73,10.403 1.475,-1.406 2.589,-3.163 3.115,-5.215 C 1.276,8.653 0.921,4.341 0,0"
                 style="fill:#1a2e35;fill-opacity:1;fill-rule:nonzero;stroke:none"
                 id="path9290" /></g></g></g></g><g
         id="g9298"
         transform="matrix(0.5319919,0,0,-0.52474403,121.63838,45.677242)"
         clip-path="url(#clipPath10746)"><path
           d="m 0,0 c 0.879,-1.57 2.497,-2.616 4.307,-2.693 1.762,-0.076 3.698,0.755 4.651,2.281 0.028,0.046 0.099,0.002 0.071,-0.044 C 8.01,-2.089 6.277,-3.25 4.294,-3.117 2.433,-2.992 0.659,-1.759 -0.114,-0.062 -0.147,0.013 -0.041,0.072 0,0"
           style="fill:#1a2e35;fill-opacity:1;fill-rule:nonzero;stroke:none"
           id="path9300" /></g><g
         id="g9302"
         transform="matrix(0.5319919,0,0,-0.52474403,125.83223,39.635025)"
         clip-path="url(#clipPath10740)"><path
           d="M 0,0 C 2.946,-0.675 5.325,-2.872 5.991,-5.111 6.396,-6.472 6.238,-7.735 5.778,-8.96 5.76,-9.01 5.656,-8.977 5.672,-8.926 c 0.583,1.969 0.063,4.455 -1.795,6.296 -1.785,1.769 -4.436,2.749 -6.992,2.339 -1.334,-0.213 -2.499,-0.792 -3.21,-1.643 -0.08,-0.095 -0.287,0.02 -0.217,0.12 C -5.359,-0.132 -2.666,0.61 0,0"
           style="fill:#1a2e35;fill-opacity:1;fill-rule:nonzero;stroke:none"
           id="path9304" /></g><g
         id="g9306"
         transform="matrix(0.5319919,0,0,-0.52474403,115.98596,41.142142)"
         clip-path="url(#clipPath10734)"><path
           d="M 0,0 C 0.767,1.361 2.042,2.4 3.504,2.936 5.551,3.686 7.57,3.097 9.563,2.47 9.618,2.452 9.592,2.368 9.538,2.386 7.839,2.913 6.084,3.35 4.322,2.862 2.885,2.465 1.567,1.58 0.711,0.352 -1.067,-2.196 -0.647,-5.897 1.7,-7.947 3.029,-9.107 4.852,-9.682 6.604,-9.49 6.673,-9.482 6.701,-9.587 6.63,-9.597 3.409,-10.036 0.155,-7.937 -0.608,-4.741 -0.985,-3.164 -0.802,-1.42 0,0"
           style="fill:#1a2e35;fill-opacity:1;fill-rule:nonzero;stroke:none"
           id="path9308" /></g><g
         id="g9310"
         transform="matrix(0.5319919,0,0,-0.52474403,130.71836,48.528491)"
         clip-path="url(#clipPath10728)"><path
           d="m 0,0 c 0,0 3.881,4.729 2.148,8.271 -0.982,2.006 -5.449,2.668 -5.449,2.668 0,0 -0.912,2.83 -4.406,4.405 -3.53,1.592 -8.364,0.317 -8.364,0.317 0,0 -3.109,2.719 -6.779,1.501 -5.118,-1.699 -5.951,-8.806 -1.784,-11.983 2.926,-2.232 7.909,-0.246 7.909,-0.246 0.412,-0.144 4.223,-3.631 8.281,-0.421 0,0 2.188,-2.906 4.915,-1.727 0,0 0.727,-2.647 3.529,-2.785"
           style="fill:#1a2e35;fill-opacity:1;fill-rule:nonzero;stroke:none"
           id="path9312" /></g><g
         id="g9314"
         transform="matrix(0.5319919,0,0,-0.52474403,128.48937,53.235813)"
         clip-path="url(#clipPath10722)"><path
           d="M 0,0 C 0,0 3.695,4.594 5.801,3.245 7.909,1.896 4.904,-4.922 2.272,-5.705 -0.36,-6.489 -1.134,-4.066 -1.134,-4.066 Z"
           style="fill:#c36358;fill-opacity:1;fill-rule:nonzero;stroke:none"
           id="path9316" /></g><g
         id="g9318"
         transform="matrix(0.5319919,0,0,-0.52474403,131.09187,52.547086)"
         clip-path="url(#clipPath10716)"><path
           d="m 0,0 c 0.041,0.001 0.046,-0.058 0.009,-0.07 -1.85,-0.609 -2.91,-2.214 -3.691,-3.901 0.581,0.63 1.334,0.947 2.185,0.249 0.044,-0.037 -0.006,-0.107 -0.056,-0.092 -0.726,0.207 -1.267,0.115 -1.805,-0.443 -0.381,-0.394 -0.658,-0.907 -0.943,-1.373 -0.095,-0.155 -0.38,-0.05 -0.306,0.131 0.005,0.014 0.011,0.027 0.017,0.041 C -4.481,-3.159 -2.48,-0.065 0,0"
           style="fill:#1a2e35;fill-opacity:1;fill-rule:nonzero;stroke:none"
           id="path9320" /></g><g
         id="g9322"
         transform="matrix(0.5319919,0,0,-0.52474403,130.52769,63.999257)"
         clip-path="url(#clipPath10710)"><path
           d="m 0,0 c -1.69,-1.905 -3.309,-3.854 -5.2,-5.557 -1.771,-1.592 -3.884,-3.018 -6.273,-3.214 -2.312,-0.191 -4.615,0.302 -5.442,3.136 -0.655,2.248 -0.522,4.555 -0.099,7.419 0.019,0.131 -0.152,0.16 -0.171,0.029 -0.56,-3.692 -1.166,-9.414 2.183,-10.723 3.746,-1.466 7.451,0.436 10.118,3.007 1.805,1.741 3.562,3.725 4.951,5.845 C 0.095,-0.015 0.034,0.038 0,0"
           style="fill:#1a2e35;fill-opacity:1;fill-rule:nonzero;stroke:none"
           id="path9324" /></g></g></g></svg>
