<?xml version="1.0" encoding="UTF-8" standalone="no"?>
<!-- Created with Inkscape (http://www.inkscape.org/) -->

<svg
   width="42.697639mm"
   height="32.956684mm"
   viewBox="0 0 42.697639 32.956684"
   version="1.1"
   id="svg2865"
   xml:space="preserve"
   xmlns="http://www.w3.org/2000/svg"
   xmlns:svg="http://www.w3.org/2000/svg"><defs
     id="defs2862"><clipPath
       clipPathUnits="userSpaceOnUse"
       id="clipPath7788"><g
         id="g7796"><g
           id="g7794"><g
             id="g7792"
             transform="matrix(3.0095497,0,0,2.7689983,-50.285475,-32.582933)"><path
               d="M -29.414286,-18.10286 H 146.97459 V 158.28603 H -29.414286 Z"
               id="path7790"
               style="stroke-width:0.352778" /></g></g></g></clipPath><clipPath
       clipPathUnits="userSpaceOnUse"
       id="clipPath7798"><g
         id="g7806"><g
           id="g7804"><g
             id="g7802"
             transform="matrix(3.0095497,0,0,2.7689983,-50.285475,-32.582933)"><path
               d="M -29.414286,-18.10286 H 146.97459 V 158.28603 H -29.414286 Z"
               id="path7800"
               style="stroke-width:0.352778" /></g></g></g></clipPath></defs><g
     id="layer6"
     transform="translate(-19.958572,-18.654982)"><g
       id="g8573"
       style="display:inline"><path
         style="fill:#ffffff;fill-opacity:1;stroke-width:0.21419"
         d="m 35.127177,50.357306 c -2.356091,-0.684985 -5.113126,-1.499233 -6.126745,-1.809438 l -1.842944,-0.56401 -0.136793,-1.448422 c -0.171058,-1.811242 -0.177802,-9.852657 -0.0088,-10.482818 0.173916,-0.648465 2.80625,-1.906455 4.65296,-2.223646 2.315525,-0.397713 4.81734,0.137118 6.443546,1.377485 0.698077,0.532447 0.765175,0.540017 5.361395,0.604792 4.596387,0.06478 4.659578,0.0719 5.063554,0.571249 0.468212,0.578749 0.536853,1.700914 0.137454,2.247127 -0.358781,0.49066 -2.323561,0.765281 -5.725695,0.800294 -1.472557,0.01516 -3.25569,0.08938 -3.962519,0.164949 -1.198629,0.128148 -1.289653,0.176546 -1.352193,0.718949 -0.05371,0.465826 0.03744,0.60778 0.458073,0.713351 0.288819,0.07249 2.680439,0.04384 5.31471,-0.06367 l 4.789585,-0.195466 1.713521,-0.962973 c 2.280312,-1.281501 9.437275,-4.802277 10.585453,-5.207378 1.012984,-0.357402 1.551636,-0.204896 1.957972,0.554352 0.56922,1.063593 0.677868,0.968209 -9.651857,8.473509 -10.853164,7.885616 -11.022275,7.995534 -12.28612,7.985729 -0.685676,-0.0053 -2.716147,-0.478182 -5.384565,-1.253969 z"
         id="path10367"
         clip-path="url(#clipPath7798)" /><path
         style="fill:#ffffff;fill-opacity:1;stroke-width:0.21419"
         d="M 21.220132,51.21975 C 20.756439,51.11965 20.547555,50.91678 20.419084,50.441769 20.3235,50.088357 20.180782,46.17686 20.101933,41.749555 l -0.143361,-8.049646 0.51014,-0.357318 c 0.361845,-0.253444 0.959213,-0.357314 2.054964,-0.357314 1.854297,0 2.549572,0.229735 2.707697,0.894686 0.06508,0.273653 0.186876,4.181663 0.27067,8.684466 l 0.152353,8.186918 -0.511267,0.189389 c -0.718873,0.266292 -3.173283,0.440857 -3.922997,0.279014 z"
         id="path10369"
         clip-path="url(#clipPath7788)" /><path
         style="display:inline;fill:#000000;stroke-width:0.264583"
         d="m 22.41538,23.854205 v 2.347557"
         id="path8040" /><g
         id="g8563"
         transform="translate(1.6064258)"><rect
           style="fill:#ffffff;fill-opacity:1;stroke-width:0.264583"
           id="rect8042"
           width="29.306595"
           height="3.2562883"
           x="22.036741"
           y="23.248384" /><rect
           style="fill:#ffffff;fill-opacity:1;stroke-width:0.264583"
           id="rect8044"
           width="2.1961014"
           height="4.16502"
           x="23.324112"
           y="19.537731" /><rect
           style="fill:#ffffff;fill-opacity:1;stroke-width:0.264583"
           id="rect8044-9"
           width="2.1961014"
           height="4.16502"
           x="27.224087"
           y="19.499866" /><ellipse
           style="fill:#ffffff;fill-opacity:1;stroke-width:0.264583"
           id="path8120"
           cx="50.651211"
           cy="24.334555"
           rx="5.338798"
           ry="5.6795726" /><ellipse
           style="fill:#4f1781;fill-opacity:1;stroke-width:0.137331"
           id="path8120-0"
           cx="50.764801"
           cy="24.486013"
           rx="2.9155135"
           ry="2.8019223" /></g></g></g></svg>
