<?xml version="1.0" encoding="UTF-8" standalone="no"?>
<!-- Created with Inkscape (http://www.inkscape.org/) -->

<svg
   version="1.1"
   id="svg7"
   width="1280"
   height="960"
   viewBox="0 0 1280 960"
   xmlns="http://www.w3.org/2000/svg"
   xmlns:svg="http://www.w3.org/2000/svg">
  <defs
     id="defs11" />
  <g
     id="g13"
     transform="translate(1.3560169e-5,9.1428574)">
    <g
       id="g175"
       transform="translate(-1.3560169e-5,-9.1428574)">
      <path
         style="fill:#fdfdfd;stroke-width:0.32"
         d="M 0,480 V 0 h 640 640 V 480 960 H 640 0 Z"
         id="path179" />
      <path
         style="fill:#383a5b;stroke-width:0.32"
         d="m 635.99693,736.86493 c -6.7345,-6.31546 -8.30077,-7.94061 -8.23197,-8.54147 0.0467,-0.4081 4.49488,-17.64368 9.88477,-38.30132 5.38992,-20.6576 9.70768,-37.65142 9.59504,-37.76403 -0.11261,-0.11264 -0.2625,-0.14477 -0.33309,-0.0715 -0.0706,0.0733 -8.79965,12.58934 -19.39792,27.81334 -10.5983,15.224 -19.54205,27.9655 -19.87501,28.31443 -0.5992,0.62794 -0.69197,0.54787 -9.08208,-7.83773 -4.66217,-4.65971 -8.47667,-8.63363 -8.47667,-8.83094 0,-0.31949 59.26259,-68.08486 61.95002,-70.8384 l 1.08592,-1.11264 12.80515,12.79034 c 7.04281,7.03472 12.88054,13.02803 12.97273,13.31852 0.0959,0.30208 -5.33232,12.26148 -12.68064,27.93805 -7.06659,15.07546 -12.76812,27.49008 -12.67014,27.58807 0.098,0.098 0.51258,-0.16109 0.92128,-0.57575 2.39571,-2.43059 212.6255,-228.29225 212.85424,-228.68125 0.2127,-0.36172 -4.66758,-5.42032 -20.63907,-21.39321 C 835.17478,439.17376 825.58954,429.76 825.37898,429.76 c -0.2106,0 -26.34154,26.352 -58.06877,58.56 -31.72727,32.208 -57.84205,58.56 -58.03287,58.56 -0.43977,0 -64.62204,-62.44803 -64.62624,-62.88 -0.003,-0.176 26.70711,-25.85318 59.3529,-57.06038 36.38941,-34.78586 59.356,-56.96567 59.356,-57.3226 0,-0.66812 -42.44474,-38.19555 -43.38285,-38.35689 -0.40467,-0.0696 -17.15075,15.97629 -55.23894,52.92931 -30.06202,29.16605 -56.8425,55.1807 -59.51219,57.81034 -3.56349,3.51004 -4.9754,4.70924 -5.31076,4.51068 -0.60528,-0.3584 -61.03526,-59.08771 -61.03526,-59.31756 0,-0.098 26.7879,-28.54052 59.5287,-63.20554 38.72826,-41.00442 59.49773,-63.22017 59.44,-63.57916 -0.0947,-0.58907 -48.35241,-47.2882 -48.86646,-47.2882 -0.29254,0 -182.90458,185.89226 -184.14874,187.45658 l -0.60646,0.76256 17.32646,17.33728 c 9.52957,9.53552 17.3265,17.49273 17.3265,17.68265 0,0.42003 -16.4167,11.96093 -17.01418,11.96093 -0.23286,0 -7.41507,-6.99056 -15.96041,-15.53459 -10.63485,-10.63319 -15.68349,-15.47181 -16.00122,-15.33559 -0.72915,0.31261 -15.17581,18.20522 -15.25523,18.89405 -0.0527,0.45712 4.13856,4.15245 16.24,14.3184 8.97107,7.53626 16.31104,13.86317 16.31104,14.05981 0,0.55648 -11.27491,11.75866 -11.82835,11.75203 -0.2704,-0.003 -7.76365,-5.75894 -16.65165,-12.79049 -8.888,-7.03156 -16.38688,-12.7889 -16.66419,-12.79412 -0.57274,-0.0109 -12.13581,14.70999 -12.13581,15.44992 0,0.2618 6.55994,6.2642 14.57763,13.33863 8.70743,7.68301 14.53831,13.05056 14.48,13.32941 -0.0537,0.25673 -2.25763,3.26595 -4.89763,6.68716 -3.42877,4.4434 -4.96528,6.19824 -5.37853,6.14288 -0.31821,-0.0426 -11.36832,-10.13766 -24.55581,-22.43344 -16.99955,-15.85004 -23.9063,-22.48272 -23.73344,-22.79161 0.13412,-0.23962 18.97274,-19.98746 41.86362,-43.88407 22.89091,-23.8966 82.74762,-86.88713 133.01491,-139.97894 50.2673,-53.09181 91.56339,-96.63457 91.76909,-96.7617 0.2345,-0.14492 15.71197,15.10688 41.49546,40.89036 31.49824,31.49823 41.05635,41.23275 40.8431,41.59693 -0.15312,0.26149 -27.68026,28.65104 -61.17139,63.08791 -33.49117,34.43684 -60.9801,62.83946 -61.08656,63.1169 -0.13853,0.36096 3.98333,4.68208 14.49168,15.19229 8.07689,8.07833 14.82934,14.68787 15.00544,14.68787 0.17609,0 28.27209,-27.95053 62.43552,-62.11229 38.06761,-38.06573 62.30185,-62.0688 62.59705,-61.99999 0.40647,0.0947 74.84733,70.95478 76.49229,72.81279 0.54887,0.61994 0.32109,0.87504 -9.44,10.57203 -5.50134,5.46525 -32.61043,32.20026 -60.24243,59.41117 -27.632,27.21091 -50.38333,49.69088 -50.5585,49.95552 -0.25376,0.38339 2.67248,3.47408 14.4,15.20922 9.70698,9.71325 14.90743,14.69798 15.27335,14.63981 0.30515,-0.0485 27.23632,-27.16026 59.84707,-60.24826 32.61072,-33.088 59.51347,-60.16 59.7839,-60.16 0.45181,0 73.57418,71.09299 73.57418,71.53226 0,0.45219 -255.44352,276.31619 -255.93978,276.39993 -0.34438,0.0581 -3.62115,-2.79129 -8.86329,-7.70726 z M 557.2497,663.48237 C 534.90349,642.65926 532.48,640.36061 532.48,639.98816 c 0,-0.3183 59.44323,-69.49968 59.98938,-69.81699 0.47027,-0.27322 43.2304,38.59021 43.17334,39.23897 -0.057,0.64762 -57.40525,72.82986 -57.86282,72.82986 -0.22028,0 -9.45888,-8.44093 -20.5302,-18.75763 z M 591.96067,632.3336 C 601.3103,621.25309 608.96,612.05939 608.96,611.9032 c 0,-0.34186 -18.25744,-12.5432 -18.76896,-12.5432 -0.19683,0 -6.53034,7.08662 -14.07446,15.74806 -20.07607,23.04948 -20.31712,23.3313 -20.21255,23.63354 0.13831,0.39987 18.26554,13.70522 18.69664,13.7233 0.19834,0.008 8.01034,-9.05079 17.36,-20.1313 z M 498.56,608.75856 c -5.016,-4.67744 -9.22138,-8.68102 -9.34528,-8.8968 -0.1239,-0.21578 0.62976,-5.49296 1.67482,-11.72704 1.04505,-6.23411 1.90243,-11.37072 1.90528,-11.41472 0.0427,-0.66026 -2.01511,0.98246 -7.7002,6.14704 -3.77004,3.4249 -7.02009,6.2329 -7.22236,6.24 -0.52512,0.0186 -11.77437,-10.54784 -11.88026,-11.15904 -0.054,-0.31133 12.30432,-12.89699 31.92016,-32.50755 l 32.00816,-31.99959 24.23917,24.23917 24.23917,24.23914 -17.75824,17.76041 c -9.76704,9.76823 -17.83716,17.76042 -17.93357,17.76042 -0.0964,0 -6.9369,-7.0552 -15.20106,-15.67818 -8.26419,-8.623 -15.13104,-15.679 -15.25968,-15.68 -0.41357,-0.003 -0.50246,1.07671 -2.00205,24.31818 -1.71849,26.63421 -1.73891,26.88269 -2.20825,26.87152 -0.19568,-0.004 -4.45981,-3.83549 -9.47581,-8.51296 z m 48.03658,-43.69754 c 3.32387,-2.32041 6.04342,-4.34188 6.04342,-4.49209 0,-0.33591 -19.84064,-23.92893 -20.1231,-23.92893 -0.11136,0 -3.293,3.09302 -7.07031,6.87341 -5.52473,5.52921 -6.7895,6.95289 -6.46733,7.28 1.92954,1.95907 20.80196,18.44265 21.13732,18.46176 0.24009,0.0138 3.15609,-1.8737 6.48,-4.19415 z M 441.92,555.952 c -5.192,-4.8535 -9.54979,-9.01466 -9.68397,-9.24698 -0.15024,-0.26009 5.41418,-13.32454 14.48,-33.99705 C 454.81421,494.24192 461.44,478.95635 461.44,478.74 c 0,-0.21632 -0.13475,-0.34534 -0.29949,-0.28666 -0.1647,0.0587 -11.19379,11.23831 -24.50905,24.84365 -13.31527,13.60531 -24.3408,24.69322 -24.50116,24.63978 -0.16035,-0.0534 -2.60259,-2.24167 -5.4272,-4.86269 -3.32329,-3.08378 -5.10166,-4.95491 -5.03936,-5.30218 0.15821,-0.88201 66.55821,-69.44937 67.00781,-69.195 0.21687,0.12272 4.23296,4.61219 8.92461,9.97664 6.38035,7.29526 8.49584,9.91648 8.3935,10.4 -0.0753,0.35555 -6.57465,15.7455 -14.44313,34.1999 -7.86845,18.45443 -14.22621,33.63354 -14.12835,33.73139 0.22774,0.22778 -2.23629,2.47274 26.53526,-24.17603 14.51565,-13.44467 25.18166,-23.09302 25.47018,-23.04 0.55907,0.10272 11.3046,14.23354 11.1535,14.66733 -0.1633,0.4688 -68.5271,60.4647 -68.88374,60.45216 -0.18336,-0.006 -4.58138,-3.98279 -9.77338,-8.83629 z"
         id="path177" />
    </g>
  </g>
</svg>
