<?xml version="1.0" encoding="UTF-8" standalone="no"?>
<!-- Created with Inkscape (http://www.inkscape.org/) -->

<svg
   width="27.215857mm"
   height="35.106216mm"
   viewBox="0 0 27.215857 35.106216"
   version="1.1"
   id="svg5"
   xml:space="preserve"
   xmlns="http://www.w3.org/2000/svg"
   xmlns:svg="http://www.w3.org/2000/svg"><defs
     id="defs2" /><g
     id="layer16"
     style="display:inline"
     transform="translate(-51.942805,-43.766728)"><g
       id="g76205"><g
         id="g17251"
         transform="matrix(0.09348897,0,0,-0.08306712,73.977969,58.829181)"><path
           d="m 0,0 5.667,-33.983 38.389,-207.313 h 6.188 L 22.328,-33.983 18.203,0 Z"
           style="fill:#c8c8c8;fill-opacity:1;fill-rule:nonzero;stroke:none"
           id="path17253" /></g><g
         id="g17255"
         transform="matrix(0.09348897,0,0,-0.08306712,75.67975,58.829181)"><path
           d="m 0,0 h -18.203 l 5.667,-33.983 H 4.125 Z"
           style="fill:#a8a8a8;fill-opacity:1;fill-rule:nonzero;stroke:none"
           id="path17257" /></g><g
         id="g17259"
         transform="matrix(0.09348897,0,0,-0.08306712,62.707658,78.872937)"><path
           d="m 0,0 h 6.188 l 38.388,207.313 5.667,33.983 H 32.04 l -4.125,-33.983 z"
           style="fill:#c8c8c8;fill-opacity:1;fill-rule:nonzero;stroke:none"
           id="path17261" /></g><g
         id="g17263"
         transform="matrix(0.09348897,0,0,-0.08306712,65.703082,58.829181)"><path
           d="M 0,0 -4.125,-33.983 H 12.536 L 18.203,0 Z"
           style="fill:#a8a8a8;fill-opacity:1;fill-rule:nonzero;stroke:none"
           id="path17265" /></g><g
         id="g17267"
         transform="matrix(0.09348897,0,0,-0.08306712,51.942805,78.872937)"><path
           d="m 0,0 h 6.188 l 38.388,207.313 5.668,33.983 H 32.041 l -4.126,-33.983 z"
           style="fill:#c8c8c8;fill-opacity:1;fill-rule:nonzero;stroke:none"
           id="path17269" /></g><g
         id="g17271"
         transform="matrix(0.09348897,0,0,-0.08306712,54.552586,61.652026)"><path
           d="m 0,0 h 16.661 l 5.667,33.983 H 4.125 Z"
           style="fill:#a8a8a8;fill-opacity:1;fill-rule:nonzero;stroke:none"
           id="path17273" /></g><g
         id="g17275"
         transform="matrix(0.09348897,0,0,-0.08306712,52.860335,60.155539)"><path
           d="M 0,0 H 281.298 V 29.64 H 175.994 L 140.603,197.296 H 10.724 Z"
           style="fill:#c8c8c8;fill-opacity:1;fill-rule:nonzero;stroke:none"
           id="path17277" /></g><g
         id="g17279"
         transform="matrix(0.09348897,0,0,-0.08306712,54.392498,57.69352)"><path
           d="M 0,0 H 264.91 V -29.639 H -1.055 Z"
           style="fill:#dcdcdc;fill-opacity:1;fill-rule:nonzero;stroke:none"
           id="path17281" /></g><g
         id="g17283"
         transform="matrix(0.09348897,0,0,-0.08306712,52.860335,60.155539)"><path
           d="m 0,0 h 15.334 l 9.994,197.296 H 10.724 Z"
           style="fill:#dcdcdc;fill-opacity:1;fill-rule:nonzero;stroke:none"
           id="path17285" /></g></g></g></svg>
