<?xml version="1.0" encoding="UTF-8" standalone="no"?>
<!-- Created with Inkscape (http://www.inkscape.org/) -->

<svg
   width="24.468063mm"
   height="22.754543mm"
   viewBox="0 0 24.468063 22.754543"
   version="1.1"
   id="svg5"
   xml:space="preserve"
   xmlns="http://www.w3.org/2000/svg"
   xmlns:svg="http://www.w3.org/2000/svg"><defs
     id="defs2"><clipPath
       clipPathUnits="userSpaceOnUse"
       id="clipPath20255-2"><path
         d="M 0,500 H 500 V 0 H 0 Z"
         id="path20253-6" /></clipPath></defs><g
     id="layer13"
     style="display:inline"
     transform="translate(-130.97327,-4.8235553)"><g
       id="g75705"><ellipse
         style="fill:#4f1781;fill-opacity:1;stroke:#c8c8c8;stroke-width:0.264583;stroke-opacity:1"
         id="path14728"
         cx="143.20731"
         cy="16.200827"
         rx="12.10174"
         ry="11.24498" /><g
         id="g20249"
         transform="matrix(0.21655526,0,0,-0.17833242,120.33078,40.574318)"
         style="fill:#ffffff;fill-opacity:1"><g
           id="g20251"
           clip-path="url(#clipPath20255-2)"
           style="fill:#ffffff;fill-opacity:1"><g
             id="g20257"
             transform="translate(120.418,163.5059)"
             style="fill:#ffffff;fill-opacity:1"><path
               d="M 0,0 C -3.9,3.9 -9.289,6.313 -15.242,6.313 -21.194,6.313 -26.583,3.9 -30.483,0 c -3.9,-3.9 -6.313,-9.289 -6.313,-15.241 0,-5.952 2.413,-11.341 6.313,-15.242 3.9,-3.901 9.289,-6.313 15.241,-6.313 5.953,0 11.342,2.412 15.242,6.313 3.9,3.901 6.313,9.29 6.313,15.242 C 6.313,-9.289 3.9,-3.9 0,0 m -15.242,11.042 c 7.258,0 13.829,-2.941 18.586,-7.698 4.756,-4.757 7.698,-11.327 7.698,-18.585 0,-7.258 -2.942,-13.829 -7.698,-18.586 -4.757,-4.756 -11.328,-7.698 -18.586,-7.698 -7.258,0 -13.828,2.942 -18.585,7.698 -4.756,4.757 -7.698,11.328 -7.698,18.586 0,7.258 2.942,13.828 7.698,18.585 4.757,4.757 11.327,7.698 18.585,7.698"
               style="fill:#ffffff;fill-opacity:1;fill-rule:evenodd;stroke:none"
               id="path20259" /></g><g
             id="g20261"
             transform="translate(111.1211,164.1621)"
             style="fill:#ffffff;fill-opacity:1"><path
               d="m 0,0 c -1.669,3.495 -3.783,5.657 -5.945,5.657 -2.161,0 -4.275,-2.162 -5.944,-5.657 -1.924,-4.03 -3.115,-9.647 -3.115,-15.897 0,-6.25 1.191,-11.869 3.115,-15.898 1.669,-3.495 3.783,-5.657 5.944,-5.657 2.162,0 4.276,2.162 5.945,5.657 1.924,4.029 3.115,9.648 3.115,15.898 C 3.115,-9.647 1.924,-4.03 0,0 m -5.945,10.386 c 4.148,0 7.747,-3.193 10.213,-8.355 2.21,-4.627 3.576,-10.969 3.576,-17.928 0,-6.96 -1.366,-13.303 -3.576,-17.93 -2.466,-5.162 -6.065,-8.355 -10.213,-8.355 -4.147,0 -7.746,3.193 -10.212,8.355 -2.21,4.627 -3.576,10.97 -3.576,17.93 0,6.959 1.366,13.301 3.576,17.928 2.466,5.162 6.065,8.355 10.212,8.355"
               style="fill:#ffffff;fill-opacity:1;fill-rule:evenodd;stroke:none"
               id="path20263" /></g><g
             id="g20265"
             transform="translate(126.2031,153.04)"
             style="fill:#ffffff;fill-opacity:1"><path
               d="m 0,0 h -42.053 c -0.112,-0.494 -0.206,-0.997 -0.283,-1.508 -0.162,-1.059 -0.245,-2.151 -0.245,-3.267 0,-1.118 0.083,-2.208 0.245,-3.269 0.077,-0.51 0.171,-1.013 0.283,-1.507 H 0 c 0.111,0.494 0.206,0.997 0.284,1.507 0.16,1.061 0.244,2.151 0.244,3.269 0,1.116 -0.084,2.208 -0.244,3.267 C 0.206,-0.997 0.111,-0.494 0,0 M -43.861,4.729 H 3.543 L 4.062,3.066 c 0.395,-1.261 0.696,-2.555 0.896,-3.872 0.197,-1.299 0.299,-2.626 0.299,-3.969 0,-1.344 -0.102,-2.67 -0.299,-3.971 -0.2,-1.317 -0.501,-2.609 -0.896,-3.871 L 3.543,-14.28 h -49.139 l -0.519,1.663 c -0.395,1.262 -0.696,2.554 -0.896,3.871 -0.197,1.301 -0.3,2.627 -0.3,3.971 0,1.343 0.103,2.67 0.3,3.969 0.2,1.317 0.501,2.611 0.896,3.872 l 0.519,1.663 z"
               style="fill:#ffffff;fill-opacity:1;fill-rule:evenodd;stroke:none"
               id="path20267" /></g><g
             id="g20269"
             transform="translate(72.9634,118.3662)"
             style="fill:#ffffff;fill-opacity:1"><path
               d="m 0,0 c -0.178,0.298 -0.315,0.602 -0.395,0.896 l -3.227,11.92 c -0.546,2.02 0.581,4.13 2.59,4.715 2.009,0.584 4.169,-0.57 4.715,-2.59 L 6.738,3.655 c 3.655,-4.931 5.12,-6.553 8.841,-11.419 0.316,-0.414 0.908,-0.493 1.322,-0.176 0.415,0.316 0.494,0.908 0.178,1.322 l -6.238,7.952 -0.196,0.27 c -1.23,1.692 -0.897,4.073 0.781,5.322 1.679,1.249 4.093,0.911 5.323,-0.781 l 3.368,-4.635 3.895,-5.109 c 4.163,-5.46 3.355,-8.531 3.355,-15.437 V -22.93 H 12.796 v 4.145 L -0.05,0.012 Z"
               style="fill:#ffffff;fill-opacity:1;fill-rule:evenodd;stroke:none"
               id="path20271" /></g><g
             id="g20273"
             transform="translate(137.3896,118.3662)"
             style="fill:#ffffff;fill-opacity:1"><path
               d="m 0,0 c 0.179,0.298 0.315,0.602 0.395,0.896 l 3.227,11.92 c 0.546,2.02 -0.581,4.13 -2.59,4.715 -2.009,0.584 -4.169,-0.57 -4.715,-2.59 L -6.738,3.655 c -3.655,-4.931 -5.12,-6.553 -8.841,-11.419 -0.316,-0.414 -0.908,-0.493 -1.322,-0.176 -0.414,0.316 -0.494,0.908 -0.178,1.322 l 6.238,7.952 0.196,0.27 c 1.23,1.692 0.897,4.073 -0.781,5.322 -1.679,1.249 -4.093,0.911 -5.323,-0.781 l -3.368,-4.635 -3.894,-5.109 c -4.164,-5.46 -3.356,-8.531 -3.356,-15.437 v -3.894 h 14.571 v 4.145 L 0.05,0.012 Z"
               style="fill:#ffffff;fill-opacity:1;fill-rule:evenodd;stroke:none"
               id="path20275" /></g></g></g></g></g></svg>
