<?xml version="1.0" encoding="UTF-8" standalone="no"?>
<!-- Created with Inkscape (http://www.inkscape.org/) -->

<svg
   width="68.996269mm"
   height="42.869839mm"
   viewBox="0 0 68.996269 42.869839"
   version="1.1"
   id="svg5"
   xml:space="preserve"
   xmlns="http://www.w3.org/2000/svg"
   xmlns:svg="http://www.w3.org/2000/svg"><defs
     id="defs2"><clipPath
       clipPathUnits="userSpaceOnUse"
       id="clipPath17759"><path
         d="M 0,1080 H 1920 V 0 H 0 Z"
         id="path17757" /></clipPath></defs><g
     id="layer17"
     style="display:inline"
     transform="translate(-45.978471,-39.152755)"><g
       id="g76292"><path
         d="M 71.270418,47.128793 H 60.338096 v -0.82228 h 10.932322 z"
         style="fill:#1a2e35;fill-opacity:1;fill-rule:nonzero;stroke:none;stroke-width:0.0881242"
         id="path17671" /><path
         d="M 45.978471,49.252655 H 114.97474 V 47.072557 H 45.978471 Z"
         style="fill:#2b454e;fill-opacity:1;fill-rule:nonzero;stroke:none;stroke-width:0.0881242"
         id="path17725" /><path
         d="M 48.448076,51.432751 H 112.50513 V 49.253237 H 48.448076 Z"
         style="fill:#375a64;fill-opacity:1;fill-rule:nonzero;stroke:none;stroke-width:0.0881242"
         id="path17727" /><g
         id="g17729"
         transform="matrix(0.09348897,0,0,-0.08306712,112.49985,82.022593)"><path
           d="M 0,0 H 10.609 L -20.267,368.254 H -47.343 Z"
           style="fill:#375a64;fill-opacity:1;fill-rule:nonzero;stroke:none"
           id="path17731" /></g><g
         id="g17733"
         transform="matrix(0.09348897,0,0,-0.08306712,108.07436,51.433375)"><path
           d="M 0,0 3.17,-24.639 H 29.126 L 27.068,0 Z"
           style="fill:#1a2e35;fill-opacity:1;fill-rule:nonzero;stroke:none"
           id="path17735" /></g><g
         id="g17737"
         transform="matrix(0.09348897,0,0,-0.08306712,48.453384,82.022593)"><path
           d="M 0,0 H -10.609 L 20.267,368.254 H 47.343 Z"
           style="fill:#375a64;fill-opacity:1;fill-rule:nonzero;stroke:none"
           id="path17739" /></g><g
         id="g17741"
         transform="matrix(0.09348897,0,0,-0.08306712,52.878871,51.433375)"><path
           d="M 0,0 -3.17,-24.639 H -29.126 L -27.068,0 Z"
           style="fill:#1a2e35;fill-opacity:1;fill-rule:nonzero;stroke:none"
           id="path17743" /></g><path
         d="M 72.068625,47.072225 H 85.533656 V 46.535612 H 72.068625 Z"
         style="fill:#c8c8c8;fill-opacity:1;fill-rule:nonzero;stroke:none;stroke-width:0.0881242"
         id="path17745" /><path
         d="m 78.756547,47.072225 h 6.777109 v -0.536613 h -6.777109 z"
         style="fill:#a8a8a8;fill-opacity:1;fill-rule:nonzero;stroke:none;stroke-width:0.0881242"
         id="path17747" /><g
         id="g17749"
         transform="matrix(0.09348897,0,0,-0.08306712,79.485686,47.071793)"><path
           d="m 0,0 h 140.366 l 18.352,95.333 H 18.352 Z"
           style="fill:#c8c8c8;fill-opacity:1;fill-rule:nonzero;stroke:none"
           id="path17751" /></g><g
         id="g17753"
         transform="matrix(0.09348897,0,0,-0.08306712,-13.796323,87.671532)"><g
           id="g17755"
           clip-path="url(#clipPath17759)"><g
             id="g17761"
             transform="translate(1068.6013,536.4244)"><path
               d="m 0,0 c -0.413,-4.718 3.078,-8.544 7.796,-8.544 4.719,0 8.879,3.826 9.292,8.544 C 17.501,4.719 14.01,8.544 9.292,8.544 4.573,8.544 0.413,4.719 0,0"
               style="fill:#a8a8a8;fill-opacity:1;fill-rule:nonzero;stroke:none"
               id="path17763" /></g></g></g></g></g></svg>
