<?xml version="1.0" encoding="UTF-8" standalone="no"?>
<!-- Created with Inkscape (http://www.inkscape.org/) -->

<svg
   width="49.684818mm"
   height="56.789993mm"
   viewBox="0 0 49.684818 56.789993"
   version="1.1"
   id="svg5"
   xml:space="preserve"
   xmlns="http://www.w3.org/2000/svg"
   xmlns:svg="http://www.w3.org/2000/svg"><defs
     id="defs2"><clipPath
       clipPathUnits="userSpaceOnUse"
       id="clipPath17293"><path
         d="M 0,1080 H 1920 V 0 H 0 Z"
         id="path17291" /></clipPath><clipPath
       clipPathUnits="userSpaceOnUse"
       id="clipPath17485"><path
         d="m 825.342,621.8 h 96.932 V 485.507 h -96.932 z"
         id="path17483" /></clipPath><clipPath
       clipPathUnits="userSpaceOnUse"
       id="clipPath17679"><path
         d="M 0,1080 H 1920 V 0 H 0 Z"
         id="path17677" /></clipPath></defs><g
     id="layer12"
     style="display:inline"
     transform="translate(-50.455357,-25.872323)"><g
       id="g17287"
       transform="matrix(0.09348898,0,0,-0.08306712,-13.796323,87.671532)"
       style="display:inline"><g
         id="g17289"
         clip-path="url(#clipPath17293)"><g
           id="g17295"
           transform="translate(990.8135,61.0138)"><path
             d="m 0,0 c -5.448,-0.513 -153.724,34.965 -158.391,39.78 -0.572,0.535 2.356,14.012 6.659,32.389 l 0.084,0.362 c 2.686,11.651 45.987,105.864 45.987,105.864 L -9.56,151.494 -53.323,64.085 c 0,0 18.079,-13.08 33.578,-25.498 0.017,-0.026 0.038,-0.031 0.033,-0.052 C -10.139,30.91 -1.888,24.059 -0.138,21.841 4.394,16.05 5.438,0.47 0,0"
             style="fill:#b06949;fill-opacity:1;fill-rule:nonzero;stroke:none"
             id="path17297" /></g><g
           id="g17299"
           transform="translate(990.8067,61.022)"><path
             d="m 0,0 c -5.434,-0.518 -153.708,34.964 -158.394,39.769 -0.567,0.546 2.371,14.006 6.667,32.396 l 0.088,0.349 c 0.986,4.341 7.658,20.175 15.597,38.321 15.816,-4.271 72.51,-19.648 93.101,-26.041 L -53.305,64.076 c 0,0 18.075,-13.09 33.576,-25.5 0,-0.021 0.022,-0.021 0.022,-0.043 C -10.136,30.907 -1.873,24.047 -0.13,21.842 4.403,16.033 5.455,0.452 0,0"
             style="fill:#ffffff;fill-opacity:1;fill-rule:nonzero;stroke:none"
             id="path17301" /></g><g
           id="g17303"
           transform="translate(991.2991,60.308)"><path
             d="m 0,0 c -5.603,-0.481 -153.982,35.406 -158.777,40.35 -1.828,1.866 1.48,25.282 9.63,50.089 l 95.634,-23.25 c 0,0 48.814,-38.723 53.49,-44.711 C 4.621,16.498 5.602,0.481 0,0"
             style="fill:#4f1781;fill-opacity:1;fill-rule:nonzero;stroke:none"
             id="path17305" /></g><g
           id="g17307"
           transform="translate(990.6062,66.7581)"><path
             d="m 0,0 c -24.725,6.626 -125.076,31.019 -150.02,35.69 -0.203,0.038 -0.236,-0.098 -0.037,-0.156 C -125.694,28.431 -25.149,4.852 -0.097,-0.408 0.431,-0.519 0.522,-0.139 0,0"
             style="fill:#1a2e35;fill-opacity:1;fill-rule:nonzero;stroke:none"
             id="path17309" /></g><g
           id="g17311"
           transform="translate(983.0231,90.4319)"><path
             d="m 0,0 c -5.841,1.667 -12.284,0.26 -16.349,-2.475 -3.906,-2.628 -7.698,-6.735 -8.77,-11.936 -0.031,-0.149 0.241,-0.219 0.3,-0.071 3.775,9.389 14.696,15.798 24.744,14.17 C 0.128,-0.344 0.2,-0.057 0,0"
             style="fill:#1a2e35;fill-opacity:1;fill-rule:nonzero;stroke:none"
             id="path17313" /></g><g
           id="g17315"
           transform="translate(944.9852,123.1158)"><path
             d="m 0,0 c -9.922,2.546 -22.314,1.824 -30.469,-4.822 -0.317,-0.258 0.054,-0.703 0.386,-0.622 10.122,2.462 19.513,3.85 29.958,4.177 C 0.612,-1.244 0.711,-0.183 0,0"
             style="fill:#1a2e35;fill-opacity:1;fill-rule:nonzero;stroke:none"
             id="path17317" /></g><g
           id="g17319"
           transform="translate(951.946,118.261)"><path
             d="m 0,0 c -9.922,2.546 -22.314,1.824 -30.47,-4.822 -0.316,-0.258 0.055,-0.703 0.387,-0.622 10.122,2.463 19.513,3.85 29.958,4.177 C 0.611,-1.244 0.71,-0.183 0,0"
             style="fill:#1a2e35;fill-opacity:1;fill-rule:nonzero;stroke:none"
             id="path17321" /></g><g
           id="g17323"
           transform="translate(958.9066,113.406)"><path
             d="m 0,0 c -9.922,2.546 -22.314,1.823 -30.47,-4.822 -0.316,-0.258 0.055,-0.703 0.388,-0.622 10.121,2.463 19.512,3.85 29.958,4.177 C 0.611,-1.244 0.711,-0.182 0,0"
             style="fill:#1a2e35;fill-opacity:1;fill-rule:nonzero;stroke:none"
             id="path17325" /></g><g
           id="g17327"
           transform="translate(965.8675,108.5512)"><path
             d="m 0,0 c -9.922,2.546 -22.314,1.823 -30.47,-4.822 -0.316,-0.258 0.055,-0.703 0.387,-0.622 10.122,2.463 19.513,3.85 29.958,4.177 C 0.611,-1.243 0.71,-0.183 0,0"
             style="fill:#1a2e35;fill-opacity:1;fill-rule:nonzero;stroke:none"
             id="path17329" /></g><g
           id="g17331"
           transform="translate(852.6358,124.541)"><path
             d="M 0,0 C -11.177,2.669 -15.344,-14.697 -4.148,-17.371 7.029,-20.04 11.196,-2.673 0,0"
             style="fill:#1a2e35;fill-opacity:1;fill-rule:nonzero;stroke:none"
             id="path17333" /></g><g
           id="g17335"
           transform="translate(944.837,128.8738)"><path
             d="m 0,0 c -4.031,-1.666 -8.119,-3.126 -12.088,-4.942 2.978,4.531 5.745,9.167 9.178,13.395 1.638,2.017 3.359,4.059 5.261,5.836 2.958,2.766 14.742,8.723 13.113,-2.348 C 14.566,5.837 4.805,1.988 0,0 M 17.332,18.205 C 13.303,23.602 5.967,21.054 1.81,17.467 -4.922,11.657 -10.761,2.644 -13.393,-5.803 c -0.064,-0.208 0.076,-0.332 0.242,-0.36 0.04,-0.765 0.738,-1.567 1.596,-1.236 8.274,3.188 17.515,5.571 24.563,11.204 4.116,3.288 8.134,9.295 4.324,14.4"
             style="fill:#1a2e35;fill-opacity:1;fill-rule:nonzero;stroke:none"
             id="path17337" /></g><g
           id="g17339"
           transform="translate(901.1779,132.4827)"><path
             d="M 0,0 C -4.671,10.169 8.311,7.757 11.927,5.933 14.251,4.761 16.475,3.285 18.614,1.808 23.095,-1.287 27.052,-4.961 31.182,-8.473 26.863,-7.844 22.53,-7.591 18.193,-7.122 13.023,-6.563 2.574,-5.607 0,0 m 4.64,-7.12 c 8.345,-3.428 17.884,-3.123 26.72,-3.861 0.917,-0.077 1.361,0.888 1.185,1.634 0.151,0.073 0.252,0.232 0.131,0.413 C 27.78,-1.564 19.645,5.448 11.554,9.135 6.557,11.411 -1.199,11.799 -3.551,5.488 -5.776,-0.481 -0.232,-5.119 4.64,-7.12"
             style="fill:#1a2e35;fill-opacity:1;fill-rule:nonzero;stroke:none"
             id="path17341" /></g><g
           id="g17343"
           transform="translate(948.3724,133.0923)"><path
             d="m 0,0 -102.959,30.88 c 0,0 84.863,176.86 82.188,185.856 -1.787,6.009 -129.03,6.424 -166.321,39.91 -38.598,34.66 -8.545,102.738 -8.545,102.738 l 106.98,0.552 c 0,0 -1.838,-22.33 2.249,-25.802 2.695,-2.315 148.962,-15.186 176.97,-68.965 C 115.983,216.358 0,0 0,0"
             style="fill:#1a2e35;fill-opacity:1;fill-rule:nonzero;stroke:none"
             id="path17345" /></g><g
           id="g17347"
           transform="translate(927.6069,349.8322)"><path
             d="m 0,0 c 0.463,-1.515 -1.603,-7.874 -5.373,-17.377 l 76.89,-94.469 c 27.422,62.509 53.2,134.593 39.815,160.27 -28.021,53.775 -174.267,66.652 -176.985,68.965 -4.065,3.469 -2.232,25.81 -2.232,25.81 l -67.904,-0.35 L -22.935,4.231 C -9.346,2.734 -0.463,1.566 0,0"
             style="fill:#1a2e35;fill-opacity:1;fill-rule:nonzero;stroke:none"
             id="path17349" /></g><g
           id="g17351"
           transform="translate(950.9282,154.8739)"><path
             d="m 0,0 c -2.663,1.346 -5.592,2.169 -8.394,3.121 -2.97,1.01 -5.939,2.029 -8.925,2.989 -5.875,1.891 -11.773,3.699 -17.711,5.378 -11.957,3.38 -23.934,6.695 -35.978,9.757 -6.277,1.595 -19.728,5.078 -20.563,4.949 -0.402,-0.062 -0.49,-0.733 -0.132,-0.861 11.637,-4.165 23.455,-7.733 35.271,-11.336 11.796,-3.597 23.615,-7.153 35.575,-10.172 3.312,-0.836 6.645,-1.578 9.967,-2.374 3.477,-0.833 6.994,-1.945 10.584,-2.268 C 0.038,-0.848 0.376,-0.19 0,0"
             style="fill:#375a64;fill-opacity:1;fill-rule:nonzero;stroke:none"
             id="path17353" /></g><g
           id="g17355"
           transform="translate(758.4826,472.0981)"><path
             d="m 0,0 c 0.33,3.571 0.729,7.135 1.134,10.699 0.048,0.412 0.694,0.407 0.652,-0.013 -1.426,-14.467 -2.891,-29.278 -0.229,-43.694 2.49,-13.485 9.095,-25.286 19.107,-34.623 21.226,-19.794 50.902,-25.621 78.554,-30.327 15.839,-2.695 31.771,-4.766 47.76,-6.335 7.831,-0.768 15.675,-1.396 23.529,-1.884 7.784,-0.484 15.583,-0.56 23.364,-0.992 2.457,-0.137 4.651,-1.261 4.268,-4.07 -0.233,-1.703 -1.19,-3.356 -1.871,-4.913 -0.828,-1.893 -1.667,-3.782 -2.502,-5.672 -3.123,-7.066 -6.264,-14.123 -9.423,-21.172 -6.512,-14.528 -13.121,-29.011 -19.817,-43.455 -13.293,-28.675 -27.094,-57.124 -41.374,-85.321 -1.773,-3.5 -3.55,-6.998 -5.332,-10.493 -0.117,-0.229 -0.446,-0.021 -0.337,0.206 13.646,28.56 27.15,57.193 40.442,85.92 6.598,14.258 13.212,28.508 19.739,42.798 3.263,7.144 6.507,14.296 9.731,21.457 1.612,3.581 3.22,7.163 4.822,10.748 0.801,1.792 1.601,3.586 2.401,5.379 0.664,1.49 3.086,5.062 1.415,6.456 -1.116,0.93 -3.433,0.61 -4.771,0.649 -2.07,0.06 -4.138,0.136 -6.208,0.205 -3.931,0.131 -7.86,0.289 -11.789,0.487 -7.958,0.4 -15.91,0.944 -23.849,1.632 -15.551,1.347 -31.051,3.318 -46.461,5.797 -27.48,4.422 -57.362,9.409 -79.355,27.855 C 13.9,-64.54 6.277,-54.068 2.505,-41.915 -1.69,-28.394 -1.288,-13.938 0,0"
             style="fill:#375a64;fill-opacity:1;fill-rule:nonzero;stroke:none"
             id="path17357" /></g><g
           id="g17359"
           transform="translate(1217.0363,196.5747)"><path
             d="m 0,0 c -3.869,-3.87 -140.706,-71.104 -147.371,-70.371 -0.781,0.048 -7.121,12.295 -15.526,29.195 l -0.167,0.332 c -5.362,10.687 -54.041,100.59 -54.041,100.59 l 85.134,43.102 50.03,-87.492 c 0,0 22.266,1.455 42.123,1.774 0.03,-0.01 0.049,0 0.059,-0.019 12.237,0.231 22.961,0.216 25.723,-0.375 C -6.851,15.165 3.888,3.83 0,0"
             style="fill:#b06949;fill-opacity:1;fill-rule:nonzero;stroke:none"
             id="path17361" /></g><g
           id="g17363"
           transform="translate(1217.0385,196.5817)"><path
             d="m 0,0 c -3.873,-3.868 -140.706,-71.111 -147.383,-70.373 -0.774,0.035 -7.115,12.294 -15.518,29.18 l -0.165,0.333 c -0.373,0.742 -0.757,1.502 -1.16,2.252 -0.265,0.553 -0.548,1.094 -0.851,1.625 -0.406,0.798 -0.841,1.605 -1.276,2.412 -3.708,7.029 -9.796,18.402 -16.5,30.856 l 86.806,43.75 14.108,-24.684 c 0,0 22.262,1.446 42.122,1.775 0.03,-0.009 0.049,0.002 0.06,-0.017 12.233,0.222 22.964,0.215 25.713,-0.377 C -6.862,15.152 3.894,3.83 0,0"
             style="fill:#ffffff;fill-opacity:1;fill-rule:nonzero;stroke:none"
             id="path17365" /></g><g
           id="g17367"
           transform="translate(1217.86,196.3409)"><path
             d="m 0,0 c -4.009,-3.944 -141.185,-70.929 -148.031,-70.178 -2.598,0.271 -14.984,20.417 -24.526,44.723 l 88.489,43.08 c 0,0 62.295,1.304 69.715,-0.326 C -6.962,15.655 4.009,3.943 0,0"
             style="fill:#4f1781;fill-opacity:1;fill-rule:nonzero;stroke:none"
             id="path17369" /></g><g
           id="g17371"
           transform="translate(1213.2126,200.8672)"><path
             d="m 0,0 c -23.27,-10.664 -116.122,-55.873 -138.314,-68.183 -0.181,-0.099 -0.119,-0.226 0.07,-0.144 23.296,10.066 115.779,56.026 138.429,67.951 C 0.663,-0.124 0.491,0.226 0,0"
             style="fill:#1a2e35;fill-opacity:1;fill-rule:nonzero;stroke:none"
             id="path17373" /></g><g
           id="g17375"
           transform="translate(1192.2742,214.2658)"><path
             d="m 0,0 c -5.562,-2.441 -9.627,-7.633 -11.014,-12.333 -1.333,-4.515 -1.634,-10.097 0.856,-14.786 0.071,-0.135 0.325,-0.015 0.277,0.136 -3.08,9.64 1.245,21.541 10.022,26.695 C 0.318,-0.183 0.19,0.084 0,0"
             style="fill:#1a2e35;fill-opacity:1;fill-rule:nonzero;stroke:none"
             id="path17377" /></g><g
           id="g17379"
           transform="translate(1142.1317,215.1831)"><path
             d="m 0,0 c -9.267,-4.367 -18.35,-12.826 -20.394,-23.146 -0.079,-0.4 0.49,-0.507 0.695,-0.233 6.226,8.352 12.574,15.41 20.41,22.323 C 1.264,-0.568 0.663,0.312 0,0"
             style="fill:#1a2e35;fill-opacity:1;fill-rule:nonzero;stroke:none"
             id="path17381" /></g><g
           id="g17383"
           transform="translate(1150.5891,215.8823)"><path
             d="m 0,0 c -9.266,-4.367 -18.35,-12.826 -20.394,-23.146 -0.079,-0.4 0.491,-0.506 0.695,-0.232 6.225,8.351 12.574,15.41 20.411,22.322 C 1.264,-0.568 0.664,0.313 0,0"
             style="fill:#1a2e35;fill-opacity:1;fill-rule:nonzero;stroke:none"
             id="path17385" /></g><g
           id="g17387"
           transform="translate(1159.0474,216.582)"><path
             d="m 0,0 c -9.267,-4.367 -18.351,-12.826 -20.395,-23.146 -0.079,-0.4 0.491,-0.506 0.696,-0.232 6.225,8.352 12.573,15.41 20.411,22.323 C 1.264,-0.569 0.663,0.313 0,0"
             style="fill:#1a2e35;fill-opacity:1;fill-rule:nonzero;stroke:none"
             id="path17389" /></g><g
           id="g17391"
           transform="translate(1167.5048,217.2815)"><path
             d="m 0,0 c -9.266,-4.366 -18.35,-12.826 -20.394,-23.146 -0.079,-0.4 0.49,-0.506 0.695,-0.232 6.225,8.352 12.574,15.41 20.411,22.323 C 1.264,-0.568 0.663,0.312 0,0"
             style="fill:#1a2e35;fill-opacity:1;fill-rule:nonzero;stroke:none"
             id="path17393" /></g><g
           id="g17395"
           transform="translate(1070.0903,157.3857)"><path
             d="M 0,0 C -10.312,-5.073 -2.446,-21.106 7.883,-16.026 18.194,-10.953 10.329,5.081 0,0"
             style="fill:#1a2e35;fill-opacity:1;fill-rule:nonzero;stroke:none"
             id="path17397" /></g><g
           id="g17399"
           transform="translate(1138.3456,219.5236)"><path
             d="m 0,0 c -2.042,-3.855 -4.26,-7.586 -6.159,-11.515 -0.595,5.388 -1.421,10.724 -1.474,16.17 -0.024,2.598 0,5.268 0.331,7.85 0.515,4.017 5.792,16.121 11.598,6.554 C 7.497,13.785 2.433,4.595 0,0 m 1.74,25.075 c -6.546,1.588 -10.571,-5.053 -11.485,-10.467 -1.48,-8.768 -0.23,-19.435 3.13,-27.619 0.083,-0.201 0.27,-0.207 0.415,-0.123 0.519,-0.564 1.569,-0.737 2.018,0.065 4.34,7.733 9.938,15.462 11.775,24.295 1.072,5.158 0.337,12.347 -5.853,13.849"
             style="fill:#1a2e35;fill-opacity:1;fill-rule:nonzero;stroke:none"
             id="path17401" /></g><g
           id="g17403"
           transform="translate(1102.4153,194.4595)"><path
             d="m 0,0 c -10.083,4.854 1.455,11.276 5.403,12.177 2.538,0.579 5.193,0.861 7.781,1.087 C 18.609,13.738 24,13.432 29.422,13.36 25.694,11.09 22.195,8.522 18.555,6.117 14.216,3.251 5.559,-2.677 0,0 m 8.115,-2.525 c 8.614,2.682 15.766,9 23.043,14.067 0.755,0.525 0.482,1.552 -0.13,2.014 0.07,0.153 0.047,0.339 -0.162,0.402 -8.471,2.554 -19.209,2.767 -27.793,0.447 -5.3,-1.433 -11.521,-6.081 -9.308,-12.442 2.094,-6.016 9.32,-6.054 14.35,-4.488"
             style="fill:#1a2e35;fill-opacity:1;fill-rule:nonzero;stroke:none"
             id="path17405" /></g><g
           id="g17407"
           transform="translate(1134.6677,226.0874)"><path
             d="m 0,0 -102.655,-51.295 c 0,0 -80.125,162.906 -88.917,173.403 -11.719,13.993 -164.352,-5.77 -200.354,39.423 -37.231,46.737 -5.329,104.778 -5.329,104.778 l 116.185,0.072 c 0,0 0.344,-12.886 -6.354,-31.727 0,0 132.857,7.906 170.452,-28.638 C -88.115,177.965 0,0 0,0"
             style="fill:#1a2e35;fill-opacity:1;fill-rule:nonzero;stroke:none"
             id="path17409" /></g><g
           id="g17411"
           transform="translate(826.0687,449.0122)"><path
             d="m 0,0 c 5.993,4.059 12.078,7.898 18.482,11.291 3.235,1.714 9.871,4.653 14.001,5.656 3.386,0.822 4.873,1.069 1.693,-0.432 -1.819,-0.859 -5.306,-2.519 -8.546,-4.06 0.611,0.021 1.217,0.039 1.802,0.069 2.281,0.118 4.568,0.196 6.851,0.256 4.466,0.115 8.939,0.086 13.406,0.112 9.069,0.053 18.044,-0.805 27.088,-1.257 0.239,-0.012 0.231,-0.381 -0.009,-0.374 C 65.743,11.556 56.676,11.075 47.645,11.113 43.173,11.131 38.709,11.004 34.238,10.92 32.054,10.879 29.87,10.838 27.687,10.804 25.885,10.775 23.965,10.63 22.138,10.796 21.169,10.336 20.288,9.918 19.648,9.617 13.08,6.519 6.524,3.285 0.197,-0.278 0.01,-0.384 -0.185,-0.126 0,0"
             style="fill:#375a64;fill-opacity:1;fill-rule:nonzero;stroke:none"
             id="path17413" /></g><g
           id="g17415"
           transform="translate(856.3413,496.8129)"><path
             d="m 0,0 c -1.18,-5.482 -2.193,-11 -3.566,-16.44 -0.631,-2.494 -1.249,-5.032 -2.104,-7.462 -0.72,-2.05 -1.837,-4.401 -4.163,-4.932 -2.682,-0.612 -3.531,1.674 -3.386,3.91 0.161,2.496 0.714,5.012 1.123,7.476 0.472,2.842 0.949,5.681 1.367,8.532 0.208,1.426 0.429,2.849 0.621,4.277 0.048,0.359 0.222,3.081 0.39,3.865 0.024,-0.064 0.068,-0.126 0.153,-0.111 0.031,0.005 0.062,0.011 0.094,0.016 0.073,0.013 0.152,0.065 0.16,0.146 0.021,0.215 0.017,0.259 -0.149,0.403 -0.072,0.063 -0.17,0.056 -0.248,0.01 -0.506,-0.3 -0.52,-1.009 -0.669,-1.536 -0.393,-1.39 -0.794,-2.778 -1.149,-4.18 -0.664,-2.62 -1.31,-5.247 -1.882,-7.888 -0.572,-2.639 -1.126,-5.283 -1.682,-7.926 -0.417,-1.976 -0.92,-4.06 -0.322,-6.057 0.652,-2.181 2.446,-3.23 4.385,-3.333 -0.088,-0.181 -0.194,-0.353 -0.269,-0.539 -0.219,-0.543 -0.374,-1.12 -0.557,-1.676 -0.188,-0.569 -0.356,-1.136 -0.499,-1.719 -0.068,-0.275 -0.107,-0.561 -0.129,-0.844 -0.024,-0.317 0.05,-0.622 0.021,-0.939 -0.046,-0.488 0.624,-0.765 0.853,-0.275 0.133,0.285 0.332,0.505 0.482,0.778 0.157,0.285 0.265,0.614 0.359,0.923 0.167,0.55 0.304,1.097 0.425,1.659 0.118,0.554 0.269,1.111 0.352,1.672 0.05,0.333 0.051,0.67 0.068,1.006 1.1,0.149 2.191,0.566 3.094,1.298 1.581,1.281 2.466,3.184 3.081,5.076 0.744,2.29 1.301,4.654 1.86,6.995 1.382,5.795 2.526,11.677 2.875,17.634 C 1.027,0.449 0.14,0.65 0,0"
             style="fill:#375a64;fill-opacity:1;fill-rule:nonzero;stroke:none"
             id="path17417" /></g><g
           id="g17419"
           transform="translate(800.3232,481.2053)"><path
             d="m 0,0 c -0.401,-2.714 -0.623,-5.45 -1.154,-8.145 -0.521,-2.638 -1.143,-5.278 -1.919,-7.852 -0.742,-2.462 -1.674,-4.952 -3.08,-7.119 -1.362,-2.102 -3.195,-3.937 -5.095,-5.552 -3.729,-3.168 -7.981,-5.731 -12.528,-7.537 -2.291,-0.91 -4.638,-1.697 -7.024,-2.317 -1.244,-0.323 -2.502,-0.584 -3.77,-0.79 -1.055,-0.172 -2.102,-0.246 -3.03,-0.811 -0.396,-0.241 -0.307,-0.875 0.093,-1.055 1.652,-0.745 3.924,-0.227 5.653,0.01 2.027,0.277 4.033,0.688 5.997,1.262 3.956,1.156 7.771,2.966 11.239,5.19 3.404,2.182 6.812,4.879 9.27,8.117 2.548,3.358 3.905,7.246 4.721,11.344 0.977,4.91 1.587,10.23 1.15,15.231 C 0.498,0.268 0.044,0.3 0,0"
             style="fill:#375a64;fill-opacity:1;fill-rule:nonzero;stroke:none"
             id="path17421" /></g><g
           id="g17423"
           transform="translate(1113.8352,244.7648)"><path
             d="m 0,0 c -2.861,-0.85 -5.555,-2.263 -8.246,-3.494 -2.853,-1.304 -5.711,-2.603 -8.541,-3.954 -5.57,-2.66 -11.099,-5.394 -16.569,-8.251 -11.014,-5.752 -21.999,-11.565 -32.857,-17.608 -5.659,-3.149 -17.83,-9.853 -18.349,-10.52 -0.25,-0.32 0.147,-0.869 0.495,-0.716 11.321,4.962 22.363,10.481 33.427,15.974 11.046,5.484 22.081,11.014 32.849,17.03 2.982,1.666 5.916,3.415 8.877,5.117 3.1,1.782 6.421,3.388 9.252,5.618 C 0.61,-0.59 0.403,0.12 0,0"
             style="fill:#375a64;fill-opacity:1;fill-rule:nonzero;stroke:none"
             id="path17425" /></g><g
           id="g17427"
           transform="translate(737.4925,465.3794)"><path
             d="m 0,0 c 0.011,0.496 0.775,0.482 0.77,-0.015 -0.221,-25.229 3.677,-53.438 23.094,-71.533 21.292,-19.843 52.008,-22.21 79.65,-21.979 15.868,0.133 31.705,0.539 47.573,0.034 15.939,-0.507 32.037,-1.29 47.865,-3.31 6.388,-0.816 11.744,-3.116 16.253,-7.774 4.386,-4.529 7.536,-10.123 10.772,-15.484 7.981,-13.222 15.713,-26.593 23.192,-40.105 14.867,-26.858 28.614,-54.315 41.272,-82.283 1.572,-3.474 3.127,-6.955 4.668,-10.443 0.102,-0.23 -0.239,-0.425 -0.345,-0.193 -12.851,28.079 -26.747,55.675 -41.494,82.804 -7.376,13.569 -15.006,26.999 -22.885,40.282 -3.703,6.243 -7.289,12.633 -11.417,18.61 -3.648,5.281 -8.215,10.244 -14.538,12.16 -3.811,1.155 -7.877,1.356 -11.821,1.719 -4.052,0.372 -8.108,0.706 -12.166,1.002 -7.909,0.578 -15.829,1.01 -23.754,1.299 -15.997,0.582 -31.968,0.387 -47.967,0.097 -27.774,-0.502 -58.116,0.455 -81.143,18.134 -9.96,7.647 -17.141,18.129 -21.405,29.892 C 1.827,-35.093 0.275,-22.222 -0.015,-9.527 -0.088,-6.351 -0.074,-3.175 0,0"
             style="fill:#375a64;fill-opacity:1;fill-rule:nonzero;stroke:none"
             id="path17429" /></g><g
           id="g17431"
           transform="translate(903.7679,354.8807)"><path
             d="m 0,0 c 5.666,-0.1 11.33,-0.337 16.994,-0.527 4.714,-0.158 9.451,-0.11 14.062,-1.256 4.288,-1.066 7.695,-1.586 11.204,-6.381 4.381,-5.989 28.231,-52.065 38.247,-72.465 2.777,-5.657 5.52,-11.327 8.21,-17.025 2.779,-5.886 5.241,-11.917 8.009,-17.805 0.101,-0.216 -0.219,-0.397 -0.327,-0.181 -2.452,4.924 -5.184,9.714 -7.716,14.599 -2.535,4.889 -4.998,9.817 -7.459,14.744 -4.97,9.946 -9.936,19.895 -14.936,29.825 -4.957,9.844 -10.977,19.442 -16.007,29.248 -4.227,8.242 -9.993,19.491 -14.02,21.159 C 31.52,-4.101 23.802,-2.159 18.723,-1.804 12.478,-1.367 6.226,-0.985 -0.011,-0.448 -0.296,-0.423 -0.291,0.005 0,0"
             style="fill:#375a64;fill-opacity:1;fill-rule:nonzero;stroke:none"
             id="path17433" /></g><g
           id="g17435"
           transform="translate(895.7134,604.0646)"><path
             d="m 0,0 c -0.013,-0.531 -0.402,-1.055 -0.956,-1.094 -1.269,-0.012 -2.791,-0.004 -4.5,-0.003 -3.335,10.711 -7.126,19.296 -6.202,15.981 1.338,-4.799 2.111,-11.629 1.781,-15.963 -1.982,0.015 -6.575,0.094 -8.874,0.134 -2.29,18.629 -5.875,32.564 -5.87,28.335 0.022,-17.058 -1.337,-22.453 -2.894,-28.209 -21.416,0.386 -49.485,1.199 -69.764,2.22 -1.681,10.325 -3.015,21.469 -3.419,20.722 -3.135,-5.574 -4.426,-13.862 -4.904,-20.282 -6.453,0.372 -11.604,0.787 -14.732,1.198 0,0 -0.953,8.651 -0.988,11.479 -0.126,7.202 1.146,14.496 3.65,21.285 2.606,6.993 6.721,13.052 10.655,19.282 0.031,0.052 0.062,0.104 0.097,0.135 -0.005,0.021 0.015,0.027 0.03,0.053 2.694,4.311 4.752,8.473 6.25,12.924 0.015,0.026 0.031,0.052 0.041,0.099 1.041,3.162 1.805,6.447 2.328,10.086 1.754,12.504 9.534,22.915 21.556,25.474 23.662,19.567 45.433,9.301 51.137,-7.242 0.548,-1.611 1.062,-3.452 1.548,-5.455 l 0.013,-0.063 c 1.815,-7.407 3.25,-16.961 4.669,-24.366 -0.016,-0.026 0.009,-0.041 0.009,-0.041 -0.016,-0.026 -0.012,-0.047 0.017,-0.083 l 0.004,-0.021 c 0.704,-3.528 1.381,-6.535 2.105,-8.583 C -12.43,44.533 -0.035,36.26 0,0"
             style="fill:#1a2e35;fill-opacity:1;fill-rule:nonzero;stroke:none"
             id="path17437" /></g><g
           id="g17439"
           transform="translate(813.6296,704.7894)"><path
             d="m 0,0 c -8.011,-3.542 -13.144,-9.139 -14.939,-18.233 -1.046,-5.301 -1.74,-10.494 -4.118,-15.408 -2.455,-5.071 -6.086,-9.127 -9.809,-13.173 -5.916,-6.427 -10.174,-12.931 -11.607,-21.876 -1.455,-9.086 -1.714,-19.9 0.817,-28.624 0.015,-0.051 0.089,-0.032 0.077,0.021 -1.94,8.806 -1.232,20.78 0.896,29.74 2.336,9.841 8.374,15.74 14.627,22.934 4.967,5.715 8.315,12.169 9.785,19.764 0.87,4.496 1.108,9.215 3.209,13.369 2.506,4.958 7.058,7.923 11.551,10.524 C 1.099,-0.608 0.609,0.269 0,0"
             style="fill:#1a2e35;fill-opacity:1;fill-rule:nonzero;stroke:none"
             id="path17441" /></g><g
           id="g17443"
           transform="translate(890.5768,647.1812)"><path
             d="m 0,0 c -5.006,7.472 -10.308,13.907 -12.938,22.952 -2.397,8.239 -3.515,16.858 -5.965,25.091 -0.04,0.133 -0.237,0.092 -0.201,-0.049 C -15.451,33.418 -15.498,18.948 -7.05,6.346 -2.46,-0.501 2.159,-6.87 4.957,-14.909 7.898,-23.356 8.838,-32.014 8.478,-41.073 8.466,-41.389 8.872,-41.397 8.919,-41.096 11.242,-26.547 7.861,-11.733 0,0"
             style="fill:#1a2e35;fill-opacity:1;fill-rule:nonzero;stroke:none"
             id="path17445" /></g><g
           id="g17447"
           transform="translate(829.3442,595.6187)"><path
             d="m 0,0 c 7.03,-42.173 35.203,-95.464 41.965,-98.733 11.963,-5.784 91.987,-12 95.159,-11.718 7.846,0.75 17.581,53.212 11.077,58.584 -1.496,1.224 -77.551,1.788 -80.787,2.755 C 63.452,-47.928 44.69,-20.868 25.245,6.674 11.592,26.013 -3.739,22.434 0,0"
             style="fill:#b06949;fill-opacity:1;fill-rule:nonzero;stroke:none"
             id="path17449" /></g><g
           id="g17451"
           transform="translate(956.7841,487.8565)"><path
             d="m 0,0 c 0.969,-0.422 14.706,-6.039 23.108,-7.95 6.269,-1.427 24.425,-5.049 26.681,1.697 1.544,4.6 -8.882,7.986 -16.201,10.545 -3.856,1.348 -8.725,5.017 -7.757,7.502 1.692,4.344 11.631,0.661 18.219,-2.669 C 56.791,2.686 73.959,-9.242 81.122,-2.55 83.825,-0.02 80.27,4.09 75.19,8.027 83.321,3.568 91.922,0.023 95.037,2.714 c 1.789,1.534 1.762,3.493 0.589,5.664 2.467,-0.645 4.599,-0.366 5.998,1.298 2.394,2.818 0.92,6.682 -2.105,10.557 0.889,0.145 1.666,0.647 2.227,1.656 4.917,8.546 -23.485,30.598 -32.959,32.263 C 40.912,59.08 11.804,54.987 11.804,54.987 1.51,45.726 -0.023,0.017 0,0"
             style="fill:#b06949;fill-opacity:1;fill-rule:nonzero;stroke:none"
             id="path17453" /></g><g
           id="g17455"
           transform="translate(995.7122,515.8517)"><path
             d="m 0,0 c 6.534,-0.635 13.11,-2.58 18.751,-5.986 6.674,-4.03 12.124,-9.752 18.341,-14.387 0.168,-0.126 -0.04,-0.389 -0.203,-0.256 -2.937,2.415 -6.138,4.54 -9.173,6.837 -2.961,2.24 -5.876,4.592 -8.988,6.62 C 13.025,-3.456 6.753,-0.979 -0.018,-0.113 -0.091,-0.104 -0.073,0.007 0,0"
             style="fill:#1a2e35;fill-opacity:1;fill-rule:nonzero;stroke:none"
             id="path17457" /></g><g
           id="g17459"
           transform="translate(1000.153,527.8168)"><path
             d="m 0,0 c 7.34,-1.553 14.861,-3.117 21.768,-6.143 7.558,-3.311 13.658,-9.072 19.649,-14.61 3.597,-3.326 7.125,-6.726 10.567,-10.212 0.144,-0.146 -0.048,-0.402 -0.203,-0.256 -6.085,5.726 -12.339,11.277 -18.763,16.622 C 26.975,-9.571 20.345,-5.841 12.843,-3.474 8.615,-2.14 4.294,-1.132 -0.02,-0.129 -0.101,-0.11 -0.083,0.018 0,0"
             style="fill:#1a2e35;fill-opacity:1;fill-rule:nonzero;stroke:none"
             id="path17461" /></g><g
           id="g17463"
           transform="translate(1007.2756,538.4702)"><path
             d="m 0,0 c 7.104,-1.031 13.301,-1.906 19.737,-5.304 8.522,-4.499 16.957,-12.426 19.919,-15.238 3.271,-3.106 6.435,-6.318 9.551,-9.58 0.126,-0.132 -0.101,-0.356 -0.232,-0.225 -7.101,7.114 -14.696,13.82 -22.657,19.957 -3.805,2.932 -7.9,5.441 -12.43,7.086 C 9.409,-1.677 4.666,-0.885 -0.008,-0.048 -0.039,-0.043 -0.032,0.004 0,0"
             style="fill:#1a2e35;fill-opacity:1;fill-rule:nonzero;stroke:none"
             id="path17465" /></g><g
           id="g17467"
           transform="translate(958.8702,522.4207)"><path
             d="m 0,0 -0.043,-39.484 c 0,0 -66.532,2.717 -87.894,11.941 -11.487,4.96 -40.727,78.702 -44.724,102.317 -3.928,23.21 5.263,36.971 29.006,10.034 18.214,-20.662 44.954,-57.942 47.07,-58.976 2.116,-1.034 56.616,2.982 56.616,2.982 z"
             style="fill:#4f1781;fill-opacity:1;fill-rule:nonzero;stroke:none"
             id="path17469" /></g><g
           id="g17471"
           transform="translate(948.8513,508.0148)"><path
             d="m 0,0 c -1.407,0 -2.548,-1.141 -2.548,-2.548 0,-1.407 1.141,-2.548 2.548,-2.548 1.407,0 2.548,1.141 2.548,2.548 C 2.548,-1.141 1.407,0 0,0 m -34.308,0 c -1.407,0 -2.548,-1.141 -2.548,-2.548 0,-1.407 1.141,-2.548 2.548,-2.548 1.407,0 2.548,1.141 2.548,2.548 0,1.407 -1.141,2.548 -2.548,2.548 m -34.308,0 c -1.407,0 -2.548,-1.141 -2.548,-2.548 0,-1.407 1.141,-2.548 2.548,-2.548 1.407,0 2.548,1.141 2.548,2.548 0,1.407 -1.141,2.548 -2.548,2.548 m 0,50.93 c -1.407,0 -2.548,-1.14 -2.548,-2.547 0,-1.408 1.141,-2.549 2.548,-2.549 1.407,0 2.548,1.141 2.548,2.549 0,1.407 -1.141,2.547 -2.548,2.547 m -34.308,0 c -1.408,0 -2.548,-1.14 -2.548,-2.547 0,-1.408 1.14,-2.549 2.548,-2.549 1.407,0 2.548,1.141 2.548,2.549 0,1.407 -1.141,2.547 -2.548,2.547 m 85.77,-26.228 c -1.407,0 -2.548,-1.141 -2.548,-2.548 0,-1.407 1.141,-2.548 2.548,-2.548 1.407,0 2.548,1.141 2.548,2.548 0,1.407 -1.141,2.548 -2.548,2.548 m -34.308,0 c -1.407,0 -2.548,-1.141 -2.548,-2.548 0,-1.407 1.141,-2.548 2.548,-2.548 1.407,0 2.548,1.141 2.548,2.548 0,1.407 -1.141,2.548 -2.548,2.548 m -34.308,0 c -1.407,0 -2.548,-1.141 -2.548,-2.548 0,-1.407 1.141,-2.548 2.548,-2.548 1.407,0 2.548,1.141 2.548,2.548 0,1.407 -1.141,2.548 -2.548,2.548 m -17.154,77.159 c -1.408,0 -2.548,-1.141 -2.548,-2.548 0,-1.407 1.14,-2.548 2.548,-2.548 1.407,0 2.548,1.141 2.548,2.548 0,1.407 -1.141,2.548 -2.548,2.548 M -85.77,75.632 c -1.407,0 -2.548,-1.14 -2.548,-2.547 0,-1.408 1.141,-2.548 2.548,-2.548 1.407,0 2.548,1.14 2.548,2.548 0,1.407 -1.141,2.547 -2.548,2.547 m -31.769,-2.546 c 0,-0.57 -0.197,-1.118 -0.526,-1.534 -0.416,1.336 -0.832,2.651 -1.205,3.922 1.008,-0.329 1.731,-1.271 1.731,-2.388"
             style="fill:#ffffff;fill-opacity:1;fill-rule:nonzero;stroke:none"
             id="path17473" /></g><g
           id="g17475"
           transform="translate(944.6547,518.3666)"><path
             d="m 0,0 c 0.059,4.812 0.141,9.625 0.255,14.436 0.115,4.783 0.042,9.65 0.514,14.414 0.022,0.215 0.376,0.254 0.397,0.021 C 1.584,24.252 1.485,19.542 1.558,14.906 1.637,9.988 1.678,5.067 1.706,0.148 1.76,-9.584 1.419,-19.278 0.921,-28.989 0.908,-29.23 0.567,-29.187 0.557,-28.959 0.142,-19.304 -0.12,-9.67 0,0"
             style="fill:#1a2e35;fill-opacity:1;fill-rule:nonzero;stroke:none"
             id="path17477" /></g><g
           id="g17479"><g
             id="g17481" /><g
             id="g17493"><g
               clip-path="url(#clipPath17485)"
               opacity="0.100006"
               id="g17491"><g
                 transform="translate(922.2736,485.5067)"
                 id="g17489"><path
                   d="m 0,0 c -19.153,1.844 -40.773,4.799 -51.349,9.377 -11.487,4.954 -40.728,78.7 -44.705,102.32 -2.2,13.02 -0.289,23.086 6.043,24.597 z"
                   style="fill:#000000;fill-opacity:1;fill-rule:nonzero;stroke:none"
                   id="path17487" /></g></g></g></g><g
           id="g17495"
           transform="translate(862.5126,515.6497)"><path
             d="m 0,0 2.25,-40.732 -140.078,0.054 c 0,0 39.929,115.182 66.852,139.513 18.215,16.462 37.539,13.331 48.778,-0.381 C -19.354,94.985 9.933,54.167 12.14,34.911 14.046,17.925 0,0 0,0"
             style="fill:#4f1781;fill-opacity:1;fill-rule:nonzero;stroke:none"
             id="path17497" /></g><g
           id="g17499"
           transform="translate(863.7516,493.2271)"><path
             d="m 0,0 c -0.752,7.455 -1.356,14.919 -1.901,22.386 l -0.018,0.233 0.171,0.229 c 3.756,5.049 6.933,10.653 9.121,16.562 1.116,2.952 1.865,6.024 2.345,9.113 0.495,3.102 0.618,6.223 0.107,9.316 C 9.412,60.944 8.581,64.012 7.557,67.011 6.605,70.037 5.384,72.985 4.124,75.912 1.487,81.721 -1.453,87.418 -4.758,92.919 -0.98,87.727 2.343,82.195 5.21,76.422 8.016,70.635 10.551,64.595 11.517,58.086 12.644,51.533 11.31,44.854 9.012,38.797 6.633,32.731 3.444,27.025 -0.729,21.998 l 0.152,0.461 C -0.296,14.978 -0.074,7.493 0,0"
             style="fill:#1a2e35;fill-opacity:1;fill-rule:nonzero;stroke:none"
             id="path17501" /></g><g
           id="g17503"
           transform="translate(865.75,580.3364)"><path
             d="m 0,0 c 1.416,-2.323 2.43,-4.819 3.278,-7.372 0.402,-1.284 0.772,-2.583 1.008,-3.917 0.242,-1.328 0.445,-2.687 0.328,-4.052 -0.803,2.58 -1.702,5.05 -2.516,7.59 C 1.306,-5.211 0.514,-2.668 0,0"
             style="fill:#1a2e35;fill-opacity:1;fill-rule:nonzero;stroke:none"
             id="path17505" /></g><g
           id="g17507"
           transform="translate(845.927,508.0148)"><path
             d="m 0,0 c -1.407,0 -2.548,-1.141 -2.548,-2.548 0,-1.407 1.141,-2.548 2.548,-2.548 1.407,0 2.548,1.141 2.548,2.548 C 2.548,-1.141 1.407,0 0,0 m -34.308,0 c -1.407,0 -2.548,-1.141 -2.548,-2.548 0,-1.407 1.141,-2.548 2.548,-2.548 1.407,0 2.548,1.141 2.548,2.548 0,1.407 -1.141,2.548 -2.548,2.548 m -34.308,0 c -1.407,0 -2.548,-1.141 -2.548,-2.548 0,-1.407 1.141,-2.548 2.548,-2.548 1.407,0 2.548,1.141 2.548,2.548 0,1.407 -1.141,2.548 -2.548,2.548 m -34.308,0 c -1.407,0 -2.548,-1.141 -2.548,-2.548 0,-1.407 1.141,-2.548 2.548,-2.548 1.407,0 2.548,1.141 2.548,2.548 0,1.407 -1.141,2.548 -2.548,2.548 m 121.42,-26.618 c -0.394,0.263 -0.855,0.394 -1.337,0.394 -1.402,0 -2.564,-1.139 -2.564,-2.541 0,-1.425 1.162,-2.564 2.564,-2.564 0.592,0 1.14,0.197 1.556,0.548 z m -35.65,0.39 c -1.407,0 -2.548,-1.141 -2.548,-2.548 0,-1.407 1.141,-2.548 2.548,-2.548 1.407,0 2.548,1.141 2.548,2.548 0,1.407 -1.141,2.548 -2.548,2.548 m -34.308,0 c -1.407,0 -2.548,-1.141 -2.548,-2.548 0,-1.407 1.141,-2.548 2.548,-2.548 1.407,0 2.548,1.141 2.548,2.548 0,1.407 -1.141,2.548 -2.548,2.548 m -34.308,0 c -1.407,0 -2.548,-1.141 -2.548,-2.548 0,-1.407 1.141,-2.548 2.548,-2.548 1.407,0 2.548,1.141 2.548,2.548 0,1.407 -1.141,2.548 -2.548,2.548 m -33.172,-0.28 c -0.723,-2.038 -1.292,-3.638 -1.687,-4.756 0.176,-0.043 0.351,-0.065 0.548,-0.065 1.402,0 2.542,1.139 2.542,2.564 0,0.986 -0.57,1.84 -1.403,2.257 M 0,50.93 c -1.407,0 -2.548,-1.14 -2.548,-2.547 0,-1.408 1.141,-2.549 2.548,-2.549 1.407,0 2.548,1.141 2.548,2.549 0,1.407 -1.141,2.547 -2.548,2.547 m -34.308,0 c -1.407,0 -2.548,-1.14 -2.548,-2.547 0,-1.408 1.141,-2.549 2.548,-2.549 1.407,0 2.548,1.141 2.548,2.549 0,1.407 -1.141,2.547 -2.548,2.547 m -34.308,0 c -1.407,0 -2.548,-1.14 -2.548,-2.547 0,-1.408 1.141,-2.549 2.548,-2.549 1.407,0 2.548,1.141 2.548,2.549 0,1.407 -1.141,2.547 -2.548,2.547 m 85.77,-26.228 c -1.407,0 -2.548,-1.141 -2.548,-2.548 0,-1.407 1.141,-2.548 2.548,-2.548 1.407,0 2.548,1.141 2.548,2.548 0,1.407 -1.141,2.548 -2.548,2.548 m -34.308,0 c -1.407,0 -2.548,-1.141 -2.548,-2.548 0,-1.407 1.141,-2.548 2.548,-2.548 1.407,0 2.548,1.141 2.548,2.548 0,1.407 -1.141,2.548 -2.548,2.548 m -34.308,0 c -1.407,0 -2.548,-1.141 -2.548,-2.548 0,-1.407 1.141,-2.548 2.548,-2.548 1.407,0 2.548,1.141 2.548,2.548 0,1.407 -1.141,2.548 -2.548,2.548 m -34.308,0 c -1.407,0 -2.548,-1.141 -2.548,-2.548 0,-1.407 1.141,-2.548 2.548,-2.548 1.407,0 2.548,1.141 2.548,2.548 0,1.407 -1.141,2.548 -2.548,2.548 m 83.887,76.301 c -0.416,-0.439 -0.657,-1.03 -0.657,-1.688 0,-1.402 1.139,-2.542 2.542,-2.542 0.328,0 0.657,0.066 0.942,0.176 -1.03,1.512 -1.972,2.87 -2.827,4.054 m -32.425,0.858 c -1.407,0 -2.548,-1.141 -2.548,-2.548 0,-1.407 1.141,-2.548 2.548,-2.548 1.407,0 2.548,1.141 2.548,2.548 0,1.407 -1.141,2.548 -2.548,2.548 M 15.121,74.619 c -0.328,-0.416 -0.526,-0.964 -0.526,-1.533 0,-1.403 1.162,-2.542 2.564,-2.542 0.088,0 0.176,0 0.263,0.022 -0.745,1.358 -1.512,2.717 -2.301,4.053 m -32.275,1.013 c -1.407,0 -2.548,-1.14 -2.548,-2.547 0,-1.408 1.141,-2.548 2.548,-2.548 1.407,0 2.548,1.14 2.548,2.548 0,1.407 -1.141,2.547 -2.548,2.547 m -31.76,-2.547 c 0,-1.408 -1.141,-2.548 -2.548,-2.548 -1.407,0 -2.548,1.14 -2.548,2.548 0,1.407 1.141,2.547 2.548,2.547 1.407,0 2.548,-1.14 2.548,-2.547"
             style="fill:#ffffff;fill-opacity:1;fill-rule:nonzero;stroke:none"
             id="path17509" /></g><g
           id="g17511"
           transform="translate(840.7731,524.1069)"><path
             d="m 0,0 c -6.58,-0.676 -13.183,-1.579 -19.599,-3.223 -3.192,-0.818 -6.325,-1.778 -9.454,-2.808 -1.56,-0.514 -3.127,-0.974 -4.704,-1.427 -1.619,-0.465 -3.357,-0.898 -5.049,-0.952 -0.152,-0.005 -0.148,-0.232 0.003,-0.236 1.646,-0.045 3.222,-0.084 4.864,0.09 1.56,0.165 3.112,0.499 4.635,0.874 3.246,0.799 6.452,1.748 9.69,2.58 6.531,1.678 13.059,3.354 19.696,4.558 C 0.388,-0.489 0.312,0.032 0,0"
             style="fill:#1a2e35;fill-opacity:1;fill-rule:nonzero;stroke:none"
             id="path17513" /></g><g
           id="g17515"
           transform="translate(857.0885,518.2586)"><path
             d="M 0,0 C -5.411,0.552 -10.932,0.853 -16.373,0.788 -19.11,0.755 -21.824,0.563 -24.548,0.3 c -1.3,-0.126 -2.599,-0.275 -3.894,-0.44 -1.426,-0.181 -2.83,-0.555 -4.257,-0.716 -0.149,-0.016 -0.149,-0.249 0.004,-0.236 1.351,0.111 2.726,-10e-4 4.082,0.031 1.361,0.032 2.723,0.075 4.085,0.108 2.727,0.067 5.453,0.103 8.18,0.195 5.458,0.185 10.894,0.314 16.355,0.309 C 0.303,-0.449 0.28,-0.029 0,0"
             style="fill:#1a2e35;fill-opacity:1;fill-rule:nonzero;stroke:none"
             id="path17517" /></g><g
           id="g17519"
           transform="translate(796.0356,620.6133)"><path
             d="m 0,0 c -50.744,-21.737 -110.804,-74.371 -108.718,-93.323 2.323,-21.109 75.208,9.553 74.693,12.735 -0.437,2.703 15.851,24.151 39.144,54.883 C 28.812,5.554 12.548,5.375 0,0"
             style="fill:#4f1781;fill-opacity:1;fill-rule:nonzero;stroke:none"
             id="path17521" /></g><g
           id="g17523"
           transform="translate(762.7048,581.0994)"><path
             d="m 0,0 c 0,-1.407 -1.141,-2.548 -2.548,-2.548 -1.407,0 -2.548,1.141 -2.548,2.548 0,1.407 1.141,2.548 2.548,2.548 C -1.141,2.548 0,1.407 0,0"
             style="fill:#ffffff;fill-opacity:1;fill-rule:nonzero;stroke:none"
             id="path17525" /></g><g
           id="g17527"
           transform="translate(779.8588,607.3276)"><path
             d="m 0,0 c 0,-1.407 -1.141,-2.548 -2.548,-2.548 -1.407,0 -2.548,1.141 -2.548,2.548 0,1.407 1.141,2.548 2.548,2.548 C -1.141,2.548 0,1.407 0,0"
             style="fill:#ffffff;fill-opacity:1;fill-rule:nonzero;stroke:none"
             id="path17529" /></g><g
           id="g17531"
           transform="translate(810.7365,609.7185)"><path
             d="m 0,0 c -0.46,-0.942 -0.986,-1.928 -1.6,-2.98 -0.043,0.175 -0.065,0.394 -0.065,0.592 0,1.095 0.701,2.016 1.665,2.388"
             style="fill:#ffffff;fill-opacity:1;fill-rule:nonzero;stroke:none"
             id="path17533" /></g><g
           id="g17535"
           transform="translate(694.0886,530.1691)"><path
             d="m 0,0 c 0,-1.407 -1.141,-2.548 -2.548,-2.548 -1.407,0 -2.548,1.141 -2.548,2.548 0,1.407 1.141,2.548 2.548,2.548 C -1.141,2.548 0,1.407 0,0"
             style="fill:#ffffff;fill-opacity:1;fill-rule:nonzero;stroke:none"
             id="path17537" /></g><g
           id="g17539"
           transform="translate(728.3967,530.1691)"><path
             d="m 0,0 c 0,-1.407 -1.141,-2.548 -2.548,-2.548 -1.407,0 -2.548,1.141 -2.548,2.548 0,1.407 1.141,2.548 2.548,2.548 C -1.141,2.548 0,1.407 0,0"
             style="fill:#ffffff;fill-opacity:1;fill-rule:nonzero;stroke:none"
             id="path17541" /></g><g
           id="g17543"
           transform="translate(711.2426,556.3973)"><path
             d="m 0,0 c 0,-1.407 -1.141,-2.548 -2.548,-2.548 -1.407,0 -2.548,1.141 -2.548,2.548 0,1.407 1.141,2.548 2.548,2.548 C -1.141,2.548 0,1.407 0,0"
             style="fill:#ffffff;fill-opacity:1;fill-rule:nonzero;stroke:none"
             id="path17545" /></g><g
           id="g17547"
           transform="translate(745.5507,556.3973)"><path
             d="m 0,0 c 0,-1.407 -1.141,-2.548 -2.548,-2.548 -1.407,0 -2.548,1.141 -2.548,2.548 0,1.407 1.141,2.548 2.548,2.548 C -1.141,2.548 0,1.407 0,0"
             style="fill:#ffffff;fill-opacity:1;fill-rule:nonzero;stroke:none"
             id="path17549" /></g><g
           id="g17551"
           transform="translate(812.3939,618.9028)"><path
             d="m 0,0 c 0.172,-3.728 6.611,-21.39 17.763,-22.484 5.732,-0.563 8.489,19.421 8.489,19.421 L 26.729,-1.63 33.384,18.43 7.555,38.724 C 7.555,38.724 -0.048,1.064 0,0"
             style="fill:#b06949;fill-opacity:1;fill-rule:nonzero;stroke:none"
             id="path17553" /></g><g
           id="g17555"
           transform="translate(817.1291,643.5701)"><path
             d="M 0,0 C 4.553,-15.925 16.393,-23.527 22.001,-26.3 L 28.657,-6.237 2.811,14.065 C 2.811,14.065 1.51,7.633 0,0"
             style="fill:#1a2e35;fill-opacity:1;fill-rule:nonzero;stroke:none"
             id="path17557" /></g><g
           id="g17559"
           transform="translate(877.624,666.0628)"><path
             d="m 0,0 c -1.046,-37.079 -23.374,-40.64 -31.369,-40.405 -7.258,0.212 -31.945,1.86 -34.736,38.849 -2.79,36.99 14.781,48.225 31.406,48.616 C -18.072,47.452 1.047,37.081 0,0"
             style="fill:#b06949;fill-opacity:1;fill-rule:nonzero;stroke:none"
             id="path17561" /></g><g
           id="g17563"
           transform="translate(872.2665,675.0239)"><path
             d="M 0,0 C -0.858,0.176 -1.621,0.482 -2.451,0.744 -3.389,1.04 -4.166,1.179 -4.807,1.98 -5.151,2.409 -5.05,3.212 -4.665,3.585 -3.767,4.454 -2.529,4.377 -1.385,4.067 -0.145,3.73 0.725,3.153 1.474,2.111 2.198,1.101 1.132,-0.232 0,0"
             style="fill:#1a2e35;fill-opacity:1;fill-rule:nonzero;stroke:none"
             id="path17565" /></g><g
           id="g17567"
           transform="translate(848.6113,676.9827)"><path
             d="M 0,0 C 0.876,0.026 1.68,0.195 2.543,0.31 3.518,0.439 4.307,0.442 5.077,1.12 5.49,1.483 5.53,2.291 5.214,2.725 4.48,3.737 3.247,3.874 2.067,3.767 0.787,3.649 -0.17,3.232 -1.086,2.335 -1.975,1.464 -1.155,-0.033 0,0"
             style="fill:#1a2e35;fill-opacity:1;fill-rule:nonzero;stroke:none"
             id="path17569" /></g><g
           id="g17571"
           transform="translate(852.7224,667.2306)"><path
             d="M 0,0 C -0.013,0.097 -0.205,-0.107 -0.208,-0.21 -0.288,-2.736 -0.805,-5.615 -3.139,-6.307 -3.211,-6.329 -3.212,-6.455 -3.127,-6.449 -0.32,-6.234 0.329,-2.406 0,0"
             style="fill:#1a2e35;fill-opacity:1;fill-rule:nonzero;stroke:none"
             id="path17573" /></g><g
           id="g17575"
           transform="translate(850.6389,670.0067)"><path
             d="M 0,0 C -4.035,0.565 -4.869,-7.546 -1.131,-8.07 2.547,-8.585 3.382,-0.474 0,0"
             style="fill:#1a2e35;fill-opacity:1;fill-rule:nonzero;stroke:none"
             id="path17577" /></g><g
           id="g17579"
           transform="translate(849.0024,669.7411)"><path
             d="m 0,0 c -0.756,-0.386 -1.533,-1.124 -2.396,-1.121 -0.998,0.004 -1.657,0.93 -2.218,1.813 -0.059,0.091 -0.136,0.028 -0.149,-0.079 -0.183,-1.552 0.25,-3.208 1.893,-3.611 1.498,-0.368 2.731,0.896 3.279,2.419 C 0.511,-0.297 0.304,0.156 0,0"
             style="fill:#1a2e35;fill-opacity:1;fill-rule:nonzero;stroke:none"
             id="path17581" /></g><g
           id="g17583"
           transform="translate(866.5921,666.2368)"><path
             d="M 0,0 C 0.03,0.093 0.183,-0.14 0.169,-0.244 -0.189,-2.745 -0.177,-5.67 2.001,-6.755 2.069,-6.788 2.048,-6.914 1.965,-6.892 -0.763,-6.196 -0.74,-2.312 0,0"
             style="fill:#1a2e35;fill-opacity:1;fill-rule:nonzero;stroke:none"
             id="path17585" /></g><g
           id="g17587"
           transform="translate(869.124,668.6102)"><path
             d="M 0,0 C 4.072,-0.14 3.491,-8.273 -0.281,-8.143 -3.993,-8.015 -3.413,0.118 0,0"
             style="fill:#1a2e35;fill-opacity:1;fill-rule:nonzero;stroke:none"
             id="path17589" /></g><g
           id="g17591"
           transform="translate(870.7816,667.9546)"><path
             d="M 0,0 C 0.612,-0.477 1.192,-1.305 1.956,-1.411 2.841,-1.532 3.562,-0.7 4.191,0.103 4.256,0.186 4.315,0.113 4.31,0.005 4.243,-1.552 3.613,-3.134 2.098,-3.326 0.716,-3.502 -0.188,-2.096 -0.449,-0.521 -0.497,-0.23 -0.247,0.192 0,0"
             style="fill:#1a2e35;fill-opacity:1;fill-rule:nonzero;stroke:none"
             id="path17593" /></g><g
           id="g17595"
           transform="translate(849.6989,647.5478)"><path
             d="M 0,0 C 0.381,-0.755 0.691,-1.72 1.533,-2.088 2.342,-2.442 3.445,-2.398 4.308,-2.362 4.394,-2.358 4.443,-2.465 4.37,-2.519 3.437,-3.226 1.935,-3.356 0.893,-2.785 -0.124,-2.228 -0.342,-1.11 -0.267,-0.031 -0.257,0.121 -0.056,0.11 0,0"
             style="fill:#1a2e35;fill-opacity:1;fill-rule:nonzero;stroke:none"
             id="path17597" /></g><g
           id="g17599"
           transform="translate(861.9617,655.3779)"><path
             d="m 0,0 c 0,0 0.177,-3.804 0.016,-5.577 -0.015,-0.165 -5.608,-0.85 -9.021,3.71 -0.127,0.17 0.135,0.346 0.286,0.221 2.18,-1.928 4.721,-2.605 7.492,-2.904 0.17,0.48 -0.521,6.505 -0.238,6.5 C -0.489,1.945 1.36,1.113 2.476,0.673 2.337,8.608 0.926,16.455 0.906,24.357 0.91,24.64 1.32,24.687 1.379,24.43 3.439,16.31 3.8,7.182 4.155,-1.008 4.208,-2.029 0.682,-0.366 0,0"
             style="fill:#1a2e35;fill-opacity:1;fill-rule:nonzero;stroke:none"
             id="path17601" /></g><g
           id="g17603"
           transform="translate(859.5765,650.2106)"><path
             d="M 0,0 C 0,0 -1.772,-1.914 -3.969,-2.435 -4.778,-2.629 -5.629,-2.648 -6.482,-2.317 -8.237,-1.645 -8.1,0.018 -7.614,1.4 -7.217,2.537 -6.567,3.482 -6.567,3.482 -6.567,3.482 -4.2,0.725 0,0"
             style="fill:#1a2e35;fill-opacity:1;fill-rule:nonzero;stroke:none"
             id="path17605" /></g><g
           id="g17607"
           transform="translate(855.6077,647.7761)"><path
             d="M 0,0 C -0.81,-0.195 -1.661,-0.213 -2.514,0.117 -4.268,0.79 -4.131,2.452 -3.645,3.834 -1.73,3.424 0.042,1.9 0,0"
             style="fill:#ff9cbf;fill-opacity:1;fill-rule:nonzero;stroke:none"
             id="path17609" /></g><g
           id="g17611"
           transform="translate(822.1329,710.8724)"><path
             d="M 0,0 C 3.358,0.558 9.73,17.465 -0.146,28.031 -9.872,38.436 -26.596,31.944 -23.206,16.414 -21.063,6.6 -7.102,-1.181 0,0"
             style="fill:#1a2e35;fill-opacity:1;fill-rule:nonzero;stroke:none"
             id="path17613" /></g><g
           id="g17615"
           transform="translate(806.1205,743.0609)"><path
             d="m 0,0 c -4.067,-2.19 -7.116,-5.817 -8.786,-9.797 -1.688,-4.018 -1.262,-8.543 1.296,-11.945 2.439,-3.534 6.288,-5.997 10.335,-7.807 2.053,-0.879 4.202,-1.583 6.405,-2.081 2.201,-0.533 4.469,-0.862 6.762,-0.558 -2.185,-0.875 -4.623,-0.806 -6.951,-0.673 -2.344,0.22 -4.675,0.691 -6.923,1.46 -4.455,1.542 -8.814,4.121 -11.699,8.193 -1.41,2.035 -2.414,4.474 -2.567,7.009 -0.147,2.528 0.43,5.043 1.543,7.214 C -8.392,-4.641 -4.473,-1.286 0,0"
             style="fill:#1a2e35;fill-opacity:1;fill-rule:nonzero;stroke:none"
             id="path17617" /></g><g
           id="g17619"
           transform="translate(813.7002,665.2911)"><path
             d="m 0,0 c 6.748,-1.782 10.604,13.708 10.604,13.708 0,0 29.906,1.06 35.56,24.543 0,0 2.99,-15.847 17.392,-24.758 0,0 2.457,26.244 -17.565,34.073 0,0 -24.439,12.771 -41.594,-5.686 C -12.758,23.423 -4.53,1.196 0,0"
             style="fill:#1a2e35;fill-opacity:1;fill-rule:nonzero;stroke:none"
             id="path17621" /></g><g
           id="g17623"
           transform="translate(860.2008,705.2892)"><path
             d="m 0,0 c -0.092,-3.685 -1.121,-7.343 -2.754,-10.697 -1.633,-3.354 -3.922,-6.449 -6.801,-8.881 -0.669,-0.665 -1.496,-1.136 -2.237,-1.712 l -1.142,-0.826 c -0.401,-0.242 -0.815,-0.464 -1.228,-0.686 -0.83,-0.436 -1.642,-0.907 -2.485,-1.308 -0.868,-0.348 -1.743,-0.675 -2.619,-0.993 -0.439,-0.155 -0.87,-0.331 -1.313,-0.47 l -1.356,-0.326 -2.702,-0.645 c -1.832,-0.256 -3.675,-0.418 -5.498,-0.552 1.778,0.509 3.572,0.83 5.311,1.349 l 2.578,0.856 1.284,0.424 c 0.417,0.17 0.82,0.376 1.23,0.562 0.814,0.384 1.628,0.759 2.45,1.113 0.789,0.419 1.543,0.904 2.315,1.35 l 1.153,0.677 1.07,0.8 c 0.693,0.557 1.471,1.011 2.095,1.648 2.751,2.27 4.934,5.148 6.765,8.218 0.909,1.546 1.67,3.184 2.316,4.873 C -0.889,-3.545 -0.384,-1.796 0,0"
             style="fill:#1a2e35;fill-opacity:1;fill-rule:nonzero;stroke:none"
             id="path17625" /></g><g
           id="g17627"
           transform="translate(848.7327,676.3689)"><path
             d="m 0,0 c -0.824,0.181 -1.685,0.264 -2.566,0.235 -5.712,-0.187 -10.206,-4.987 -10.022,-10.699 0.19,-5.711 4.99,-10.213 10.7,-10.02 5.712,0.188 10.206,4.987 10.021,10.699 C 7.974,-4.955 4.518,-0.994 0,0 m -4.798,-21.811 c -5.214,1.147 -9.205,5.718 -9.388,11.294 -0.215,6.595 4.974,12.135 11.567,12.351 C 3.977,2.051 9.515,-3.138 9.732,-9.732 L 9.731,-9.733 c 0.216,-6.592 -4.972,-12.133 -11.566,-12.35 -1.019,-0.033 -2.011,0.062 -2.963,0.272"
             style="fill:#4f1781;fill-opacity:1;fill-rule:nonzero;stroke:none"
             id="path17629" /></g><g
           id="g17631"
           transform="translate(874.8671,673.9692)"><path
             d="m 0,0 c -0.197,0.043 -0.397,0.076 -0.6,0.095 -1.892,0.19 -3.794,-0.669 -5.354,-2.418 -1.621,-1.821 -2.669,-4.366 -2.951,-7.167 -0.566,-5.688 2.219,-10.643 6.243,-11.041 4.009,-0.401 7.733,3.901 8.303,9.586 0.28,2.801 -0.244,5.504 -1.473,7.61 C 3.113,-1.528 1.65,-0.363 0,0 m -3.595,-21.999 c -4.472,0.983 -7.52,6.455 -6.9,12.667 0.312,3.135 1.502,6.003 3.348,8.072 1.907,2.143 4.289,3.19 6.706,2.948 C 1.985,1.451 4.103,-0.051 5.55,-2.529 6.949,-4.925 7.546,-7.97 7.232,-11.103 6.574,-17.667 2.065,-22.61 -2.82,-22.123 c -0.264,0.027 -0.521,0.068 -0.775,0.124"
             style="fill:#4f1781;fill-opacity:1;fill-rule:nonzero;stroke:none"
             id="path17633" /></g><g
           id="g17635"
           transform="translate(857.9273,665.2985)"><path
             d="M 0,0 -0.902,1.322 C 1.056,2.657 5.435,4.279 8.031,0.877 L 6.759,-0.093 C 4.439,2.958 0.18,0.12 0,0"
             style="fill:#4f1781;fill-opacity:1;fill-rule:nonzero;stroke:none"
             id="path17637" /></g><g
           id="g17639"
           transform="translate(804.5743,667.5385)"><path
             d="M 0,0 -1.341,0.872 C -0.933,1.497 2.738,6.987 6.35,7.209 9.725,7.407 30.861,3.275 31.758,3.098 L 31.45,1.529 C 25.391,2.719 9.055,5.773 6.449,5.612 4.063,5.466 0.986,1.511 0,0"
             style="fill:#4f1781;fill-opacity:1;fill-rule:nonzero;stroke:none"
             id="path17641" /></g><g
           id="g17643"
           transform="translate(818.2247,666.0854)"><path
             d="m 0,0 c 0,0 -6.716,12.429 -12.267,10.163 -5.549,-2.266 -1.424,-19.637 4.441,-22.625 5.864,-2.987 8.736,2.388 8.736,2.388 z"
             style="fill:#b06949;fill-opacity:1;fill-rule:nonzero;stroke:none"
             id="path17645" /></g><g
           id="g17647"
           transform="translate(807.2643,671.2985)"><path
             d="M 0,0 C -0.097,0.021 -0.132,-0.116 -0.051,-0.16 4.045,-2.396 5.847,-6.641 6.955,-10.954 5.86,-9.217 4.221,-8.145 1.916,-9.42 1.795,-9.487 1.882,-9.674 2.006,-9.663 c 1.803,0.174 3.038,-0.278 4.064,-1.824 0.727,-1.095 1.158,-2.423 1.627,-3.646 0.157,-0.406 0.874,-0.281 0.779,0.178 -0.007,0.034 -0.017,0.069 -0.024,0.104 C 9.192,-9.386 5.818,-1.23 0,0"
             style="fill:#1a2e35;fill-opacity:1;fill-rule:nonzero;stroke:none"
             id="path17649" /></g><g
           id="g17651"
           transform="translate(811.254,654.9114)"><path
             d="M 0,0 C 0.131,-0.87 0.942,-1.468 1.812,-1.337 2.681,-1.207 3.28,-0.395 3.149,0.474 3.018,1.344 2.207,1.943 1.338,1.812 0.468,1.681 -0.131,0.87 0,0"
             style="fill:#375a64;fill-opacity:1;fill-rule:nonzero;stroke:none"
             id="path17653" /></g><g
           id="g17655"
           transform="translate(812.0832,655.0367)"><path
             d="M 0,0 C 0.062,-0.412 0.446,-0.695 0.858,-0.633 1.269,-0.571 1.553,-0.188 1.49,0.224 1.428,0.636 1.045,0.919 0.633,0.857 0.221,0.795 -0.062,0.411 0,0"
             style="fill:#1a2e35;fill-opacity:1;fill-rule:nonzero;stroke:none"
             id="path17657" /></g><g
           id="g17659"
           transform="translate(808.7086,657.1603)"><path
             d="M 0,0 C 0.092,-0.615 0.666,-1.038 1.281,-0.946 1.896,-0.853 2.319,-0.28 2.227,0.336 2.134,0.95 1.561,1.374 0.946,1.281 0.331,1.188 -0.093,0.615 0,0"
             style="fill:#375a64;fill-opacity:1;fill-rule:nonzero;stroke:none"
             id="path17661" /></g><g
           id="g17663"
           transform="translate(762.6558,541.4158)"><path
             d="M 0,0 C 9.547,16.208 20.278,31.805 32.752,45.909 21.226,31.398 10.274,15.472 0,0"
             style="fill:#1a2e35;fill-opacity:1;fill-rule:nonzero;stroke:none"
             id="path17665" /></g><g
           id="g17667"
           transform="translate(782.1581,570.2668)"><path
             d="M 0,0 C 3.462,3.221 6.925,6.437 10.715,9.28 7.385,5.925 3.89,2.693 0,0"
             style="fill:#1a2e35;fill-opacity:1;fill-rule:nonzero;stroke:none"
             id="path17669" /></g></g></g><g
       id="g17673"
       transform="matrix(0.09348897,0,0,-0.08306712,-13.796323,87.671532)"><g
         id="g17675"
         clip-path="url(#clipPath17679)"><g
           id="g17681"
           transform="translate(689.2004,520.0113)"><path
             d="m 0,0 c 10.875,-10.661 34.662,-8.628 95.036,-9.128 8.355,-0.069 24.705,58.758 15.787,59.29 C 99.59,50.833 55.855,51.002 52.655,50.61 25.666,47.309 -7.376,7.232 0,0"
             style="fill:#b06949;fill-opacity:1;fill-rule:nonzero;stroke:none"
             id="path17683" /></g><g
           id="g17685"
           transform="translate(787.8768,570.6482)"><path
             d="m 0,0 c 0,0 25.371,0.892 38.846,-2.765 18.042,-4.897 31.603,-16.554 36.992,-21.782 11.247,-10.913 30.896,-45.074 22.045,-52.451 -8.013,-6.676 -26.334,29.258 -26.334,29.258 0,0 24.725,-33.555 13.599,-39.821 -11.126,-6.266 -30.021,36.658 -30.021,36.658 0,0 24.632,-35.047 12.136,-39.693 -9.443,-3.511 -28.747,34.402 -28.747,34.402 0,0 20.963,-30.27 11.407,-34.299 -10.559,-4.453 -30.573,29.425 -30.573,29.425 -26.014,-6.153 -40.917,1.558 -50.866,8.306 C -33.925,-51.128 0,0 0,0"
             style="fill:#b06949;fill-opacity:1;fill-rule:nonzero;stroke:none"
             id="path17687" /></g><g
           id="g17689"
           transform="translate(851.6176,535.0613)"><path
             d="m 0,0 c 3.047,-3.836 6.157,-7.699 8.853,-11.794 2.695,-4.094 5.25,-8.285 7.552,-12.612 5.647,-10.612 7.523,-18.14 7.357,-17.688 C 19.823,-31.395 10.4,-16.589 7.703,-12.493 5.013,-8.408 2.528,-4.186 -0.16,-0.097 -0.228,0.006 -0.073,0.091 0,0"
             style="fill:#1a2e35;fill-opacity:1;fill-rule:nonzero;stroke:none"
             id="path17691" /></g><g
           id="g17693"
           transform="translate(836.6567,525.5969)"><path
             d="m 0,0 c 3.679,-5.067 7.516,-9.963 10.973,-15.194 3.439,-5.206 6.246,-10.446 9.318,-15.875 0.236,-0.418 -0.066,-0.408 -0.321,0.003 -3.285,5.301 -6.733,9.95 -10.08,15.212 C 6.553,-10.61 3.396,-5.196 -0.128,-0.078 -0.183,0.002 -0.056,0.077 0,0"
             style="fill:#1a2e35;fill-opacity:1;fill-rule:nonzero;stroke:none"
             id="path17695" /></g><g
           id="g17697"
           transform="translate(822.3559,519.782)"><path
             d="m 0,0 c 6.019,-7.456 10.654,-16.014 15.001,-24.517 0.216,-0.423 -0.173,-0.366 -0.419,0.053 C 9.749,-16.22 6.016,-9.718 -0.26,-0.209 -0.358,-0.061 -0.127,0.157 0,0"
             style="fill:#1a2e35;fill-opacity:1;fill-rule:nonzero;stroke:none"
             id="path17699" /></g><g
           id="g17701"
           transform="translate(798.3311,575.0349)"><path
             d="m 0,0 c 0,0 -30.464,-69.651 -31.14,-69.759 -0.676,-0.108 -69.543,1.506 -77.991,14.735 -8.447,13.23 28.839,47.391 52.562,50.689 C -32.847,-1.038 0,0 0,0"
             style="fill:#4f1781;fill-opacity:1;fill-rule:nonzero;stroke:none"
             id="path17703" /></g><g
           id="g17705"
           transform="translate(777.1855,570.9068)"><path
             d="m 0,0 c -1.376,-2.394 -10.585,-25.117 -12.479,-30.097 -1.895,-4.981 -9.837,-25.264 -11.364,-30.558 -0.068,-0.236 0.242,-0.373 0.356,-0.148 2.485,4.912 10.552,25.35 12.586,30.385 C -8.866,-25.384 -0.252,-2.71 0.35,-0.095 0.401,0.126 0.094,0.163 0,0"
             style="fill:#1a2e35;fill-opacity:1;fill-rule:nonzero;stroke:none"
             id="path17707" /></g><g
           id="g17709"
           transform="translate(775.2828,552.572)"><path
             d="m 0,0 c -1.183,-0.762 -1.523,-2.339 -0.761,-3.522 0.763,-1.183 2.34,-1.523 3.522,-0.761 1.183,0.762 1.524,2.339 0.761,3.522 C 2.76,0.422 1.183,0.762 0,0 m -28.835,-18.589 c -1.183,-0.763 -1.524,-2.34 -0.761,-3.522 0.762,-1.183 2.339,-1.524 3.522,-0.761 1.182,0.762 1.523,2.339 0.761,3.522 -0.763,1.182 -2.34,1.523 -3.522,0.761 m -28.836,-18.59 c -1.182,-0.762 -1.523,-2.339 -0.761,-3.522 0.763,-1.182 2.34,-1.523 3.523,-0.761 1.182,0.763 1.523,2.34 0.76,3.522 -0.762,1.183 -2.339,1.524 -3.522,0.761 m 29.869,48.646 c -1.183,-0.762 -1.524,-2.339 -0.761,-3.522 0.762,-1.183 2.339,-1.523 3.522,-0.761 1.183,0.763 1.523,2.34 0.761,3.522 -0.762,1.183 -2.339,1.524 -3.522,0.761 M -56.637,-7.122 c -1.183,-0.763 -1.524,-2.34 -0.761,-3.522 0.762,-1.183 2.339,-1.524 3.522,-0.761 1.182,0.762 1.523,2.339 0.76,3.522 -0.762,1.183 -2.339,1.523 -3.521,0.761 m -25.314,-19.35 c 0.763,-1.183 0.422,-2.76 -0.761,-3.523 -1.183,-0.762 -2.759,-0.421 -3.522,0.761 -0.762,1.183 -0.422,2.76 0.761,3.523 1.183,0.762 2.76,0.421 3.522,-0.761"
             style="fill:#ffffff;fill-opacity:1;fill-rule:nonzero;stroke:none"
             id="path17711" /></g><g
           id="g17713"
           transform="translate(717.1241,559.6624)"><path
             d="m 0,0 c 4.136,3.241 16.038,11.226 28.989,11.777 0.144,0.006 0.173,-0.167 0.027,-0.192 C 18.562,9.851 4.418,2.729 0.129,-0.141 0.017,-0.217 -0.104,-0.082 0,0"
             style="fill:#1a2e35;fill-opacity:1;fill-rule:nonzero;stroke:none"
             id="path17715" /></g><g
           id="g17717"
           transform="translate(795.6219,570.2048)"><path
             d="M 0,0 2.395,5.189 2.523,4.994 C -5.983,4.393 -17.906,3.55 -26.272,2.776 -34.637,2.072 -46.55,0.745 -55.003,-0.188 c 9.498,1.629 19.072,2.784 28.665,3.687 9.672,0.894 19.373,1.491 29.081,1.772 0,0 -0.105,-0.202 -0.105,-0.202 z"
             style="fill:#1a2e35;fill-opacity:1;fill-rule:nonzero;stroke:none"
             id="path17719" /></g><g
           id="g17721"
           transform="translate(746.6288,506.2411)"><path
             d="M 0,0 C 5.498,0.044 10.961,-0.245 16.424,-0.876 10.941,-0.923 5.449,-0.627 0,0"
             style="fill:#1a2e35;fill-opacity:1;fill-rule:nonzero;stroke:none"
             id="path17723" /></g></g></g></g></svg>
