<?xml version="1.0" encoding="UTF-8" standalone="no"?>
<!-- Created with Inkscape (http://www.inkscape.org/) -->

<svg
   width="123.51164mm"
   height="38.988628mm"
   viewBox="0 0 123.51164 38.988628"
   version="1.1"
   id="svg5"
   xml:space="preserve"
   xmlns="http://www.w3.org/2000/svg"
   xmlns:svg="http://www.w3.org/2000/svg"><defs
     id="defs2"><clipPath
       clipPathUnits="userSpaceOnUse"
       id="clipPath29161-0"><path
         d="m 212.548,443.664 h 31.807 V 429.13 h -31.807 z"
         id="path29159-0" /></clipPath><clipPath
       clipPathUnits="userSpaceOnUse"
       id="clipPath31257"><g
         id="g31261"
         transform="matrix(2.8346458,0,0,-2.8346457,-110.05867,365.10151)"><path
           d="M -25.367764,88.22521 H 151.02112 V 264.6141 H -25.367764 Z"
           id="path31259"
           style="stroke-width:0.352778" /></g></clipPath><clipPath
       clipPathUnits="userSpaceOnUse"
       id="clipPath31263"><g
         id="g31267"
         transform="matrix(2.8346458,0,0,-2.8346457,-129.54107,369.91669)"><path
           d="M -25.367764,88.22521 H 151.02112 V 264.6141 H -25.367764 Z"
           id="path31265"
           style="stroke-width:0.352778" /></g></clipPath><clipPath
       clipPathUnits="userSpaceOnUse"
       id="clipPath31275"><g
         id="g31279"
         transform="matrix(2.8346458,0,0,-2.8346457,-140.96587,301.53041)"><path
           d="M -25.367764,88.22521 H 151.02112 V 264.6141 H -25.367764 Z"
           id="path31277"
           style="stroke-width:0.352778" /></g></clipPath><clipPath
       clipPathUnits="userSpaceOnUse"
       id="clipPath31281"><g
         id="g31285"
         transform="matrix(2.8346458,0,0,-2.8346457,71.908626,750.08721)"><path
           d="M -25.367764,88.22521 H 151.02112 V 264.6141 H -25.367764 Z"
           id="path31283"
           style="stroke-width:0.352778" /></g></clipPath><clipPath
       clipPathUnits="userSpaceOnUse"
       id="clipPath31287"><g
         id="g31291"
         transform="matrix(2.8346458,0,0,-2.8346457,-176.89847,329.30342)"><path
           d="M -25.367764,88.22521 H 151.02112 V 264.6141 H -25.367764 Z"
           id="path31289"
           style="stroke-width:0.352778" /></g></clipPath><clipPath
       clipPathUnits="userSpaceOnUse"
       id="clipPath31293"><g
         id="g31297"
         transform="matrix(2.8346458,0,0,-2.8346457,-140.63927,312.61189)"><path
           d="M -25.367764,88.22521 H 151.02112 V 264.6141 H -25.367764 Z"
           id="path31295"
           style="stroke-width:0.352778" /></g></clipPath><clipPath
       clipPathUnits="userSpaceOnUse"
       id="clipPath31305"><g
         id="g31309"
         transform="matrix(2.8346458,0,0,-2.8346457,-327.33257,358.4937)"><path
           d="M -25.367764,88.22521 H 151.02112 V 264.6141 H -25.367764 Z"
           id="path31307"
           style="stroke-width:0.352778" /></g></clipPath><clipPath
       clipPathUnits="userSpaceOnUse"
       id="clipPath31311"><g
         id="g31315"
         transform="matrix(2.8346458,0,0,-2.8346457,-268.43558,325.96492)"><path
           d="M -25.367764,88.22521 H 151.02112 V 264.6141 H -25.367764 Z"
           id="path31313"
           style="stroke-width:0.352778" /></g></clipPath><clipPath
       clipPathUnits="userSpaceOnUse"
       id="clipPath31317"><g
         id="g31321"
         transform="matrix(2.8346458,0,0,-2.8346457,-306.89848,316.29682)"><path
           d="M -25.367764,88.22521 H 151.02112 V 264.6141 H -25.367764 Z"
           id="path31319"
           style="stroke-width:0.352778" /></g></clipPath><clipPath
       clipPathUnits="userSpaceOnUse"
       id="clipPath31323"><g
         id="g31327"
         transform="matrix(2.8346458,0,0,-2.8346457,-308.66759,311.26921)"><path
           d="M -25.367764,88.22521 H 151.02112 V 264.6141 H -25.367764 Z"
           id="path31325"
           style="stroke-width:0.352778" /></g></clipPath><clipPath
       clipPathUnits="userSpaceOnUse"
       id="clipPath31329"><g
         id="g31333"
         transform="matrix(2.8346458,0,0,-2.8346457,-309.45706,322.0975)"><path
           d="M -25.367764,88.22521 H 151.02112 V 264.6141 H -25.367764 Z"
           id="path31331"
           style="stroke-width:0.352778" /></g></clipPath></defs><g
     id="layer14"
     style="display:inline"
     transform="translate(-5.0422389,-11.181331)"><g
       id="g19496"
       style="display:none;fill:#ffffff;stroke:#ffffff;stroke-opacity:1"
       transform="matrix(1.0046408,0,0,0.94902954,48.478006,13.721743)"><ellipse
         style="fill:#ffffff;fill-opacity:1;stroke:#ffffff;stroke-width:0.32567;stroke-dasharray:none;stroke-opacity:1"
         id="path19218-8"
         cx="25.130514"
         cy="16.278641"
         rx="1.1314286"
         ry="0.84857142" /><ellipse
         style="fill:#ffffff;fill-opacity:1;stroke:#ffffff;stroke-width:0.203943;stroke-dasharray:none;stroke-opacity:1"
         id="path19220-4"
         cx="29.514791"
         cy="12.460068"
         rx="1.8385714"
         ry="1.4142855" /><ellipse
         style="fill:#ffffff;fill-opacity:1;stroke:#ffffff;stroke-width:0.265909;stroke-dasharray:none;stroke-opacity:1"
         id="path19222-8"
         cx="47.334801"
         cy="6.0957837"
         rx="14.567143"
         ry="6.5057139" /><ellipse
         style="fill:#ffffff;fill-opacity:1;stroke:#ffffff;stroke-width:0.331982;stroke-dasharray:none;stroke-opacity:1"
         id="path19218-3-0"
         cx="-4.565321"
         cy="-24.355286"
         rx="1.4060144"
         ry="0.70957255"
         transform="scale(-1)" /><ellipse
         style="fill:#ffffff;fill-opacity:1;stroke:#ffffff;stroke-width:0.207894;stroke-dasharray:none;stroke-opacity:1"
         id="path19220-8-1"
         cx="0.88297439"
         cy="-27.548363"
         rx="2.2847733"
         ry="1.1826209"
         transform="scale(-1)" /><ellipse
         style="fill:#ffffff;fill-opacity:1;stroke:#ffffff;stroke-width:0.271061;stroke-dasharray:none;stroke-opacity:1"
         id="path19222-7-5"
         cx="23.027712"
         cy="-32.870155"
         rx="18.102436"
         ry="5.4400563"
         transform="scale(-1)" /><ellipse
         style="fill:#ffffff;fill-opacity:1;stroke:#ffffff;stroke-width:0.265909;stroke-dasharray:none;stroke-opacity:1"
         id="path19224-0"
         cx="25.413366"
         cy="20.66293"
         rx="0.84857142"
         ry="0.70714283" /><ellipse
         style="fill:#ffffff;fill-opacity:1;stroke:#ffffff;stroke-width:0.265909;stroke-dasharray:none;stroke-opacity:1"
         id="path19226-0"
         cx="30.363371"
         cy="21.370068"
         rx="1.5557142"
         ry="1.4142857" /><ellipse
         style="fill:#ffffff;fill-opacity:1;stroke:#ffffff;stroke-width:0.265909;stroke-dasharray:none;stroke-opacity:1"
         id="path19228-39"
         cx="37.434799"
         cy="22.501499"
         rx="2.5457141"
         ry="2.4042857" /><ellipse
         style="fill:#ffffff;fill-opacity:1;stroke:#ffffff;stroke-width:0.273471;stroke-dasharray:none;stroke-opacity:1"
         id="path19230-6"
         cx="62.609085"
         cy="24.481499"
         rx="18.527143"
         ry="7.7785711" /><ellipse
         style="fill:#ffffff;fill-opacity:1;stroke:#ffffff;stroke-width:0.243359;stroke-dasharray:none;stroke-opacity:1"
         id="path19224-3-9"
         cx="-8.1550083"
         cy="-20.8591"
         rx="0.7655108"
         ry="0.6565631"
         transform="scale(-1)" /><ellipse
         style="fill:#ffffff;fill-opacity:1;stroke:#ffffff;stroke-width:0.243359;stroke-dasharray:none;stroke-opacity:1"
         id="path19226-5-2"
         cx="-3.6895278"
         cy="-20.202541"
         rx="1.4034364"
         ry="1.3131262"
         transform="scale(-1)" /><ellipse
         style="fill:#ffffff;fill-opacity:1;stroke:#ffffff;stroke-width:0.243359;stroke-dasharray:none;stroke-opacity:1"
         id="path19228-3-6"
         cx="2.6897295"
         cy="-19.152037"
         rx="2.2965324"
         ry="2.2323146"
         transform="scale(-1)" /><ellipse
         style="fill:#ffffff;fill-opacity:1;stroke:#ffffff;stroke-width:0.250281;stroke-dasharray:none;stroke-opacity:1"
         id="path19230-5-4"
         cx="25.399883"
         cy="-17.313662"
         rx="16.713654"
         ry="7.2221942"
         transform="scale(-1)" /></g><g
       id="g75580"
       style="display:inline"><ellipse
         style="fill:#ffffff;fill-opacity:1;stroke:#c8c8c8;stroke-width:0.265909;stroke-dasharray:none;stroke-opacity:1"
         id="path19224"
         cx="72.694283"
         cy="32.387146"
         rx="0.84857142"
         ry="0.70714283" /><ellipse
         style="fill:#ffffff;fill-opacity:1;stroke:#c8c8c8;stroke-width:0.265909;stroke-dasharray:none;stroke-opacity:1"
         id="path19226"
         cx="77.644287"
         cy="33.094284"
         rx="1.5557142"
         ry="1.4142857" /><ellipse
         style="fill:#ffffff;fill-opacity:1;stroke:#c8c8c8;stroke-width:0.265909;stroke-dasharray:none;stroke-opacity:1"
         id="path19228"
         cx="84.715714"
         cy="34.225716"
         rx="2.5457141"
         ry="2.4042857" /><ellipse
         style="fill:#ffffff;fill-opacity:1;stroke:#c8c8c8;stroke-width:0.273471;stroke-dasharray:none;stroke-opacity:1"
         id="path19230"
         cx="109.89"
         cy="36.205715"
         rx="18.527143"
         ry="7.7785711" /><g
         id="g31905"
         transform="matrix(0.95946679,0,0,0.84624946,12.038836,-58.997794)"><g
           id="g29111"
           transform="matrix(0.35277776,0,0,-0.35277778,109.16957,113.62884)"
           clip-path="url(#clipPath31329)"
           style="fill:#ffc800;fill-opacity:1"><path
             d="m 0,0 -0.949,0.316 c 0.591,1.776 0.89,3.622 0.89,5.485 h 1 C 0.941,3.83 0.625,1.878 0,0"
             style="fill:#4f1781;fill-opacity:1;fill-rule:nonzero;stroke:none"
             id="path29113" /></g><g
           id="g29115"
           transform="matrix(0.35277776,0,0,-0.35277778,108.89106,109.80886)"
           clip-path="url(#clipPath31323)"
           style="fill:#ffc800;fill-opacity:1"><path
             d="m 0,0 c -1.592,5.335 -5.671,9.65 -10.914,11.543 l 0.34,0.941 C -5.035,10.483 -0.724,5.923 0.958,0.286 Z"
             style="fill:#4f1781;fill-opacity:1;fill-rule:nonzero;stroke:none"
             id="path29117" /></g><g
           id="g29119"
           transform="matrix(0.35277776,0,0,-0.35277778,108.26696,111.58249)"
           clip-path="url(#clipPath31317)"
           style="fill:#ffc800;fill-opacity:1"><path
             d="m 0,0 c 0,8.346 -6.766,15.111 -15.111,15.111 -8.346,0 -15.111,-6.765 -15.111,-15.111 0,-6.552 4.047,-11.91 10,-14.224 5.954,-2.315 10.385,-4.037 10.385,-4.037 l -1.97,3.513 C -5.051,-13.241 0,-7.211 0,0"
             style="fill:#4f1781;fill-opacity:1;fill-rule:nonzero;stroke:none"
             id="path29121" /></g><g
           id="g29123"
           transform="matrix(0.35277776,0,0,-0.35277778,94.698101,114.99318)"
           clip-path="url(#clipPath31311)"><path
             d="m 0,0 c 0,6.116 4.958,11.074 11.074,11.074 6.116,0 11.074,-4.958 11.074,-11.074 0,-4.802 -2.966,-8.728 -7.329,-10.424 -4.363,-1.696 -7.61,-2.959 -7.61,-2.959 l 1.444,2.575 C 3.701,-9.703 0,-5.284 0,0"
             style="fill:#1a2e35;fill-opacity:1;fill-rule:nonzero;stroke:none"
             id="path29125" /></g></g></g><g
       id="g75605"><ellipse
         style="fill:#ffffff;fill-opacity:1;stroke:#c8c8c8;stroke-width:0.32567;stroke-dasharray:none;stroke-opacity:1"
         id="path19218"
         cx="72.41143"
         cy="28.002857"
         rx="1.1314286"
         ry="0.84857142" /><ellipse
         style="fill:#ffffff;fill-opacity:1;stroke:#c8c8c8;stroke-width:0.203943;stroke-dasharray:none;stroke-opacity:1"
         id="path19220"
         cx="76.795708"
         cy="24.184284"
         rx="1.8385714"
         ry="1.4142855" /><ellipse
         style="fill:#ffffff;fill-opacity:1;stroke:#c8c8c8;stroke-width:0.265909;stroke-dasharray:none;stroke-opacity:1"
         id="path19222"
         cx="94.615715"
         cy="17.82"
         rx="14.567143"
         ry="6.5057139" /><g
         id="g29127"
         transform="matrix(0.30476116,0,0,-0.2863568,95.784773,12.262782)"
         clip-path="url(#clipPath31305)"
         style="fill:#ffc800;fill-opacity:1"><path
           d="m 0,0 c -4.191,-3.707 -13.093,-6.447 -18.208,-5.989 -2.618,-16.787 11.416,-30.146 11.416,-30.146 0,0 17.927,7.352 21.582,23.943 C 9.858,-10.761 2.559,-4.976 0,0"
           style="fill:#4f1781;fill-opacity:1;fill-rule:nonzero;stroke:none"
           id="path29129" /><path
           d="m 0,0 c -0.784,-11.6 6.811,-21.318 9.768,-24.633 3.958,2.015 14.564,8.313 18.044,19.405 C 23.339,-3.211 18.287,0.906 15.323,4.923 11.102,2.256 4.9,0.255 0,0"
           style="display:inline;fill:#1a2e35;fill-opacity:1;fill-rule:nonzero;stroke:none"
           id="path29139"
           transform="translate(-15.993591,-8.4916006)" /></g></g><g
       id="g75738"><ellipse
         style="fill:#ffffff;fill-opacity:1;stroke:#c8c8c8;stroke-width:0.243359;stroke-dasharray:none;stroke-opacity:1"
         id="path19224-3"
         cx="-55.435925"
         cy="-32.583317"
         rx="0.7655108"
         ry="0.6565631"
         transform="scale(-1)" /><ellipse
         style="fill:#ffffff;fill-opacity:1;stroke:#c8c8c8;stroke-width:0.243359;stroke-dasharray:none;stroke-opacity:1"
         id="path19226-5"
         cx="-50.970444"
         cy="-31.926758"
         rx="1.4034364"
         ry="1.3131262"
         transform="scale(-1)" /><ellipse
         style="fill:#ffffff;fill-opacity:1;stroke:#c8c8c8;stroke-width:0.243359;stroke-dasharray:none;stroke-opacity:1"
         id="path19228-3"
         cx="-44.591187"
         cy="-30.876253"
         rx="2.2965324"
         ry="2.2323146"
         transform="scale(-1)" /><ellipse
         style="fill:#ffffff;fill-opacity:1;stroke:#c8c8c8;stroke-width:0.250281;stroke-dasharray:none;stroke-opacity:1"
         id="path19230-5"
         cx="-21.881033"
         cy="-29.037878"
         rx="16.713654"
         ry="7.2221942"
         transform="scale(-1)" /><g
         id="g31919"
         transform="matrix(0.9860385,0,0,0.8240263,-32.919733,-62.573922)"><g
           id="g29147"
           transform="matrix(0.35277776,0,0,-0.35277778,49.614408,110.28253)"
           clip-path="url(#clipPath31293)"
           style="fill:#1a2e35;fill-opacity:1"><path
             d="M 0,0 13.678,14.535 31.807,6.189 Z"
             style="fill:#1a2e35;fill-opacity:1;fill-rule:nonzero;stroke:none"
             id="path29149" /></g><g
           id="g29151"
           transform="matrix(0.35277776,0,0,-0.35277778,62.405847,116.17093)"
           clip-path="url(#clipPath31287)"
           style="fill:#1a2e35;fill-opacity:1"><path
             d="m 0,0 -31.808,-6.189 c -1.456,-0.283 -2.867,0.668 -3.15,2.125 l -3.426,17.605 c -0.283,1.457 0.668,2.867 2.125,3.151 l 31.807,6.189 c 1.457,0.283 2.868,-0.668 3.151,-2.125 L 2.125,3.151 C 2.408,1.694 1.457,0.283 0,0"
             style="fill:#1a2e35;fill-opacity:1;fill-rule:nonzero;stroke:none"
             id="path29153" /></g><g
           id="g29155"
           transform="matrix(0.35277776,0,0,-0.35277778,-25.367764,264.6141)"
           clip-path="url(#clipPath31281)"><g
             id="g29157" /><g
             id="g29169"><g
               clip-path="url(#clipPath29161-0)"
               opacity="0.399994"
               id="g29167"><g
                 transform="translate(212.5479,437.4753)"
                 id="g29165"><path
                   d="M 0,0 18.129,-8.346 31.807,6.189 Z"
                   style="fill:#000000;fill-opacity:1;fill-rule:nonzero;stroke:none"
                   id="path29163" /></g></g></g></g><g
           id="g29171"
           transform="matrix(0.35277776,0,0,-0.35277778,49.729625,106.37323)"
           clip-path="url(#clipPath31275)"
           style="fill:#ffc800;fill-opacity:1"><path
             d="M 0,0 4.555,-13.329 17.803,-19.427 28.484,-8.076 23.035,7.872 Z"
             style="fill:#4f1781;fill-opacity:1;fill-rule:nonzero;stroke:none"
             id="path29173" /></g></g></g><g
       id="g75766"><ellipse
         style="fill:#ffffff;fill-opacity:1;stroke:#c8c8c8;stroke-width:0.331982;stroke-dasharray:none;stroke-opacity:1"
         id="path19218-3"
         cx="-51.846237"
         cy="-36.079502"
         rx="1.4060144"
         ry="0.70957255"
         transform="scale(-1)" /><ellipse
         style="fill:#ffffff;fill-opacity:1;stroke:#c8c8c8;stroke-width:0.207894;stroke-dasharray:none;stroke-opacity:1"
         id="path19220-8"
         cx="-46.397942"
         cy="-39.272579"
         rx="2.2847733"
         ry="1.1826209"
         transform="scale(-1)" /><ellipse
         style="fill:#ffffff;fill-opacity:1;stroke:#c8c8c8;stroke-width:0.271061;stroke-dasharray:none;stroke-opacity:1"
         id="path19222-7"
         cx="-24.253204"
         cy="-44.594372"
         rx="18.102436"
         ry="5.4400563"
         transform="scale(-1)" /><g
         id="g31925"
         transform="rotate(-14.536527,-293.86744,161.57638)"><g
           id="g29191"
           transform="matrix(0.35277776,0,0,-0.35277778,45.69921,130.49839)"
           clip-path="url(#clipPath31263)"
           style="fill:#ffc800;fill-opacity:1"><path
             d="M 0,0 C -2.646,-0.766 -5.424,0.758 -6.192,3.412 -6.96,6.066 -5.426,8.839 -2.78,9.605 -0.126,10.373 2.652,8.849 3.42,6.195 4.189,3.541 2.654,0.768 0,0 m 9.365,10.54 -1.8,0.097 c -0.001,0 -0.001,10e-4 -0.002,0.002 -0.375,0.583 -0.809,1.122 -1.292,1.61 l 0.302,1.782 -4.412,2.431 -1.344,-1.206 c -0.001,0 -0.001,0 -0.002,10e-4 -0.671,0.147 -1.359,0.226 -2.053,0.232 -0.001,0 -0.001,0 -0.001,0 l -1.043,1.468 -4.839,-1.4 -0.098,-1.803 c -0.587,-0.376 -1.123,-0.808 -1.618,-1.29 l -1.776,0.301 -2.431,-4.412 1.198,-1.335 c 0,-10e-4 -10e-4,-10e-4 -10e-4,-0.002 -0.138,-0.669 -0.218,-1.357 -0.23,-2.062 V 4.948 l -1.462,-1.038 1.401,-4.839 1.79,-0.097 c 0.001,-0.003 0.003,-0.005 0.004,-0.008 0.385,-0.582 0.822,-1.129 1.297,-1.621 l -0.3,-1.766 4.412,-2.431 1.334,1.197 c 0.677,-0.136 1.364,-0.215 2.068,-0.227 0,0 10e-4,0 10e-4,0 l 1.04,-1.465 4.84,1.4 0.096,1.794 c 0.001,10e-4 0.002,10e-4 0.003,0.002 0.589,0.386 1.128,0.821 1.62,1.296 0,0 0,0 10e-4,0 l 1.771,-0.3 2.432,4.412 L 9.065,2.6 c 0.146,0.671 0.226,1.358 0.232,2.051 0,0.002 -0.001,0.004 -0.001,0.006 l 1.47,1.043 z"
             style="fill:#4f1781;fill-opacity:1;fill-rule:nonzero;stroke:none"
             id="path29193" /></g><g
           id="g29195"
           transform="matrix(0.35277776,0,0,-0.35277778,38.826252,128.7997)"
           clip-path="url(#clipPath31257)"><path
             d="m 0,0 c -2.637,-0.763 -5.405,0.755 -6.171,3.401 -0.765,2.644 0.764,5.407 3.4,6.17 2.646,0.766 5.414,-0.753 6.18,-3.398 C 4.174,3.528 2.645,0.766 0,0 M 5.2,8.298 4.098,8.357 c 0,0.001 -10e-4,0.001 -10e-4,0.002 -0.23,0.357 -0.495,0.686 -0.791,0.986 l 0.185,1.09 -2.701,1.488 -0.823,-0.738 c 0,0 0,0 -0.001,0 -0.411,0.09 -0.832,0.139 -1.257,0.143 0,0 0,0 -0.001,0 l -0.638,0.899 -2.962,-0.858 -0.06,-1.103 c -0.359,-0.23 -0.687,-0.495 -0.99,-0.79 L -7.029,9.66 -8.518,6.959 -7.784,6.142 V 6.141 C -7.869,5.731 -7.918,5.31 -7.925,4.879 V 4.875 L -8.82,4.24 -7.963,1.278 -6.867,1.219 c 0.001,-0.002 0.002,-0.004 0.003,-0.005 0.235,-0.356 0.502,-0.692 0.793,-0.993 l -0.183,-1.081 2.701,-1.488 0.816,0.733 c 0.414,-0.083 0.835,-0.132 1.266,-0.139 0,0 0,0 0,0 l 0.637,-0.897 2.962,0.857 0.06,1.098 c 0,0.001 0,0.001 10e-4,0.001 0.361,0.237 0.691,0.503 0.992,0.794 0,0 0,0 10e-4,0 L 4.266,-0.085 5.754,2.616 5.016,3.438 c 0.09,0.411 0.138,0.831 0.142,1.255 0,0.002 0,0.003 0,0.004 l 0.899,0.639 z"
             style="fill:#1a2e35;fill-opacity:1;fill-rule:nonzero;stroke:none"
             id="path29197" /></g></g></g></g></svg>
